<svg width="16" height="16" viewBox="0 0 16 16" fill="none" xmlns="http://www.w3.org/2000/svg">
<path d="M14.3644 5.29301C14.1769 5.10554 13.9226 5.00023 13.6574 5.00023C13.3923 5.00023 13.138 5.10554 12.9504 5.29301L8.00044 10.243L3.05044 5.29301C2.86184 5.11085 2.60924 5.01006 2.34704 5.01234C2.08484 5.01462 1.83403 5.11979 1.64862 5.30519C1.46321 5.4906 1.35805 5.74141 1.35577 6.00361C1.35349 6.26581 1.45428 6.51841 1.63644 6.70701L7.29344 12.364C7.48097 12.5515 7.73528 12.6568 8.00044 12.6568C8.2656 12.6568 8.51991 12.5515 8.70744 12.364L14.3644 6.70701C14.5519 6.51949 14.6572 6.26518 14.6572 6.00001C14.6572 5.73485 14.5519 5.48054 14.3644 5.29301Z" fill="#D25AC4"/>
</svg>
