<svg xmlns="http://www.w3.org/2000/svg" width="13" height="8" viewBox="0 0 13 8" fill="none">
    <path d="M0.272427 0.622248C0.436092 0.44558 0.662352 0.342076 0.901451 0.334499C1.14055 0.326921 1.37291 0.415889 1.54743 0.58184L6.15421 4.96363L10.4743 0.298924C10.6391 0.12708 10.8639 0.0277568 11.1004 0.0223456C11.3369 0.0169345 11.5661 0.105869 11.7386 0.269995C11.9112 0.43412 12.0133 0.660304 12.0229 0.899832C12.0326 1.13936 11.949 1.37306 11.7902 1.55061L6.85314 6.88158C6.68947 7.05824 6.46321 7.16175 6.22411 7.16932C5.98501 7.1769 5.75265 7.08793 5.57813 6.92198L0.313377 1.91434C0.138903 1.74834 0.0365755 1.51897 0.0288962 1.27666C0.0212169 1.03436 0.108815 0.798966 0.272427 0.622248Z" fill="#A09FA5"/>
</svg>