 <svg width="134" height="41" viewBox="0 0 134 41" fill="none" xmlns="http://www.w3.org/2000/svg">
    <circle cx="20.5" cy="20.5" r="20.5" fill="#A797B0"/>
    <mask id="mask0_191_2248" className="mask-type:alpha" maskUnits="userSpaceOnUse" x="0" y="0" width="41" height="41">
        <path d="M20.5 41C31.8218 41 41 31.8218 41 20.5C41 9.17816 31.8218 0 20.5 0C9.17816 0 0 9.17816 0 20.5C0 31.8218 9.17816 41 20.5 41Z" fill="#FFBA55"/>
    </mask>
    <g mask="url(#mask0_191_2248)">
        <path d="M27.4497 7.31456L24.1837 8.69749C24.1837 8.69749 24.0576 8.70618 23.8424 8.7214C22.4986 8.81054 17.63 9.13236 17.443 9.13236C17.2256 9.13236 12.8833 9.3085 12.8833 9.3085V7.99732C12.8833 7.99732 13.3204 2.15247 20.1654 1.83719C20.7024 1.7265 21.2532 1.69936 21.7984 1.75672C23.5314 1.91547 26.1929 2.92223 27.4497 7.31456Z" fill="#5E1212"/>
        <g className="mix-blend-mode:multiply">
            <path d="M27.4497 7.31459L24.1838 8.69751C24.1838 8.69751 24.0577 8.7062 23.8424 8.72142C20.1698 8.4692 12.8833 7.99734 12.8833 7.99734C16.2296 7.86873 19.5653 7.54053 22.8726 7.01451C23.1433 6.97211 23.4 6.86593 23.6215 6.70474C23.8431 6.54354 24.0231 6.33196 24.1467 6.08746C24.2704 5.84295 24.3341 5.57254 24.3326 5.29856C24.3311 5.02458 24.2644 4.75489 24.1381 4.51175C23.5152 3.47085 22.7247 2.53998 21.7984 1.75674C23.5314 1.91549 26.1929 2.92225 27.4497 7.31459Z" fill="#5E1212"/>
        </g>
        <path d="M32.6701 10.759C32.6658 10.8445 32.6549 10.9295 32.6375 11.0134C32.5113 11.6244 31.8634 14.0554 29.4019 15.0034L28.7431 15.7884L27.1188 17.7215L22.9874 15.7645L15.9205 17.0474L12.8829 17.0996L10.9194 16.0906C10.9194 16.0906 3.85032 11.8114 10.5323 8.76066C11.5367 8.30951 12.6007 8.00489 13.6918 7.8561C16.1684 7.50385 21.8524 6.82108 26.3577 7.19943H26.3599C29.9173 7.49515 32.7375 8.45408 32.6701 10.759Z" fill="#5E1212"/>
        <g className="mix-blend-mode:multiply">
            <path d="M32.6703 10.7587C32.666 10.8443 32.6551 10.9293 32.6376 11.0131C32.5115 11.6242 31.8635 14.0552 29.4021 15.0032L28.7432 15.7882L27.4495 15.6512C34.1945 11.0806 26.3579 7.19922 26.3579 7.19922H26.3601C29.9174 7.49493 32.7377 8.45386 32.6703 10.7587Z" fill="#5E1212"/>
        </g>
        <path d="M43.7532 43.7058L25.1945 44.3516L24.5292 44.3755L19.9868 44.5343L19.3258 44.556L0.0473461 45.2279C0.0473461 45.2279 -4.51894 32.3988 6.78805 29.3546L6.74238 29.0872C6.6935 28.789 6.74356 28.4831 6.88491 28.2161C7.02627 27.9491 7.25114 27.7357 7.52518 27.6086L9.39736 26.7453C9.39736 26.7453 9.61479 21.9616 13.7462 20.6569L26.5753 21.0918C26.5753 21.0918 32.4462 22.3965 33.0985 27.3976C33.0985 27.3976 35.0555 27.3976 35.4904 29.1372C37.2291 29.5609 38.818 30.4543 40.0834 31.7197C41.3489 32.9852 42.2423 34.574 42.666 36.3128L43.7532 43.7058Z" fill="#F53C42"/>
        <path className="mix-blend-mode:multiply" d="M15.7418 23.0486H25.9113C25.9113 23.0486 30.7069 22.6138 29.6197 27.3975C29.6197 27.3975 26.1406 35.6603 23.9662 36.3126C23.9662 36.3126 28.9674 36.3126 30.4895 31.7463C30.4895 31.7463 33.0988 22.8312 26.1406 21.9615L15.1423 22.3614C14.3009 22.3862 13.4982 22.7201 12.8873 23.2993C11.7015 24.4413 10.3952 26.787 12.2994 31.0026C12.5092 31.47 12.843 31.8709 13.2647 32.1619L15.3523 33.5946C15.3523 33.5946 12.7679 30.5504 12.7679 29.4632C12.7679 29.4632 12.4084 27.1264 12.874 25.2553C13.0381 24.6207 13.4094 24.059 13.9288 23.6593C14.4483 23.2596 15.0864 23.0447 15.7418 23.0486Z" fill="url(#paint0_linear_191_2248)"/>
        <path d="M26.3579 31.9639L23.8334 34.5732L21.1524 35.5213L15.9772 30.6897C15.3814 29.1981 14.8335 22.6139 14.8335 22.6139L17.4428 21.5267L23.1311 22.0703L23.9291 22.5095L25.5817 23.4185L25.9013 26.941L26.3579 31.9639Z" fill="#FFA787"/>
        <path d="M25.9013 26.9408C23.9291 27.3757 16.1599 28.6782 14.8335 22.6137C14.8335 22.6137 20.0782 22.7964 23.9291 22.5093L25.5817 23.4183L25.9013 26.9408Z" fill="#FF8D69"/>
        <path d="M15.9204 30.4417C15.9204 30.4417 20.0518 36.5301 26.3576 31.9638C26.3576 31.9638 24.8355 35.2255 22.0088 36.7476C22.0088 36.7476 18.7471 35.008 18.3123 34.5731C18.3123 34.5731 16.3553 32.6161 15.9204 30.4417Z" fill="#5E1212"/>
        <g className="mix-blend-mode:multiply">
            <path d="M36.7501 36.7476C36.7501 36.7476 35.5522 42.0972 35.6301 43.9887L36.9668 43.9421C36.9668 43.9421 37.665 40.6616 39.1871 39.5744C39.1871 39.5744 36.7953 41.3139 36.5778 42.836L36.7501 36.7476Z" fill="#F53C42"/>
        </g>
        <g className="mix-blend-mode:multiply">
            <path d="M3.74365 34.5731C3.74365 34.5731 7.87882 40.6615 7.65949 45.2277L6.75535 44.9941C6.75535 44.9941 6.57039 40.0091 4.17853 39.3568C4.17853 39.3568 6.13551 40.2266 6.78784 41.5312C6.78783 41.5312 4.39597 36.3126 3.74365 34.5731Z" fill="#F53C42"/>
        </g>
        <g className="mix-blend-mode:multiply">
            <g className="mix-blend-mode:multiply">
                <path d="M19.9866 44.534L19.3256 44.5557C20.0605 38.126 18.1884 36.6169 18.1688 36.6017C18.0993 36.5468 18.0531 36.4677 18.0394 36.3803C18.0257 36.2928 18.0455 36.2034 18.0949 36.1298C18.1182 36.0943 18.1485 36.0638 18.1839 36.0403C18.2193 36.0167 18.2591 36.0004 18.3008 35.9925C18.3426 35.9846 18.3856 35.9852 18.4272 35.9942C18.4687 36.0032 18.508 36.0205 18.5428 36.045C18.6341 36.1103 20.7433 37.7063 19.9866 44.534Z" fill="#F53C42"/>
            </g>
        </g>
        <g className="mix-blend-mode:multiply">
            <g className="mix-blend-mode:multiply">
                <path d="M25.1945 44.3515L24.5291 44.3754C23.3658 39.5047 24.3856 37.0802 24.4291 36.978C24.4455 36.9378 24.47 36.9013 24.5009 36.8708C24.5319 36.8403 24.5687 36.8164 24.6091 36.8006C24.6496 36.7847 24.6928 36.7772 24.7363 36.7786C24.7797 36.7799 24.8224 36.7901 24.8618 36.8084C24.9414 36.8478 25.0027 36.9163 25.0331 36.9997C25.0635 37.0831 25.0605 37.175 25.0249 37.2563C25.0097 37.2911 24.0442 39.6504 25.1945 44.3515Z" fill="#F53C42"/>
            </g>
        </g>
        <g className="mix-blend-mode:multiply">
            <path d="M35.4904 29.137C35.4904 29.137 33.5335 35.2254 25.7055 37.3998L21.597 38.6081C21.1281 38.746 20.6322 38.7647 20.1543 38.6623C19.6764 38.56 19.2317 38.3399 18.8604 38.0221L16.3555 35.8778C16.3555 35.8778 10.3759 33.3772 9.75785 32.9423C9.46659 32.7373 6.78809 29.3545 6.78809 29.3545" stroke="#F53C42" stroke-miterlimit="10"/>
        </g>
        <path d="M26.5755 20.3546C26.3907 25.0666 21.8679 26.0712 20.5328 26.2647C20.2862 26.3009 20.0355 26.3002 19.7891 26.2625C15.4012 25.5949 13.7464 20.5677 13.7464 20.5677C11.7895 20.9917 10.9197 17.1626 10.9197 17.1626C10.7022 14.6098 12.4418 15.6752 12.4418 15.6752C12.0852 12.7789 14.4096 11.5547 16.5971 11.0394C17.6934 10.7939 18.8135 10.6706 19.937 10.6719C20.1327 10.6719 20.3284 10.6676 20.5241 10.661C27.18 10.4762 27.6236 13.7835 27.4366 15.4208C27.4214 15.5665 27.4018 15.6992 27.3779 15.8144C27.3983 15.7586 27.4223 15.7041 27.4496 15.6513C27.9258 14.7337 28.9674 15.036 28.9674 15.036C31.5767 17.1626 26.5755 20.3546 26.5755 20.3546Z" fill="#FFA787"/>
        <path d="M27.4367 15.4208C27.1018 11.8722 20.2698 10.6545 16.5972 11.0394C17.6935 10.7939 18.8136 10.6706 19.9371 10.6719C20.1328 10.6719 20.3285 10.6676 20.5242 10.661C27.1801 10.4762 27.6237 13.7835 27.4367 15.4208Z" fill="#FF8D69"/>
        <g className="mix-blend-mode:multiply">
            <path d="M28.2622 15.7883C28.2622 15.7883 30.7066 16.308 27.2275 19.3521C27.2275 19.3521 28.6445 16.7907 28.2622 15.7883Z" fill="#FFA787"/>
        </g>
        <g className="mix-blend-mode:multiply">
            <path d="M12.4062 16.0906C12.4062 16.0906 9.96171 16.6613 13.4408 20.0045C13.4408 20.0045 12.0238 17.1914 12.4062 16.0906Z" fill="#FFA787"/>
        </g>
        <g className="mix-blend-mode:multiply">
            <path d="M19.8446 17.9798C19.6254 18.3813 19.4765 18.8174 19.4045 19.2692C19.4017 19.365 19.4329 19.4587 19.4925 19.5336C19.5522 19.6086 19.6364 19.6601 19.7304 19.6789C20.0804 19.7635 20.4407 19.7973 20.8003 19.7793C20.8645 19.7713 20.9259 19.7484 20.9796 19.7124C21.0334 19.6764 21.0779 19.6283 21.1097 19.572C21.1415 19.5156 21.1597 19.4527 21.1628 19.388C21.1659 19.3234 21.1538 19.259 21.1276 19.1999L20.6004 17.9924C20.5685 17.9194 20.5163 17.8572 20.45 17.8131C20.3837 17.769 20.3061 17.7448 20.2265 17.7435C20.1469 17.7422 20.0686 17.7637 20.0009 17.8056C19.9332 17.8475 19.8789 17.908 19.8446 17.9798Z" fill="#FF8D69"/>
        </g>
        <path d="M22.5171 13.2718L22.7883 14.2802C22.7883 14.2802 25.8852 13.3331 26.7562 14.2489C26.7562 14.2489 24.6329 12.4585 22.5171 13.2718Z" fill="#5E1212"/>
        <path d="M17.7787 13.4084L17.5462 14.4264C17.5462 14.4264 14.4153 13.5985 13.5801 14.5469C13.5801 14.5469 15.6333 12.6767 17.7787 13.4084Z" fill="#5E1212"/>
        <path d="M15.9956 19.8097C15.4569 19.8097 14.9303 19.65 14.4824 19.3507C14.0345 19.0514 13.6855 18.6261 13.4793 18.1284C13.2732 17.6308 13.2192 17.0832 13.3243 16.5548C13.4294 16.0265 13.6888 15.5412 14.0697 15.1603C14.4506 14.7794 14.9359 14.5201 15.4642 14.415C15.9925 14.3099 16.5401 14.3638 17.0378 14.57C17.5354 14.7761 17.9608 15.1252 18.26 15.5731C18.5593 16.021 18.719 16.5476 18.719 17.0862C18.7182 17.8083 18.431 18.5005 17.9204 19.0111C17.4099 19.5217 16.7176 19.8089 15.9956 19.8097ZM15.9956 14.6482C15.5134 14.6482 15.042 14.7912 14.6411 15.059C14.2402 15.3269 13.9277 15.7077 13.7432 16.1531C13.5586 16.5986 13.5103 17.0888 13.6044 17.5617C13.6984 18.0346 13.9306 18.469 14.2716 18.81C14.6125 19.1509 15.0469 19.3831 15.5198 19.4772C15.9927 19.5713 16.4829 19.523 16.9284 19.3385C17.3739 19.154 17.7546 18.8416 18.0225 18.4407C18.2904 18.0398 18.4334 17.5684 18.4335 17.0862C18.4327 16.4399 18.1756 15.8202 17.7186 15.3632C17.2616 14.9061 16.6419 14.649 15.9956 14.6482Z" fill="white"/>
        <path d="M24.5517 19.5696C24.0131 19.5696 23.4865 19.4099 23.0386 19.1106C22.5907 18.8114 22.2416 18.386 22.0355 17.8884C21.8293 17.3907 21.7754 16.8431 21.8804 16.3148C21.9855 15.7865 22.2449 15.3012 22.6258 14.9203C23.0067 14.5394 23.4919 14.28 24.0202 14.1749C24.5485 14.0698 25.0962 14.1237 25.5938 14.3298C26.0915 14.536 26.5168 14.885 26.8161 15.3329C27.1154 15.7808 27.2752 16.3073 27.2752 16.846C27.2744 17.5681 26.9872 18.2604 26.4766 18.771C25.966 19.2816 25.2738 19.5688 24.5517 19.5696ZM24.5517 14.4081C24.0695 14.4081 23.5982 14.5511 23.1972 14.819C22.7963 15.0869 22.4838 15.4676 22.2993 15.9131C22.1148 16.3586 22.0665 16.8488 22.1606 17.3217C22.2546 17.7946 22.4868 18.229 22.8278 18.57C23.1687 18.9109 23.6031 19.1431 24.0761 19.2372C24.549 19.3312 25.0392 19.283 25.4847 19.0984C25.9301 18.9139 26.3109 18.6014 26.5788 18.2005C26.8466 17.7996 26.9896 17.3282 26.9896 16.846C26.9889 16.1997 26.7318 15.58 26.2747 15.123C25.8177 14.6659 25.1981 14.4089 24.5517 14.4081V14.4081Z" fill="white"/>
        <path d="M22.0089 16.5086H18.5298V17.0213H22.0089V16.5086Z" fill="white"/>
    </g>
    <circle cx="20.5" cy="20.5" r="20.5" fill="#A797B0"/>
    <mask id="mask1_191_2248" className="mask-type:alpha" maskUnits="userSpaceOnUse" x="0" y="0" width="41" height="41">
        <path d="M20.5 41C31.8218 41 41 31.8218 41 20.5C41 9.17816 31.8218 0 20.5 0C9.17816 0 0 9.17816 0 20.5C0 31.8218 9.17816 41 20.5 41Z" fill="#FFBA55"/>
    </mask>
    <g mask="url(#mask1_191_2248)">
        <path d="M27.4497 7.31456L24.1837 8.69749C24.1837 8.69749 24.0576 8.70618 23.8424 8.7214C22.4986 8.81054 17.63 9.13236 17.443 9.13236C17.2256 9.13236 12.8833 9.3085 12.8833 9.3085V7.99732C12.8833 7.99732 13.3204 2.15247 20.1654 1.83719C20.7024 1.7265 21.2532 1.69936 21.7984 1.75672C23.5314 1.91547 26.1929 2.92223 27.4497 7.31456Z" fill="#5E1212"/>
        <g className="mix-blend-mode:multiply">
            <path d="M27.4497 7.31459L24.1838 8.69751C24.1838 8.69751 24.0577 8.7062 23.8424 8.72142C20.1698 8.4692 12.8833 7.99734 12.8833 7.99734C16.2296 7.86873 19.5653 7.54053 22.8726 7.01451C23.1433 6.97211 23.4 6.86593 23.6215 6.70474C23.8431 6.54354 24.0231 6.33196 24.1467 6.08746C24.2704 5.84295 24.3341 5.57254 24.3326 5.29856C24.3311 5.02458 24.2644 4.75489 24.1381 4.51175C23.5152 3.47085 22.7247 2.53998 21.7984 1.75674C23.5314 1.91549 26.1929 2.92225 27.4497 7.31459Z" fill="#5E1212"/>
        </g>
        <path d="M32.6701 10.759C32.6658 10.8445 32.6549 10.9295 32.6375 11.0134C32.5113 11.6244 31.8634 14.0554 29.4019 15.0034L28.7431 15.7884L27.1188 17.7215L22.9874 15.7645L15.9205 17.0474L12.8829 17.0996L10.9194 16.0906C10.9194 16.0906 3.85032 11.8114 10.5323 8.76066C11.5367 8.30951 12.6007 8.00489 13.6918 7.8561C16.1684 7.50385 21.8524 6.82108 26.3577 7.19943H26.3599C29.9173 7.49515 32.7375 8.45408 32.6701 10.759Z" fill="#5E1212"/>
        <g className="mix-blend-mode:multiply">
            <path d="M32.6703 10.7587C32.666 10.8443 32.6551 10.9293 32.6376 11.0131C32.5115 11.6242 31.8635 14.0552 29.4021 15.0032L28.7432 15.7882L27.4495 15.6512C34.1945 11.0806 26.3579 7.19922 26.3579 7.19922H26.3601C29.9174 7.49493 32.7377 8.45386 32.6703 10.7587Z" fill="#5E1212"/>
        </g>
        <path d="M43.7532 43.7058L25.1945 44.3516L24.5292 44.3755L19.9868 44.5343L19.3258 44.556L0.0473461 45.2279C0.0473461 45.2279 -4.51894 32.3988 6.78805 29.3546L6.74238 29.0872C6.6935 28.789 6.74356 28.4831 6.88491 28.2161C7.02627 27.9491 7.25114 27.7357 7.52518 27.6086L9.39736 26.7453C9.39736 26.7453 9.61479 21.9616 13.7462 20.6569L26.5753 21.0918C26.5753 21.0918 32.4462 22.3965 33.0985 27.3976C33.0985 27.3976 35.0555 27.3976 35.4904 29.1372C37.2291 29.5609 38.818 30.4543 40.0834 31.7197C41.3489 32.9852 42.2423 34.574 42.666 36.3128L43.7532 43.7058Z" fill="#F53C42"/>
        <path className="mix-blend-mode:multiply" d="M15.7418 23.0486H25.9113C25.9113 23.0486 30.7069 22.6138 29.6197 27.3975C29.6197 27.3975 26.1406 35.6603 23.9662 36.3126C23.9662 36.3126 28.9674 36.3126 30.4895 31.7463C30.4895 31.7463 33.0988 22.8312 26.1406 21.9615L15.1423 22.3614C14.3009 22.3862 13.4982 22.7201 12.8873 23.2993C11.7015 24.4413 10.3952 26.787 12.2994 31.0026C12.5092 31.47 12.843 31.8709 13.2647 32.1619L15.3523 33.5946C15.3523 33.5946 12.7679 30.5504 12.7679 29.4632C12.7679 29.4632 12.4084 27.1264 12.874 25.2553C13.0381 24.6207 13.4094 24.059 13.9288 23.6593C14.4483 23.2596 15.0864 23.0447 15.7418 23.0486Z" fill="url(#paint1_linear_191_2248)"/>
        <path d="M26.3579 31.9639L23.8334 34.5732L21.1524 35.5213L15.9772 30.6897C15.3814 29.1981 14.8335 22.6139 14.8335 22.6139L17.4428 21.5267L23.1311 22.0703L23.9291 22.5095L25.5817 23.4185L25.9013 26.941L26.3579 31.9639Z" fill="#FFA787"/>
        <path d="M25.9013 26.9408C23.9291 27.3757 16.1599 28.6782 14.8335 22.6137C14.8335 22.6137 20.0782 22.7964 23.9291 22.5093L25.5817 23.4183L25.9013 26.9408Z" fill="#FF8D69"/>
        <path d="M15.9204 30.4417C15.9204 30.4417 20.0518 36.5301 26.3576 31.9638C26.3576 31.9638 24.8355 35.2255 22.0088 36.7476C22.0088 36.7476 18.7471 35.008 18.3123 34.5731C18.3123 34.5731 16.3553 32.6161 15.9204 30.4417Z" fill="#5E1212"/>
        <g className="mix-blend-mode:multiply">
            <path d="M36.7501 36.7476C36.7501 36.7476 35.5522 42.0972 35.6301 43.9887L36.9668 43.9421C36.9668 43.9421 37.665 40.6616 39.1871 39.5744C39.1871 39.5744 36.7953 41.3139 36.5778 42.836L36.7501 36.7476Z" fill="#F53C42"/>
        </g>
        <g className="mix-blend-mode:multiply">
            <path d="M3.74365 34.5731C3.74365 34.5731 7.87882 40.6615 7.65949 45.2277L6.75535 44.9941C6.75535 44.9941 6.57039 40.0091 4.17853 39.3568C4.17853 39.3568 6.13551 40.2266 6.78784 41.5312C6.78783 41.5312 4.39597 36.3126 3.74365 34.5731Z" fill="#F53C42"/>
        </g>
        <g className="mix-blend-mode:multiply">
            <g className="mix-blend-mode:multiply">
                <path d="M19.9866 44.534L19.3256 44.5557C20.0605 38.126 18.1884 36.6169 18.1688 36.6017C18.0993 36.5468 18.0531 36.4677 18.0394 36.3803C18.0257 36.2928 18.0455 36.2034 18.0949 36.1298C18.1182 36.0943 18.1485 36.0638 18.1839 36.0403C18.2193 36.0167 18.2591 36.0004 18.3008 35.9925C18.3426 35.9846 18.3856 35.9852 18.4272 35.9942C18.4687 36.0032 18.508 36.0205 18.5428 36.045C18.6341 36.1103 20.7433 37.7063 19.9866 44.534Z" fill="#F53C42"/>
            </g>
        </g>
        <g className="mix-blend-mode:multiply">
            <g className="mix-blend-mode:multiply">
                <path d="M25.1945 44.3515L24.5291 44.3754C23.3658 39.5047 24.3856 37.0802 24.4291 36.978C24.4455 36.9378 24.47 36.9013 24.5009 36.8708C24.5319 36.8403 24.5687 36.8164 24.6091 36.8006C24.6496 36.7847 24.6928 36.7772 24.7363 36.7786C24.7797 36.7799 24.8224 36.7901 24.8618 36.8084C24.9414 36.8478 25.0027 36.9163 25.0331 36.9997C25.0635 37.0831 25.0605 37.175 25.0249 37.2563C25.0097 37.2911 24.0442 39.6504 25.1945 44.3515Z" fill="#F53C42"/>
            </g>
        </g>
        <g className="mix-blend-mode:multiply">
            <path d="M35.4904 29.137C35.4904 29.137 33.5335 35.2254 25.7055 37.3998L21.597 38.6081C21.1281 38.746 20.6322 38.7647 20.1543 38.6623C19.6764 38.56 19.2317 38.3399 18.8604 38.0221L16.3555 35.8778C16.3555 35.8778 10.3759 33.3772 9.75785 32.9423C9.46659 32.7373 6.78809 29.3545 6.78809 29.3545" stroke="#F53C42" stroke-miterlimit="10"/>
        </g>
        <path d="M26.5755 20.3546C26.3907 25.0666 21.8679 26.0712 20.5328 26.2647C20.2862 26.3009 20.0355 26.3002 19.7891 26.2625C15.4012 25.5949 13.7464 20.5677 13.7464 20.5677C11.7895 20.9917 10.9197 17.1626 10.9197 17.1626C10.7022 14.6098 12.4418 15.6752 12.4418 15.6752C12.0852 12.7789 14.4096 11.5547 16.5971 11.0394C17.6934 10.7939 18.8135 10.6706 19.937 10.6719C20.1327 10.6719 20.3284 10.6676 20.5241 10.661C27.18 10.4762 27.6236 13.7835 27.4366 15.4208C27.4214 15.5665 27.4018 15.6992 27.3779 15.8144C27.3983 15.7586 27.4223 15.7041 27.4496 15.6513C27.9258 14.7337 28.9674 15.036 28.9674 15.036C31.5767 17.1626 26.5755 20.3546 26.5755 20.3546Z" fill="#FFA787"/>
        <path d="M27.4367 15.4208C27.1018 11.8722 20.2698 10.6545 16.5972 11.0394C17.6935 10.7939 18.8136 10.6706 19.9371 10.6719C20.1328 10.6719 20.3285 10.6676 20.5242 10.661C27.1801 10.4762 27.6237 13.7835 27.4367 15.4208Z" fill="#FF8D69"/>
        <g className="mix-blend-mode:multiply">
            <path d="M28.2622 15.7883C28.2622 15.7883 30.7066 16.308 27.2275 19.3521C27.2275 19.3521 28.6445 16.7907 28.2622 15.7883Z" fill="#FFA787"/>
        </g>
        <g className="mix-blend-mode:multiply">
            <path d="M12.4062 16.0906C12.4062 16.0906 9.96171 16.6613 13.4408 20.0045C13.4408 20.0045 12.0238 17.1914 12.4062 16.0906Z" fill="#FFA787"/>
        </g>
        <g className="mix-blend-mode:multiply">
            <path d="M19.8446 17.9798C19.6254 18.3813 19.4765 18.8174 19.4045 19.2692C19.4017 19.365 19.4329 19.4587 19.4925 19.5336C19.5522 19.6086 19.6364 19.6601 19.7304 19.6789C20.0804 19.7635 20.4407 19.7973 20.8003 19.7793C20.8645 19.7713 20.9259 19.7484 20.9796 19.7124C21.0334 19.6764 21.0779 19.6283 21.1097 19.572C21.1415 19.5156 21.1597 19.4527 21.1628 19.388C21.1659 19.3234 21.1538 19.259 21.1276 19.1999L20.6004 17.9924C20.5685 17.9194 20.5163 17.8572 20.45 17.8131C20.3837 17.769 20.3061 17.7448 20.2265 17.7435C20.1469 17.7422 20.0686 17.7637 20.0009 17.8056C19.9332 17.8475 19.8789 17.908 19.8446 17.9798Z" fill="#FF8D69"/>
        </g>
        <path d="M22.5171 13.2718L22.7883 14.2802C22.7883 14.2802 25.8852 13.3331 26.7562 14.2489C26.7562 14.2489 24.6329 12.4585 22.5171 13.2718Z" fill="#5E1212"/>
        <path d="M17.7787 13.4084L17.5462 14.4264C17.5462 14.4264 14.4153 13.5985 13.5801 14.5469C13.5801 14.5469 15.6333 12.6767 17.7787 13.4084Z" fill="#5E1212"/>
        <path d="M15.9956 19.8097C15.4569 19.8097 14.9303 19.65 14.4824 19.3507C14.0345 19.0514 13.6855 18.6261 13.4793 18.1284C13.2732 17.6308 13.2192 17.0832 13.3243 16.5548C13.4294 16.0265 13.6888 15.5412 14.0697 15.1603C14.4506 14.7794 14.9359 14.5201 15.4642 14.415C15.9925 14.3099 16.5401 14.3638 17.0378 14.57C17.5354 14.7761 17.9608 15.1252 18.26 15.5731C18.5593 16.021 18.719 16.5476 18.719 17.0862C18.7182 17.8083 18.431 18.5005 17.9204 19.0111C17.4099 19.5217 16.7176 19.8089 15.9956 19.8097ZM15.9956 14.6482C15.5134 14.6482 15.042 14.7912 14.6411 15.059C14.2402 15.3269 13.9277 15.7077 13.7432 16.1531C13.5586 16.5986 13.5103 17.0888 13.6044 17.5617C13.6984 18.0346 13.9306 18.469 14.2716 18.81C14.6125 19.1509 15.0469 19.3831 15.5198 19.4772C15.9927 19.5713 16.4829 19.523 16.9284 19.3385C17.3739 19.154 17.7546 18.8416 18.0225 18.4407C18.2904 18.0398 18.4334 17.5684 18.4335 17.0862C18.4327 16.4399 18.1756 15.8202 17.7186 15.3632C17.2616 14.9061 16.6419 14.649 15.9956 14.6482Z" fill="white"/>
        <path d="M24.5517 19.5696C24.0131 19.5696 23.4865 19.4099 23.0386 19.1106C22.5907 18.8114 22.2416 18.386 22.0355 17.8884C21.8293 17.3907 21.7754 16.8431 21.8804 16.3148C21.9855 15.7865 22.2449 15.3012 22.6258 14.9203C23.0067 14.5394 23.4919 14.28 24.0202 14.1749C24.5485 14.0698 25.0962 14.1237 25.5938 14.3298C26.0915 14.536 26.5168 14.885 26.8161 15.3329C27.1154 15.7808 27.2752 16.3073 27.2752 16.846C27.2744 17.5681 26.9872 18.2604 26.4766 18.771C25.966 19.2816 25.2738 19.5688 24.5517 19.5696ZM24.5517 14.4081C24.0695 14.4081 23.5982 14.5511 23.1972 14.819C22.7963 15.0869 22.4838 15.4676 22.2993 15.9131C22.1148 16.3586 22.0665 16.8488 22.1606 17.3217C22.2546 17.7946 22.4868 18.229 22.8278 18.57C23.1687 18.9109 23.6031 19.1431 24.0761 19.2372C24.549 19.3312 25.0392 19.283 25.4847 19.0984C25.9301 18.9139 26.3109 18.6014 26.5788 18.2005C26.8466 17.7996 26.9896 17.3282 26.9896 16.846C26.9889 16.1997 26.7318 15.58 26.2747 15.123C25.8177 14.6659 25.1981 14.4089 24.5517 14.4081V14.4081Z" fill="white"/>
        <path d="M22.0089 16.5086H18.5298V17.0213H22.0089V16.5086Z" fill="white"/>
    </g>
    <circle cx="51.25" cy="20.5" r="20.5" fill="#A797B0"/>
    <mask id="mask2_191_2248" className="mask-type:alpha" maskUnits="userSpaceOnUse" x="30" y="0" width="42" height="41">
        <path d="M51.25 41C62.5718 41 71.75 31.8218 71.75 20.5C71.75 9.17816 62.5718 0 51.25 0C39.9282 0 30.75 9.17816 30.75 20.5C30.75 31.8218 39.9282 41 51.25 41Z" fill="#27848B"/>
    </mask>
    <g mask="url(#mask2_191_2248)">
        <path d="M38.9932 21.4691C40.9448 21.4691 42.5269 19.918 42.5269 18.0046C42.5269 16.0912 40.9448 14.5401 38.9932 14.5401C37.0416 14.5401 35.4595 16.0912 35.4595 18.0046C35.4595 19.918 37.0416 21.4691 38.9932 21.4691Z" fill="#FFA787"/>
        <g className="mix-blend-mode:multiply" opacity="0.4">
            <path d="M39.3469 20.7762C40.8431 20.7762 42.056 19.587 42.056 18.1201C42.056 16.6532 40.8431 15.464 39.3469 15.464C37.8506 15.464 36.6377 16.6532 36.6377 18.1201C36.6377 19.587 37.8506 20.7762 39.3469 20.7762Z" fill="#FFA787"/>
        </g>
        <path d="M64.2007 21.4691C66.1523 21.4691 67.7344 19.918 67.7344 18.0046C67.7344 16.0912 66.1523 14.5401 64.2007 14.5401C62.2491 14.5401 60.667 16.0912 60.667 18.0046C60.667 19.918 62.2491 21.4691 64.2007 21.4691Z" fill="#FFA787"/>
        <g className="mix-blend-mode:multiply" opacity="0.4">
            <path d="M63.8474 20.7762C65.3436 20.7762 66.5565 19.587 66.5565 18.1201C66.5565 16.6532 65.3436 15.464 63.8474 15.464C62.3511 15.464 61.1382 16.6532 61.1382 18.1201C61.1382 19.587 62.3511 20.7762 63.8474 20.7762Z" fill="#FFA787"/>
        </g>
        <path d="M46.8364 29.553C46.8364 29.553 53.2326 28.2751 57.1853 29.7224L56.8975 31.6317L56.4263 32.3246L52.657 33.9413H49.9821L47.7099 33.0175C47.7099 33.0175 47.0031 32.0053 46.7675 31.703C46.5909 31.4609 46.4334 31.2054 46.2964 30.9388L46.8364 29.553Z" fill="#27848B"/>
        <path d="M57.3686 32.7867H46.7676L47.1373 30.8165L47.938 26.5273L48.108 25.6266H56.0279L56.5204 28.255L56.5488 28.4145L57.3686 32.7867Z" fill="#FFA787"/>
        <g className="mix-blend-mode:multiply" opacity="0.4">
            <path d="M56.6523 28.3842C56.6523 28.3842 56.617 28.3958 56.5486 28.4143C56.0252 28.5669 55.2042 30.0903 52.8924 30.7077C51.2507 31.1462 48.0663 30.7207 47.2456 30.8463L47.1372 30.8163L47.9382 26.5272L51.2975 26.3032L54.5415 26.3194L56.5204 28.2549L56.6523 28.3842Z" fill="#FFA787"/>
        </g>
        <path d="M64.2007 18.1202C64.2013 19.4684 63.9305 20.8029 63.4045 22.0443C62.7595 23.4984 61.8298 24.8086 60.6702 25.8975C59.5106 26.9864 58.1445 27.832 56.6528 28.3843C53.4849 29.6011 49.9844 29.6347 46.7937 28.479C43.7948 27.4333 41.3313 25.2438 39.9407 22.3884C39.317 21.052 38.9937 19.595 38.9937 18.1202C38.9924 17.0178 39.1739 15.9228 39.5308 14.8797C41.0927 10.272 45.9032 6.91837 51.5972 6.91837C57.3548 6.91837 62.2101 10.3482 63.7154 15.0345C64.0373 16.0314 64.2011 17.0726 64.2007 18.1202Z" fill="#FFA787"/>
        <path d="M67.487 41.7017L62.4856 41.7502L60.2452 41.7733L59.3853 41.7825L57.185 41.8057L47.4768 41.9027L45.2364 41.9258L44.4237 41.9304L42.0254 41.9581L35.1064 42.0251C35.8939 40.2128 36.8615 38.4841 37.9947 36.8653C38.0041 36.8515 38.0135 36.8399 38.0229 36.8261C38.414 36.2694 38.8428 35.7013 39.3068 35.1469C39.5306 34.879 39.7615 34.6134 40.0042 34.3547C40.3599 33.969 40.7345 33.5925 41.1279 33.2322C42.5095 31.9079 44.182 30.9255 46.0114 30.3636L46.836 29.5529C46.836 29.5529 50.471 35.0592 57.079 29.8763C57.079 29.8763 56.9141 29.3913 57.5761 30.038C57.92 30.3752 60.0662 31.4215 62.3207 33.4493C62.6858 33.7773 63.0525 34.133 63.4208 34.5164C63.6752 34.7843 63.9297 35.0661 64.177 35.3617C64.6416 35.9073 65.0697 36.4829 65.4586 37.0847C65.6447 37.3711 65.8237 37.6675 65.9957 37.9739C66.6553 39.1452 67.1568 40.3987 67.487 41.7017Z" fill="#D2F1F9"/>
        <path d="M47.4776 41.9021L45.2373 41.9247C44.1734 39.8385 41.91 35.7146 40.0034 34.354C40.3603 33.9685 40.7336 33.5927 41.1268 33.2331C41.1268 33.2331 45.7528 37.8688 47.4776 41.9021Z" fill="#F53C42"/>
        <path d="M44.4242 41.9311L42.0253 41.957C41.6858 41.0332 41.1771 40.1807 40.5252 39.4432L39.2365 37.9757L37.9941 36.8645C38.394 36.2944 38.8301 35.7145 39.3059 35.1476C39.9866 35.8408 40.8887 36.803 40.8887 37.0038C40.8887 37.0038 42.2104 38.6236 42.2104 38.9475L44.4242 41.9311Z" fill="#FFBA55"/>
        <path d="M63.4202 34.516C61.8507 36.1584 60.2514 39.6895 59.3857 41.7822L57.1851 41.8049C58.4737 38.371 61.4442 34.5354 62.3199 33.4502C62.6866 33.7774 63.0534 34.1326 63.4202 34.516Z" fill="#F53C42"/>
        <path d="M65.4592 37.0848L64.8677 37.7165L63.7113 39.2844C63.1627 40.0288 62.7479 40.863 62.4854 41.7497L60.2451 41.7724L61.9898 38.9346C61.96 38.6138 63.1363 36.8872 63.1363 36.8872C63.1198 36.7252 63.6485 36.019 64.1772 35.3614C64.6415 35.9074 65.0697 36.4831 65.4592 37.0848Z" fill="#FFBA55"/>
        <g className="mix-blend-mode:multiply" opacity="0.4">
            <path d="M63.4039 22.0442C62.7589 23.4983 61.8292 24.8085 60.6696 25.8974C59.51 26.9864 58.1439 27.8319 56.6521 28.3842C56.0461 27.5927 55.7182 26.6234 55.7192 25.6265C55.7252 25.0138 55.8518 24.4082 56.0918 23.8445C56.3318 23.2807 56.6806 22.7697 57.1181 22.3408C57.5556 21.9118 58.0734 21.5733 58.6418 21.3444C59.2102 21.1156 59.8181 21.001 60.4309 21.0072C61.511 21.0042 62.5598 21.3701 63.4039 22.0442Z" fill="#FFA787"/>
        </g>
        <g className="mix-blend-mode:multiply" opacity="0.4">
            <path d="M47.4743 26.0885C47.4758 26.9334 47.2399 27.7617 46.7934 28.479C43.7945 27.4333 41.331 25.2439 39.9404 22.3885C40.7591 21.7889 41.748 21.4668 42.7627 21.4692C43.3754 21.463 43.9833 21.5776 44.5517 21.8065C45.1201 22.0353 45.6379 22.3738 46.0754 22.8028C46.5129 23.2318 46.8617 23.7427 47.1017 24.3065C47.3417 24.8703 47.4683 25.4758 47.4743 26.0885Z" fill="#FFA787"/>
        </g>
        <g className="mix-blend-mode:multiply">
            <path d="M65.9957 37.9739C63.5677 35.6979 61.0265 33.5456 58.3818 31.5254C58.0307 31.1984 57.5873 30.9878 57.112 30.9225C56.6426 30.9615 56.1913 31.1214 55.8022 31.3868C54.6066 32.0096 53.2879 32.3597 51.9408 32.4121C50.5937 32.4644 49.2518 32.2176 48.0116 31.6894C47.5279 31.4255 47.0016 31.2489 46.4567 31.1674C45.1869 31.0935 44.2564 32.2414 43.347 33.1121C42.0254 34.3801 39.99 36.0015 38.2868 36.729C38.2005 36.7658 38.1125 36.7982 38.0229 36.826C38.414 36.2694 38.8428 35.7012 39.3069 35.1469C39.5307 34.879 39.7615 34.6134 40.0042 34.3547C40.3599 33.969 40.7345 33.5925 41.1279 33.2322C42.5095 31.9079 44.182 30.9255 46.0115 30.3636L46.836 29.5529C46.836 29.5529 50.471 35.0592 57.079 29.8763C57.079 29.8763 56.9141 29.3913 57.5761 30.038C57.9201 30.3752 60.0662 31.4215 62.3207 33.4493C62.6858 33.7773 63.0526 34.133 63.4209 34.5164C63.6753 34.7843 63.9297 35.0661 64.1771 35.3617C64.6416 35.9073 65.0697 36.4829 65.4586 37.0847C65.6447 37.3711 65.8238 37.6675 65.9957 37.9739Z" fill="#D2F1F9"/>
        </g>
        <path d="M63.7149 15.0345C63.6584 15.1204 63.5827 15.1919 63.4937 15.2434C63.4047 15.295 63.305 15.3251 63.2024 15.3315C63.0334 15.344 62.8639 15.3159 62.708 15.2494C62.5522 15.1829 62.4146 15.08 62.3067 14.9493C61.3077 13.7882 60.3086 12.6271 59.3096 11.4661C59.1869 11.2969 59.0231 11.1617 58.8337 11.0734C58.4262 10.9279 58.0092 11.2328 57.6676 11.4961C55.6099 13.0652 53.0418 13.812 50.4635 13.591C48.5691 13.4079 46.7626 12.7024 45.2455 11.5531C45.1269 11.4686 44.9908 11.4119 44.8473 11.3874C44.7038 11.3628 44.5567 11.371 44.4168 11.4113C44.2769 11.4516 44.1479 11.5229 44.0394 11.6201C43.931 11.7172 43.8458 11.8375 43.7904 11.9721C43.6234 12.3474 43.3919 12.6905 43.1064 12.9858C42.451 13.6719 41.6727 14.229 40.8118 14.628C40.4192 14.8375 39.973 14.9252 39.5303 14.8797C41.0922 10.272 45.9027 6.91837 51.5967 6.91837C57.3543 6.91836 62.2096 10.3482 63.7149 15.0345Z" fill="#5E1212"/>
        <path d="M51.4562 6.16968C51.6464 5.73763 51.6668 5.2498 51.5134 4.80336C51.4086 4.58975 51.2658 4.39694 51.0922 4.23429C50.9414 4.05319 50.7371 3.92463 50.5086 3.86713C50.3829 3.84918 50.2547 3.87006 50.1412 3.92697C50.0277 3.98389 49.9342 4.07412 49.8734 4.1856C49.8185 4.29856 49.8005 4.42593 49.822 4.54968C49.8434 4.67343 49.9032 4.7873 49.993 4.87519C50.0575 4.94265 50.1427 4.98673 50.235 5.00048C50.3274 5.01422 50.4217 4.99686 50.5031 4.95113L50.5693 5.41703C50.202 5.39124 49.8472 5.27354 49.5373 5.07477C49.3855 4.97526 49.2634 4.83669 49.1837 4.67363C49.104 4.51057 49.0697 4.32904 49.0844 4.14814C49.1205 3.97508 49.2029 3.81505 49.3228 3.68507C49.4426 3.5551 49.5955 3.46004 49.7651 3.41001C50.1102 3.31216 50.4774 3.32617 50.814 3.45003C51.3146 3.62183 51.75 3.94375 52.061 4.37194C52.372 4.80014 52.5434 5.31378 52.5519 5.84292C52.5455 6.52995 52.2517 7.19341 52.2635 7.88038C52.2689 8.19631 50.3167 7.67544 50.1884 7.58197C50.7686 7.28094 51.2193 6.77889 51.4562 6.16968Z" fill="#5E1212"/>
        <g className="mix-blend-mode:multiply">
            <path d="M50.7987 20.0494C50.483 20.6418 50.2836 21.2891 50.2114 21.9565C50.2277 22.102 50.2972 22.2363 50.4066 22.3335C50.5159 22.4308 50.6575 22.4841 50.8038 22.4832C51.4035 22.5438 52.0084 22.5305 52.6048 22.4437C52.7035 22.4349 52.7985 22.4019 52.8814 22.3476C52.9642 22.2934 53.0325 22.2195 53.08 22.1326C53.1275 22.0456 53.1528 21.9483 53.1537 21.8493C53.1547 21.7502 53.1311 21.6524 53.0853 21.5646L52.0642 19.9386C51.9867 19.8388 51.8854 19.76 51.7696 19.7095C51.6538 19.6589 51.5271 19.6382 51.4013 19.6492C51.2754 19.6603 51.1543 19.7027 51.049 19.7726C50.9438 19.8425 50.8577 19.9377 50.7987 20.0494Z" fill="#FF8D69"/>
        </g>
        <path d="M54.3423 17.1402L54.9217 18.3984C54.9217 18.3984 58.8382 16.5047 60.1958 17.5147C60.1958 17.5147 56.982 15.6296 54.3423 17.1402Z" fill="#5E1212"/>
        <path d="M48.7485 16.8042L48.1691 18.0624C48.1691 18.0624 44.2526 16.1687 42.895 17.1787C42.895 17.1787 46.1088 15.2936 48.7485 16.8042Z" fill="#5E1212"/>
    </g>
    <circle cx="82" cy="20.5" r="20.5" fill="#A797B0"/>
    <circle cx="82" cy="20.5" r="20.5" fill="#A797B0"/>
    <mask id="mask3_191_2248" className="mask-type:alpha" maskUnits="userSpaceOnUse" x="61" y="0" width="42" height="41">
        <path d="M82 41C93.3218 41 102.5 31.8218 102.5 20.5C102.5 9.17816 93.3218 0 82 0C70.6782 0 61.5 9.17816 61.5 20.5C61.5 31.8218 70.6782 41 82 41Z" fill="#FFBA55"/>
    </mask>
    <g mask="url(#mask3_191_2248)">
        <path d="M78.4369 27.1755C77.9165 27.75 77.2537 28.1772 76.5155 28.4138C76.0312 28.5881 75.5298 28.7104 75.0196 28.7787L74.965 28.8148L74.4859 29.1378L72.3343 30.5839L72.223 30.6581L71.014 31.4709C69.24 32.4565 66.9742 35.6093 66.9742 35.6093C67.6212 35.2717 72.3352 34.6452 73.6789 34.4725C73.8624 34.4491 74.0068 34.4344 74.0546 34.4305L74.0595 34.4296C74.0633 34.429 74.0673 34.4287 74.0712 34.4286C74.0712 34.4286 73.8819 34.9184 73.8331 35.1116C73.5109 36.7308 73.2725 38.3655 73.1188 40.0092L72.064 41.3226C67.8612 41.5197 59.9143 39.6813 59.9143 39.6813C59.4761 39.5343 59.086 39.2709 58.7858 38.9194C58.4856 38.5679 58.2866 38.1414 58.21 37.6855C58.1335 37.2296 58.1822 36.7615 58.3511 36.3312C58.52 35.9009 58.8026 35.5245 59.1688 35.2424L70.1758 26.6837L71.2375 25.5849C71.5 24.3369 72.8905 22.4458 72.8905 22.4458C73.0109 21.6746 73.4171 20.9769 74.0282 20.4913L74.0292 20.4903C74.2271 20.3171 74.4382 20.1595 74.6606 20.019C75.6061 19.4169 76.7156 19.1154 77.423 19.2696C78.4349 19.4911 78.0407 21.2914 78.0407 21.2914L78.0983 22.1462L78.1227 22.5024L78.1256 22.5531L78.4369 27.1755Z" fill="#FFA787"/>
        <g className="mix-blend-mode:multiply" opacity="0.4">
            <g className="mix-blend-mode:multiply" opacity="0.4">
                <path d="M78.437 27.1752C77.9166 27.7497 77.2538 28.1769 76.5156 28.4135C76.4971 28.4027 76.4786 28.392 76.46 28.3803C76.4008 28.35 76.3519 28.3028 76.3195 28.2447C76.2938 28.1694 76.2934 28.0879 76.3185 28.0124C76.4961 27.2054 76.8728 26.3897 76.6766 25.5876C76.5724 25.2395 76.4136 24.9102 76.2063 24.6118C75.7573 23.9506 75.3668 23.2516 75.0393 22.5226C74.7109 21.7873 74.6212 20.9676 74.7826 20.1787L74.0644 20.7788C74.1386 20.7554 74.1083 20.9164 74.0342 20.893C73.96 20.8696 73.9483 20.7691 73.962 20.693C73.974 20.6227 73.9964 20.5547 74.0283 20.491L74.0293 20.49C74.0921 20.3688 74.1815 20.2634 74.2908 20.1818C74.4002 20.1002 74.5266 20.0444 74.6606 20.0187C74.787 19.9926 74.918 19.999 75.0412 20.0372C75.6638 20.2353 75.8404 21.0374 76.3302 21.4707C76.6878 21.7136 77.0726 21.9137 77.4768 22.0669C77.7154 22.1968 77.9339 22.3605 78.1257 22.5528L78.437 27.1752Z" fill="#FFA787"/>
            </g>
        </g>
        <path d="M91.5797 14.8236C91.4548 15.1134 91.3309 16.0678 91.0821 16.6484C90.8543 17.1382 90.6868 17.654 90.5835 18.1843C90.4595 18.8058 89.754 19.8012 89.5881 20.2578C89.4223 20.7145 88.7587 21.2531 88.4679 21.5439C88.1781 21.8347 86.651 22.1753 86.651 22.1753L86.4383 22.8827C85.9988 24.3425 85.1009 25.622 83.8775 26.5317C82.6541 27.4414 81.1703 27.9329 79.6458 27.9334C79.4597 27.9333 79.276 27.8916 79.1081 27.8115C78.9398 27.7318 78.7916 27.615 78.6748 27.4699C78.183 26.861 77.338 25.8101 76.9779 25.3203C76.9181 25.2433 76.8631 25.1628 76.813 25.0792C76.8072 25.0666 76.8042 25.0578 76.8062 25.0548C76.852 24.9875 74.2389 20.6316 74.2389 20.5067C74.2288 20.4486 74.2151 20.3913 74.1979 20.3349C74.1686 20.2276 74.1257 20.0754 74.073 19.8939C73.7617 18.8166 73.1187 16.6913 73.1187 16.5654C73.1187 16.3995 73.3675 13.2058 73.6163 13.1638C73.8651 13.1228 76.5613 12.0436 76.4373 11.9197C76.3124 11.7948 77.1009 10.5087 77.1009 10.5087L77.4746 9.51337L79.4652 8.93277C79.4652 8.93277 81.9545 9.13964 82.1204 8.93277C82.2863 8.72493 84.9004 8.43414 84.9004 8.43414C84.9004 8.43414 86.6178 9.09866 86.651 9.63731C86.6842 10.1769 87.8044 11.0893 88.0952 11.546C88.385 12.0026 90.7503 13.3297 90.7503 13.3297L91.1231 13.6615C91.1231 13.6615 91.7037 14.5328 91.5797 14.8236Z" fill="#FFA787"/>
        <g className="mix-blend-mode:multiply" opacity="0.4">
            <g className="mix-blend-mode:multiply" opacity="0.4">
                <path d="M73.2758 17.0032C73.307 16.5159 73.4892 16.0505 73.797 15.6714C74.1048 15.2924 74.5229 15.0185 74.9934 14.8879C76.1186 14.5853 77.3974 15.1064 78.4563 14.6299C79.7706 14.0384 80.0028 12.2889 81.08 11.3504C81.181 11.2478 81.3125 11.1807 81.4548 11.159C81.6871 11.143 81.8738 11.3296 82.0348 11.4924C82.4998 11.9613 83.0388 12.3504 83.6303 12.6442C83.8685 12.7475 84.0967 12.8726 84.312 13.0177C84.4937 13.1687 84.6617 13.3356 84.8141 13.5162C85.3715 14.115 86.0353 14.6049 86.7718 14.961C87.0268 15.112 87.3093 15.2109 87.6028 15.2518C87.8963 15.2927 88.195 15.2749 88.4816 15.1994C88.7874 15.0625 89.0422 14.8326 89.2097 14.5424C89.3771 14.2521 89.4485 13.9165 89.4138 13.5832C89.322 12.9188 89.0228 12.3004 88.5588 11.8162C88.0552 11.2606 87.5075 10.7468 86.9211 10.2796C85.5247 9.1043 84.0577 7.89218 82.2639 7.4508C81.3606 7.26019 80.4369 7.18486 79.5147 7.22664C79.1154 7.21456 78.7165 7.25908 78.3298 7.35888C77.8066 7.54789 77.3351 7.85713 76.9532 8.2617C75.9373 9.23693 75.145 10.4208 74.6307 11.7318C74.4104 12.2969 74.2056 12.9314 73.6729 13.2463C73.4835 13.3584 73.2642 13.4205 73.0848 13.5471C72.5924 13.8948 72.5589 14.581 72.5719 15.1707C72.5881 15.8999 72.6453 16.7192 73.2117 17.2006L73.2758 17.0032Z" fill="#FFA787"/>
            </g>
        </g>
        <path d="M98.4499 42.4339C98.4499 42.4339 96.7335 41.6238 95.3282 41.7855L91.9482 39.4156C91.9482 39.4156 94.5304 36.285 94.7836 36.2301C95.0367 36.1752 96.9607 38.0045 97.0114 38.1531C97.062 38.3018 98.4499 42.4339 98.4499 42.4339Z" fill="#27848B"/>
        <path d="M98.4507 42.4338L98.4498 42.4309C98.4361 42.3759 98.4182 42.3221 98.3961 42.2699C98.0646 41.6759 97.629 41.1464 97.11 40.7067C96.8075 40.4247 96.5148 40.1758 96.302 40.0002C96.103 39.8372 95.9751 39.7377 95.9751 39.7377L95.6258 40.3954L95.0071 41.5605L93.6713 44.0751H71.6602C71.563 42.8458 71.9057 41.6219 72.6273 40.6218C72.7736 40.4063 72.9367 40.2027 73.1152 40.0129L73.1191 40.009C73.0066 38.5017 73.1937 36.9871 73.6694 35.5525C73.7992 35.128 73.9339 34.7475 74.0549 34.4304C74.2871 33.8205 74.4696 33.4468 74.4696 33.4468H76.7529C78.7514 33.0184 82.3579 31.4483 82.3579 31.4483L82.5452 31.3732L82.8663 31.2444L82.8887 31.2356L83.8167 30.8638L84.6364 30.5359L88.9172 28.8234L89.2987 28.6712L89.3143 28.6644C89.33 28.6488 89.3456 28.6331 89.3612 28.6185C90.8863 27.0933 92.3334 26.8094 93.5737 27.0904C93.9039 27.1658 94.2244 27.2788 94.529 27.4271C95.2413 27.7851 95.8872 28.2623 96.4386 28.8381C96.6299 29.0322 96.7987 29.2215 96.9431 29.3933C97.1516 29.6381 97.3449 29.8956 97.5218 30.1642C98.4254 31.3263 98.4537 40.6579 98.4507 42.4338Z" fill="#D2F1F9"/>
        <g className="mix-blend-mode:multiply">
            <path d="M83.8164 30.8637L83.5449 32.3698L76.0559 33.876L74.4692 33.4466H76.7526C78.751 33.0183 82.3576 31.4482 82.3576 31.4482L83.8164 30.8637Z" fill="#D2F1F9"/>
        </g>
        <path d="M89.3239 28.717L89.039 28.9941L85.6608 32.2747C84.8733 33.7901 77.7841 38.1529 77.7841 38.1529C77.4202 37.7889 82.6914 33.3657 82.6914 33.3657C83.0798 32.0835 82.8329 29.9904 82.6065 28.6535C82.4787 27.9051 82.3577 27.3938 82.3577 27.3938C83.3303 26.9922 84.2012 26.3789 84.907 25.5986C85.6129 24.8183 86.1361 23.8905 86.4385 22.8827L86.6512 22.1752C86.5507 23.6877 89.3239 28.717 89.3239 28.717Z" fill="#FFA787"/>
        <path d="M96.3095 39.9045C96.3076 39.9367 96.3046 39.968 96.3017 40.0002C96.244 40.6011 96.1249 41.1945 95.9465 41.7712C95.7044 42.5616 95.401 43.3319 95.039 44.0751H86.2598C88.0552 40.0792 89.4838 36.3634 89.5277 36.2297C89.5277 36.2297 89.6897 36.2873 89.9639 36.3907H89.9658C90.6499 36.6473 92.0267 37.1801 93.3236 37.7822C94.8956 38.5111 96.3495 39.3425 96.3095 39.9045Z" fill="#FFA787"/>
        <g className="mix-blend-mode:multiply" opacity="0.4">
            <path d="M96.3095 39.9045C96.3075 39.9367 96.3046 39.9679 96.3016 40.0001C96.2439 40.601 96.1249 41.1945 95.9465 41.7712C95.7043 42.5616 95.4009 43.3319 95.039 44.075H93.95C94.4457 43.2466 94.9238 42.4611 95.3434 41.7946C95.3454 41.7907 95.3483 41.7878 95.3502 41.7839C95.608 41.37 95.7059 40.8762 95.6254 40.3953C95.5802 40.1201 95.4788 39.8571 95.3273 39.6229C95.1759 39.3887 94.9777 39.1882 94.7453 39.0341L93.0532 38.0983L89.9639 36.3907H89.9658C90.6499 36.6473 92.0267 37.1801 93.3235 37.7822C94.8955 38.5111 96.3495 39.3424 96.3095 39.9045Z" fill="#FFA787"/>
        </g>
        <path d="M92.2921 15.9068C92.1233 16.3263 91.8335 16.6923 91.7027 17.1245C91.4197 18.0603 91.9028 19.204 91.3114 19.9817C90.8518 20.5857 89.5921 20.3349 89.1881 20.977C88.4709 22.1177 85.9124 22.3499 86.651 22.1753C86.9067 22.1148 91.3397 16.6679 88.7148 15.415C88.7148 15.415 88.4172 15.9975 87.3429 15.736C87.3429 15.736 82.5371 12.1275 81.7486 10.1027C81.7186 10.0178 81.668 9.94171 81.6013 9.88122C81.5964 9.9466 81.5915 10.012 81.5866 10.0764L80.6733 10.0393C80.0098 10.5175 79.4279 11.0997 78.9501 11.7635C78.4631 12.4427 78.1938 13.2633 77.6786 13.921C77.1624 14.5787 76.2403 15.0549 75.4928 14.6792C75.37 14.6012 75.2379 14.5389 75.0996 14.4938C74.9729 14.4805 74.8449 14.495 74.7246 14.5365C74.6042 14.578 74.4944 14.6453 74.4028 14.7338C74.0938 14.9844 73.8433 15.2994 73.6689 15.6569C73.4944 16.0144 73.4002 16.4058 73.3929 16.8035C73.3821 17.6866 73.8017 18.5112 74.2291 19.284C74.5285 19.7349 74.7186 20.2494 74.7844 20.7867C74.8039 21.3263 74.4751 21.9206 73.9413 21.9996C73.7786 22.0122 73.6149 21.9923 73.46 21.941C73.305 21.8897 73.1618 21.8082 73.0387 21.701C72.7643 21.4856 72.542 21.2111 72.3884 20.8978C72.2348 20.5846 72.1539 20.2408 72.1517 19.8919C72.5264 20.5067 73.0172 21.1926 73.7364 21.22C73.8156 21.2292 73.8956 21.2099 73.9618 21.1653C74.0013 21.1217 74.0306 21.0698 74.0475 21.0134C74.0643 20.957 74.0684 20.8976 74.0593 20.8394C74.0992 20.0628 73.8922 19.2936 73.468 18.6419C73.2531 18.3919 73.0248 18.1538 72.784 17.9286C72.3132 17.4226 71.9756 16.8074 71.8017 16.1385C71.6278 15.4696 71.623 14.7679 71.7877 14.0966C71.851 13.9195 71.8746 13.7307 71.857 13.5434C71.7853 13.3361 71.6729 13.1453 71.5262 12.9823C71.3317 12.6668 71.2317 12.3021 71.2381 11.9315C71.2445 11.5608 71.357 11.1998 71.5623 10.8912C71.7734 10.5872 72.0435 10.3287 72.3565 10.1311C72.6694 9.93348 73.0189 9.80072 73.3841 9.74072C73.4826 9.72217 73.5822 9.70753 73.6827 9.69485C73.6887 8.82785 74.0203 7.99476 74.6116 7.36073C74.917 7.04362 75.3015 6.81384 75.7254 6.69512C76.1493 6.57641 76.5972 6.57308 77.0228 6.68548C77.273 6.30846 77.5832 5.97489 77.9411 5.69797C78.463 5.28672 79.0694 4.99602 79.7169 4.84672C80.3644 4.69742 81.0369 4.69321 81.6862 4.83439C82.2824 4.01765 83.4055 3.71613 84.4047 3.86933C85.3993 4.07626 86.3316 4.51303 87.1272 5.14471C87.1906 5.82386 87.9742 6.13514 88.587 6.43471C89.2816 6.77441 89.8901 7.26718 90.3669 7.87596C90.4501 7.96177 90.5149 8.06367 90.5574 8.17542C90.5998 8.28717 90.619 8.40642 90.6137 8.52584C90.5903 8.66538 90.5044 8.79126 90.4908 8.93177C90.4518 9.34454 90.9767 9.53481 91.2753 9.82268C91.691 10.2218 91.6773 10.8834 91.5876 11.4523C91.4978 12.0211 91.369 12.6379 91.6393 13.1472C91.7562 13.3352 91.8856 13.5152 92.0267 13.6859C92.2508 14.0054 92.3923 14.3754 92.4386 14.7629C92.4849 15.1505 92.4346 15.5434 92.2921 15.9068Z" fill="#5E1212"/>
        <path d="M100.189 18.3532C100.183 18.5993 100.127 18.8417 100.025 19.0659C99.923 19.29 99.777 19.4913 99.5956 19.6578C99.411 19.8211 99.1868 19.9333 98.9455 19.9831C98.7041 20.0329 98.4539 20.0187 98.2197 19.9418C98.1254 19.9145 98.0387 19.8656 97.9667 19.7988C97.8947 19.732 97.8393 19.6493 97.805 19.5573C97.7542 19.369 97.8977 19.1299 98.0928 19.1465C98.1205 19.3116 98.1954 19.4651 98.3085 19.5885C98.399 19.6632 98.5049 19.7171 98.6185 19.7464C98.7322 19.7757 98.8509 19.7796 98.9662 19.7579C99.0816 19.7362 99.1907 19.6894 99.286 19.6209C99.3813 19.5523 99.4603 19.4637 99.5175 19.3612C99.6165 19.1436 99.6419 18.8996 99.5897 18.6663C99.5376 18.433 99.4108 18.223 99.2287 18.0682C99.0834 17.9402 98.9123 17.8448 98.7269 17.7888C98.5415 17.7327 98.3462 17.7172 98.1543 17.7433C97.3727 17.8526 96.8477 18.6235 96.6438 19.3856C96.4896 19.9623 96.5208 20.6961 97.0302 21.0073C97.1286 21.0522 97.2182 21.1143 97.2946 21.1908C97.3431 21.2787 97.3601 21.3806 97.3427 21.4794C97.3253 21.5783 97.2746 21.6682 97.199 21.7343C97.0595 21.8787 96.8711 21.9656 96.7199 22.0983C96.5088 22.3116 96.3861 22.5968 96.3761 22.8967C96.3662 23.1966 96.4698 23.4893 96.6662 23.7162C96.8745 23.9328 97.141 24.0846 97.4336 24.1531C97.7263 24.2217 98.0325 24.2041 98.3153 24.1026C98.5955 23.9947 98.8517 23.8326 99.0691 23.6254C99.2864 23.4183 99.4607 23.1702 99.5819 22.8955C99.6083 23.3889 99.4619 23.876 99.1678 24.273C98.8738 24.67 98.4505 24.952 97.9709 25.0706C99.0784 25.3906 99.6766 26.7909 99.2531 27.8633C99.0139 28.39 98.607 28.8226 98.0958 29.0934C97.5847 29.3643 96.9982 29.4581 96.4281 29.3602C96.2962 29.3506 96.168 29.3116 96.0532 29.2459C95.9383 29.1802 95.8397 29.0895 95.7646 28.9806C96.2214 28.8408 96.7002 28.7872 97.1766 28.8225C97.6537 28.801 98.1904 28.643 98.3885 28.2087C98.4606 27.997 98.4674 27.7685 98.4078 27.5528C98.3483 27.3372 98.2253 27.1445 98.0548 26.9997C97.7088 26.7169 97.3252 26.4834 96.9151 26.3059C96.4498 26.0596 96.0151 25.7592 95.6202 25.4111C95.1215 24.972 94.6639 24.3963 94.6619 23.7308C94.661 23.4634 94.7351 23.2 94.7312 22.9336C94.7396 22.7999 94.7102 22.6666 94.6464 22.5489C94.5825 22.4312 94.4868 22.3339 94.3702 22.2681C93.8559 22.0524 93.4539 22.7892 92.9182 22.9443C93.5597 23.4906 94.0883 24.1568 94.4746 24.9057C94.6647 25.2813 94.7715 25.6934 94.7879 26.1141C94.8042 26.5348 94.7296 26.954 94.5692 27.3432C94.4745 27.5608 94.3364 27.7568 94.1632 27.919C93.99 28.0813 93.7855 28.2064 93.5622 28.2868C93.3366 28.3619 93.0938 28.368 92.8647 28.3044C92.6356 28.2408 92.4307 28.1103 92.2761 27.9296C92.7341 27.816 93.1483 27.5696 93.4666 27.2212C93.9955 26.6396 94.1292 25.577 93.4695 25.1477C93.0362 24.8647 92.4205 24.9574 92.0195 24.6295C91.8103 24.4251 91.6571 24.1704 91.5745 23.8899C91.2525 23.0565 90.9302 22.2232 90.6075 21.3899C90.561 22.2101 90.6267 23.0328 90.8027 23.8352C90.587 23.9279 90.3479 23.7162 90.2884 23.4898C90.2581 23.2572 90.2444 23.0227 90.2474 22.7882C90.1983 22.5537 90.1006 22.332 89.9606 22.1376C89.8206 21.9431 89.6414 21.7801 89.4346 21.6592C89.0394 21.3889 88.5935 21.1937 88.2236 20.8903C87.8636 20.5946 87.603 19.9935 87.965 19.6998C88.1 19.6116 88.2519 19.5524 88.411 19.5261C89.701 19.1768 90.467 17.8409 90.8232 16.5528C91.1735 15.3346 91.2566 14.0551 91.0668 12.8017C90.877 11.5484 90.4188 10.3509 89.7234 9.29097C88.7564 7.8907 87.2898 6.71389 86.9834 5.0482C86.9785 5.02576 86.9746 5.00235 86.9707 4.97892L86.957 4.92135C86.9541 4.87061 86.9531 4.81889 86.9531 4.76815C86.9511 4.19508 87.1295 3.63592 87.4632 3.17C87.7969 2.70409 88.2688 2.35509 88.812 2.17253C88.9658 2.10069 89.1356 2.06976 89.3048 2.08276C89.4971 2.12436 89.6746 2.21746 89.8181 2.35208C90.3288 2.76315 90.7777 3.24558 91.151 3.78455C91.3154 4.07423 91.5372 4.32727 91.8029 4.52811C92.2712 4.81696 92.8704 4.69009 93.4197 4.70961C94.7878 4.7584 96.0729 6.04547 95.8651 7.3989C95.7929 7.87216 95.5577 8.34052 95.6611 8.80893C95.7675 9.28999 96.1969 9.61981 96.596 9.9067C97.1551 10.3087 97.7136 10.7101 98.2714 11.1108C98.4565 11.2242 98.6141 11.3771 98.733 11.5587C99.0511 12.1364 98.5007 12.8058 97.9592 13.1815C97.5173 13.4879 97.0475 13.7518 96.556 13.9699C96.1966 14.0861 95.8729 14.2919 95.6153 14.5681C95.2328 15.0833 95.4738 15.8786 95.9919 16.2572C96.5427 16.6009 97.2064 16.7145 97.8401 16.5733C98.1029 16.5145 98.371 16.4822 98.6403 16.4767C99.5409 16.5128 100.227 17.4525 100.189 18.3532Z" fill="#5E1212"/>
        <path d="M81.7079 10.5887C81.8684 10.2837 81.9136 9.93093 81.835 9.59526C81.7564 9.25958 81.5594 8.96353 81.2801 8.76144C80.6275 8.31467 79.8352 8.1195 79.0498 8.21206C78.2076 8.28167 77.3866 8.51227 76.6313 8.89134C75.8878 9.23848 75.1882 9.67275 74.5473 10.185C73.9232 10.672 73.4298 11.3063 73.1114 12.031C72.818 12.7643 72.6754 13.5492 72.6919 14.3388C72.6943 14.7265 72.7404 15.111 72.7562 15.4979C72.7941 15.8773 72.7338 16.2601 72.5811 16.6094C72.385 16.904 72.1362 17.1598 71.8472 17.364C71.7108 17.4721 71.5985 17.6076 71.5176 17.7618C71.4368 17.916 71.3891 18.0854 71.3778 18.2591C71.3611 19.0309 71.9676 19.7166 72.4566 20.2506C72.9992 20.8428 73.6175 21.3609 74.2955 21.7915C74.4618 21.897 74.6315 21.997 74.8044 22.0914C74.8915 22.1391 75.1282 22.0174 75.0099 21.9525C73.9986 21.4007 73.1036 20.6586 72.374 19.7671C72.1205 19.48 71.9132 19.1552 71.7597 18.8043C71.6817 18.6405 71.6423 18.4609 71.6445 18.2795C71.6466 18.098 71.6903 17.9195 71.7722 17.7575C71.9723 17.4945 72.2103 17.2625 72.4784 17.0692C72.73 16.8433 72.9033 16.5434 72.9735 16.2126C73.033 15.8597 73.0424 15.5 73.0014 15.1444C72.9233 14.3902 72.956 13.6286 73.0985 12.8838C73.2532 12.138 73.5976 11.4447 74.0984 10.8708C74.6219 10.3175 75.2269 9.84762 75.8925 9.4773C76.5868 9.04746 77.3412 8.72342 78.131 8.51583C78.89 8.30789 79.6926 8.32154 80.4441 8.55517C81.1006 8.78633 81.6845 9.36099 81.6163 10.1065C81.6019 10.2715 81.5485 10.4307 81.4605 10.5711C81.4263 10.6258 81.4902 10.6599 81.5359 10.6646C81.5687 10.6678 81.6017 10.6626 81.6319 10.6493C81.662 10.636 81.6882 10.6151 81.7078 10.5887L81.7079 10.5887Z" fill="#C47076"/>
        <path d="M81.5935 11.1401C81.7801 10.7068 81.9902 9.97447 81.5002 9.6547C81.3477 9.56936 81.1774 9.52077 81.0029 9.51279C80.8057 9.48997 80.6082 9.46824 80.4103 9.45292C80.008 9.41349 79.6022 9.42737 79.2035 9.49421C78.4968 9.62497 77.869 10.0265 77.4539 10.6132C77.2492 10.8721 77.1317 11.1891 77.1183 11.5189C77.105 11.8487 77.1964 12.1742 77.3795 12.4488C77.5924 12.6993 77.8884 12.8646 78.2134 12.9143C78.5703 12.9356 78.9094 13.0771 79.1757 13.3157C79.2255 13.3606 79.2637 13.417 79.2868 13.4799C79.3099 13.5429 79.3173 13.6105 79.3083 13.677C79.2993 13.7435 79.2742 13.8067 79.2352 13.8613C79.1962 13.9159 79.1445 13.9601 79.0845 13.9901C78.8285 14.0553 78.5616 14.0652 78.3014 14.0192C78.0108 13.989 77.7172 14.0127 77.4352 14.089C77.1456 14.1763 76.8756 14.3187 76.6399 14.5083C76.1627 14.894 75.8234 15.424 75.6727 16.0188C75.339 17.3335 76.0856 18.6658 77.0274 19.5331C77.1539 19.6496 77.2857 19.76 77.4226 19.8643C77.5131 19.9335 77.7436 19.8053 77.6252 19.7147C76.6318 18.9544 75.7834 17.7603 75.8657 16.4548C75.9349 15.3578 76.8357 14.1442 78.0267 14.1949C78.4701 14.2138 79.1377 14.3609 79.4593 13.9512C79.5403 13.8437 79.5813 13.7113 79.5754 13.5769C79.5695 13.4424 79.517 13.3141 79.427 13.2141C79.2139 12.9815 78.9257 12.8314 78.613 12.7901C78.2818 12.7632 77.966 12.6388 77.7054 12.4327C77.4903 12.207 77.3715 11.9064 77.3741 11.5947C77.4011 11.2567 77.5127 10.931 77.6986 10.6476C77.8845 10.3641 78.1388 10.1319 78.4379 9.97245C79.0976 9.64126 79.8469 9.53288 80.5734 9.66357C80.8725 9.6937 81.2889 9.67208 81.4557 9.97501C81.5543 10.2143 81.5621 10.4815 81.4775 10.7261C81.4431 10.858 81.3982 10.987 81.3433 11.1118C81.2846 11.248 81.5482 11.2452 81.5935 11.1401L81.5935 11.1401Z" fill="#C47076"/>
        <path d="M87.6903 16.2137C87.6903 16.2137 88.9266 13.725 89.8009 16.7695C89.8009 16.7695 90.902 19.4841 87.3672 21.3774L87.6903 16.2137Z" fill="#FFA787"/>
        <g className="mix-blend-mode:multiply">
            <path d="M87.9634 16.5591C87.9634 16.5591 88.8502 15.4943 89.2501 16.7054C89.2501 16.7054 90.2222 19.0259 87.7544 20.5184L87.9634 16.5591Z" fill="#FFA787"/>
        </g>
        <path d="M90.0532 8.1453C90.03 8.19258 89.9933 8.23195 89.9478 8.25849C89.7476 8.39663 89.5078 8.46582 89.2648 8.4556C88.9398 7.85939 88.5583 7.29538 88.1768 6.73235C87.885 6.30105 87.5932 5.86975 87.3015 5.43844C87.2127 5.29519 87.1058 5.164 86.9834 5.04812C86.9785 5.02568 86.9746 5.00226 86.9707 4.97884L86.957 4.92127C86.9541 4.87053 86.9531 4.81881 86.9531 4.76807C87.0485 4.78949 87.1466 4.79575 87.2439 4.78661C87.6261 4.78988 87.996 4.92189 88.2939 5.16132C88.5883 5.40026 88.8521 5.67457 89.0794 5.97806C89.2278 6.15688 89.3647 6.34493 89.4892 6.54109C89.7328 6.98377 89.9181 7.45606 90.0405 7.94624C90.0665 8.00941 90.0709 8.07935 90.0532 8.1453Z" fill="#FFBA55"/>
        <path d="M90.5553 24.7547C89.3068 24.7256 88.7381 23.2506 88.6509 22.2147C88.5947 21.547 88.6801 20.8863 88.6877 20.2196C88.6947 19.6156 88.3851 19.4178 87.8547 19.2424C87.5885 19.1561 87.3496 19.0018 87.1615 18.7947C86.9734 18.5876 86.8426 18.335 86.7822 18.0618C86.7078 17.5154 86.8391 16.9607 87.1508 16.5057C87.7206 15.493 88.3324 14.5425 87.7785 13.3657C87.6193 13.0275 86.6032 13.3594 86.7374 13.6446C87.389 15.0289 86.3319 15.9466 85.8626 17.1553C85.7589 17.3991 85.7068 17.6617 85.7096 17.9266C85.7124 18.1915 85.77 18.453 85.8788 18.6945C85.9876 18.9361 86.1453 19.1525 86.3418 19.3301C86.5384 19.5077 86.7696 19.6427 87.0209 19.7266C87.3583 19.8381 87.5979 19.8843 87.6436 20.2896C87.6555 20.6817 87.6399 21.0741 87.5968 21.4639C87.5466 22.125 87.61 22.7899 87.7841 23.4297C87.928 23.9521 88.2336 24.4155 88.657 24.7536C89.0805 25.0917 89.6001 25.2871 90.1414 25.3118C90.3433 25.3165 90.7279 25.2366 90.8304 25.0345C90.9361 24.826 90.7403 24.759 90.5553 24.7547V24.7547Z" fill="#5E1212"/>
        <path d="M85.6158 14.1873C85.9228 14.2673 86.1857 14.4654 86.3473 14.7383C86.5089 15.0113 86.5562 15.3371 86.4787 15.6447C86.3642 15.9768 86.1492 16.2651 85.8636 16.4697C85.5896 16.7036 85.3721 16.9965 85.2274 17.3264C84.6794 18.6825 85.6482 20.0007 87.0427 20.1449C87.173 20.1599 87.305 20.1399 87.425 20.0869C87.545 20.0339 87.6486 19.9497 87.7252 19.8432C87.8394 19.6155 87.6255 19.4913 87.4252 19.4706C87.1227 19.4283 86.84 19.2955 86.6141 19.0898C86.3883 18.884 86.2299 18.6149 86.1596 18.3176C86.0874 18.0117 86.1056 17.6914 86.212 17.3957C86.3468 17.0862 86.5582 16.8161 86.8263 16.6109C87.098 16.4021 87.3071 16.1227 87.4307 15.8031C87.5543 15.4836 87.5876 15.1361 87.527 14.7989C87.446 14.493 87.2827 14.2152 87.0549 13.9956C86.8271 13.776 86.5435 13.623 86.2349 13.5532C86.1055 13.5217 85.9702 13.5233 85.8416 13.5578C85.713 13.5922 85.5951 13.6585 85.4987 13.7504C85.461 13.7802 85.4328 13.8205 85.4176 13.8661C85.4025 13.9118 85.401 13.9609 85.4135 14.0074C85.4259 14.0539 85.4517 14.0957 85.4877 14.1276C85.5236 14.1596 85.5682 14.1803 85.6158 14.1873L85.6158 14.1873Z" fill="#5E1212"/>
        <path d="M89.6745 2.40245C90.0711 2.03506 90.655 2.13714 91.1109 2.3346C91.5937 2.56077 92.0205 2.89074 92.361 3.30094C93.1042 4.22605 93.586 5.33337 93.7562 6.50774C93.8929 7.25328 93.9576 8.00942 94.0219 8.7639C94.0261 8.81281 94.2903 8.76529 94.2841 8.69364C94.1662 7.31051 94.0461 5.88817 93.4781 4.60334C93.0252 3.57872 92.2315 2.51691 91.1244 2.15612C90.8445 2.0487 90.5413 2.01668 90.2452 2.06327C89.949 2.10986 89.6703 2.23343 89.4369 2.42159C89.393 2.46226 89.4759 2.4665 89.4991 2.46528C89.5627 2.46339 89.6241 2.4414 89.6745 2.40246V2.40245Z" fill="#5E1212"/>
        <path d="M95.1148 7.24488C95.0227 7.64188 95.067 8.05836 95.2406 8.42707C95.4143 8.79579 95.7071 9.09524 96.0718 9.27708C96.459 9.46166 96.9014 9.46735 97.2972 9.62621C97.4959 9.69771 97.6631 9.83693 97.7693 10.0194C97.8747 10.2488 97.9176 10.502 97.8939 10.7533C97.8662 11.3391 97.6358 11.8971 97.242 12.3317C97.2015 12.3764 97.2774 12.3857 97.3067 12.3852C97.371 12.3853 97.4331 12.3621 97.4815 12.3198C97.8194 11.9481 98.0428 11.4867 98.1249 10.9911C98.1974 10.5447 98.1945 9.98506 97.8055 9.68035C97.4449 9.47304 97.0462 9.34059 96.6332 9.29088C96.2142 9.18577 95.8507 8.92537 95.6164 8.56241C95.4855 8.36426 95.3965 8.14142 95.3549 7.90761C95.3133 7.6738 95.32 7.43395 95.3745 7.2028C95.392 7.1344 95.1334 7.17204 95.1148 7.24488Z" fill="#5E1212"/>
        <path d="M95.7784 13.7305C94.876 14.3533 94.7498 15.4342 94.8736 16.4472C94.9754 17.2805 95.0762 18.3908 95.8762 18.8687C95.986 18.9065 96.1021 18.9219 96.2179 18.9141C96.3337 18.9063 96.4467 18.8754 96.5503 18.8232C96.6065 18.8021 97.024 18.605 96.8544 18.5037C96.1352 18.0741 96.0448 17.1066 95.9394 16.355C95.8196 15.5008 95.776 14.3454 96.583 13.7885C96.7502 13.6731 96.7086 13.5545 96.5146 13.5332C96.2543 13.5175 95.996 13.5867 95.7784 13.7305L95.7784 13.7305Z" fill="#5E1212"/>
        <path d="M76.6216 6.70775C76.8042 6.1491 77.1778 5.67265 77.6768 5.36202C78.244 5.01846 78.8944 4.83686 79.5575 4.83692C79.9736 4.82796 80.3899 4.84875 80.803 4.89914C80.866 4.90365 80.929 4.89144 80.9858 4.86373C81.0027 4.85585 81.0793 4.80952 81.0199 4.80287C79.6006 4.64408 77.9481 4.71799 76.9056 5.83554C76.6571 6.09729 76.4718 6.41239 76.3637 6.75675C76.3511 6.79796 76.6023 6.77078 76.6216 6.70775Z" fill="#5E1212"/>
        <g className="mix-blend-mode:multiply">
            <path d="M93.5718 28.8571C93.4509 29.0681 90.1075 32.5573 89.5278 36.2301L93.5718 28.8571Z" fill="#D2F1F9"/>
        </g>
        <g className="mix-blend-mode:multiply">
            <path d="M98.4504 42.4338C98.3333 41.9449 97.7039 41.2628 97.1096 40.7066V32.3569C97.1122 31.7199 96.9797 31.0897 96.7209 30.5076C96.4621 29.9256 96.0829 29.4051 95.6083 28.9803C95.1336 28.5555 94.5743 28.2362 93.9673 28.0433C93.3602 27.8505 92.7192 27.7885 92.0864 27.8614C91.1242 27.9883 90.1904 28.2772 89.3247 28.716L89.3608 28.6185C93.7665 24.2118 97.5214 30.1641 97.5214 30.1641C98.425 31.3263 98.4533 40.6579 98.4504 42.4338Z" fill="#D2F1F9"/>
        </g>
        <g className="mix-blend-mode:multiply" opacity="0.4">
            <path d="M89.3236 28.717L89.0387 28.9941L86.2226 25.0333C85.5941 26.1282 83.3576 28.031 82.6062 28.6535C82.4784 27.9051 82.3574 27.3938 82.3574 27.3938C83.33 26.9922 84.2009 26.3789 84.9068 25.5986C85.6127 24.8183 86.1358 23.8905 86.4382 22.8827L86.6509 22.1752C86.5504 23.6877 89.3236 28.717 89.3236 28.717Z" fill="#FFA787"/>
        </g>
        <g className="mix-blend-mode:multiply">
            <path d="M78.5302 20.9662C78.5302 20.9662 78.2128 22.5008 77.9977 23.2463C77.7748 24.0193 78.7276 24.4699 79.0904 23.7605C79.1867 23.5623 79.2586 23.3533 79.3046 23.1378L78.5302 20.9662Z" fill="#FF8D69"/>
        </g>
        <path d="M90.1678 20.573C89.7951 20.8359 89.3706 21.0166 88.9227 21.1028C88.91 21.1057 88.8973 21.1087 88.8846 21.1106C88.8007 21.1262 88.7178 21.1379 88.6348 21.1458C87.8409 21.2291 87.0441 21.0176 86.3961 20.5515C85.7481 20.0853 85.2941 19.3972 85.1207 18.618C84.9472 17.8388 85.0664 17.0231 85.4555 16.3261C85.8446 15.6291 86.4764 15.0995 87.2307 14.8382C87.3864 14.7832 87.5463 14.7407 87.7088 14.7114C87.9681 14.6636 88.2322 14.6476 88.4953 14.6635C88.4962 14.6631 88.4972 14.6628 88.4982 14.6628C88.4992 14.6628 88.5002 14.6631 88.5011 14.6635C89.1736 14.7062 89.8163 14.9566 90.3404 15.3802C90.8646 15.8037 91.2443 16.3795 91.4272 17.028C91.6101 17.6766 91.5872 18.3659 91.3616 19.0009C91.136 19.6359 90.7189 20.1852 90.1678 20.573Z" fill="#F53C42"/>
        <path d="M88.4956 14.6558V14.6636C88.4956 15.0032 88.482 15.1993 88.482 15.1993L87.3432 15.736C87.311 15.4277 87.2736 15.1284 87.231 14.8383C85.981 6.39179 80.1536 5.66287 77.9414 5.698C78.6551 5.14164 79.5167 4.8077 80.419 4.73781C80.8439 4.70547 81.2713 4.73804 81.6865 4.83442C88.0087 6.03855 88.4917 12.6945 88.4956 14.6558Z" fill="#F53C42"/>
        <path d="M72.5693 26.2073L72.7947 26.5518C72.7089 26.4443 72.6334 26.329 72.5693 26.2073Z" fill="#FFA787"/>
        <g className="mix-blend-mode:multiply" opacity="0.4">
            <path d="M74.9649 28.8145L74.4858 29.1375L72.5693 26.6653C72.9217 26.9934 73.9099 28.7446 74.9649 28.8145Z" fill="#FFA787"/>
        </g>
        <path d="M72.9917 21.057C73.0237 20.9898 73.0658 20.9279 73.1166 20.8735C73.0454 20.9711 73.0034 21.0384 72.9917 21.057Z" fill="#5E1212"/>
        <path d="M75.9497 20.0899C75.3592 20.1133 74.7724 20.1953 74.1981 20.3348C74.1689 20.2275 74.1259 20.0753 74.0732 19.8938C74.5904 19.4801 75.2358 19.2599 75.898 19.2712L75.9497 20.0899Z" fill="#5E1212"/>
        <path d="M79.749 17.0441L80.3905 17.9063C80.3905 17.9063 82.9955 15.827 84.1758 16.3736C84.1758 16.3736 81.4658 15.4644 79.749 17.0441Z" fill="#5E1212"/>
        <g className="mix-blend-mode:multiply" opacity="0.4">
            <path d="M88.4957 20.3616C89.6985 20.3616 90.6735 19.3865 90.6735 18.1838C90.6735 16.981 89.6985 16.006 88.4957 16.006C87.2929 16.006 86.3179 16.981 86.3179 18.1838C86.3179 19.3865 87.2929 20.3616 88.4957 20.3616Z" fill="#F53C42"/>
        </g>
        <path d="M88.5968 20.1226C89.7995 20.1226 90.7746 19.1476 90.7746 17.9448C90.7746 16.742 89.7995 15.767 88.5968 15.767C87.394 15.767 86.4189 16.742 86.4189 17.9448C86.4189 19.1476 87.394 20.1226 88.5968 20.1226Z" fill="white"/>
        <g className="mix-blend-mode:multiply" opacity="0.4">
            <path d="M88.4951 14.6558C88.4883 14.5358 87.9691 10.231 86.0244 8.28776C86.0244 8.28776 83.3976 5.07935 80.4185 4.73781C80.8434 4.70547 81.2709 4.73804 81.686 4.83442C88.0082 6.03855 88.4912 12.6945 88.4951 14.6558Z" fill="#F53C42"/>
        </g>
        <g className="mix-blend-mode:multiply" opacity="0.4">
            <path d="M90.1676 20.573C90.9658 19.2713 91.2332 17.2455 88.501 14.6635C89.1735 14.7062 89.8161 14.9566 90.3403 15.3802C90.8644 15.8037 91.2441 16.3795 91.427 17.028C91.6099 17.6766 91.587 18.3659 91.3614 19.0009C91.1359 19.6359 90.7187 20.1852 90.1676 20.573Z" fill="#F53C42"/>
        </g>
        <path d="M95.3534 9.34481C95.3261 9.64136 95.3964 9.93872 95.5537 10.1916C95.711 10.4445 95.9467 10.639 96.2247 10.7456C96.3961 10.807 96.5799 10.8306 96.7467 10.9047C96.8914 10.969 97.0107 11.0793 97.086 11.2185C97.1535 11.3513 97.1932 11.4964 97.2028 11.645C97.2124 11.7936 97.1916 11.9426 97.1418 12.0829C96.979 12.4673 96.7296 12.8089 96.413 13.081C96.306 13.1871 96.5625 13.18 96.6223 13.1207C97.0847 12.6618 97.6098 12.0799 97.434 11.373C97.4011 11.229 97.3319 11.0958 97.2331 10.9861C97.1342 10.8764 97.0089 10.7938 96.8691 10.7462C96.6965 10.6863 96.5125 10.6611 96.3454 10.5854C96.2022 10.5196 96.0733 10.4264 95.966 10.311C95.8399 10.1787 95.7434 10.0211 95.683 9.8486C95.6225 9.67613 95.5994 9.49276 95.6153 9.31068C95.6255 9.20943 95.3621 9.25882 95.3534 9.34481L95.3534 9.34481Z" fill="#C47076"/>
        <path d="M98.1089 11.4685C98.222 11.6921 98.2595 11.9464 98.2157 12.1932C98.172 12.44 98.0493 12.6659 97.8662 12.837C97.8251 12.8732 97.8379 12.9139 97.8899 12.9256C97.9226 12.9309 97.956 12.9291 97.988 12.9206C98.0199 12.912 98.0497 12.8968 98.0754 12.876C98.2787 12.6953 98.4175 12.4533 98.4709 12.1866C98.5243 11.92 98.4892 11.6432 98.3711 11.3982C98.3267 11.3117 98.0723 11.3971 98.1089 11.4685Z" fill="#C47076"/>
        <g className="mix-blend-mode:multiply" opacity="0.4">
            <path d="M90.0532 8.1453C89.617 6.96653 86.9707 4.97884 86.9707 4.97884L86.957 4.92127C86.9541 4.87053 86.9531 4.81881 86.9531 4.76807C87.0485 4.78949 87.1466 4.79575 87.2439 4.78661C87.6261 4.78988 87.996 4.92189 88.2939 5.16132C88.5883 5.40026 88.8521 5.67457 89.0794 5.97806C89.2278 6.15688 89.3647 6.34493 89.4892 6.54109C89.7328 6.98377 89.9181 7.45606 90.0405 7.94624C90.0665 8.00941 90.0709 8.07935 90.0532 8.1453Z" fill="#FFBA55"/>
        </g>
        <path d="M88.9245 21.2903C88.9256 21.3091 88.9253 21.3281 88.9235 21.3469C88.896 22.0952 88.7112 22.8293 88.381 23.5014C88.3039 23.6654 88.219 23.8264 88.1302 23.9815C87.9325 24.3225 87.7145 24.6513 87.4774 24.9661C87.2569 25.2608 87.0256 25.5467 86.7875 25.8277C86.4625 26.2141 86.1269 26.5927 85.8029 26.9782C84.698 28.2913 83.7213 29.7071 82.8863 31.2063L82.8658 31.2444C82.6091 31.7069 82.3668 32.1766 82.1388 32.6534C82.0363 32.8632 81.9388 33.074 81.8431 33.2867C81.6577 33.7005 81.4831 34.1191 81.3191 34.5426C81.0986 35.1085 80.8979 35.6816 80.7171 36.2619C80.6614 36.4385 80.6088 36.6171 80.557 36.7947C80.1364 38.0926 79.9549 39.4561 80.0213 40.8189C80.0856 41.4729 80.2335 42.116 80.4614 42.7324C80.6175 43.1784 80.7922 43.6214 80.9278 44.0751H80.6214C80.5844 43.9561 80.5444 43.837 80.5044 43.7199C80.2955 43.112 80.0477 42.5148 79.8964 41.8884C79.7469 41.2439 79.6878 40.5819 79.7208 39.9212C79.7949 38.7512 80.0185 37.5956 80.3863 36.4825C80.4263 36.3497 80.4682 36.218 80.5102 36.0873C80.64 35.6833 80.7805 35.2813 80.9298 34.8841C81.2069 34.1464 81.5162 33.4217 81.8578 32.71C81.8704 32.6808 81.8851 32.6525 81.8987 32.6232C82.1037 32.2007 82.319 31.784 82.5447 31.3732C82.6491 31.1829 82.7565 30.9939 82.8667 30.8062C83.1468 30.3232 83.4425 29.8496 83.7538 29.3855C84.4635 28.3426 85.2365 27.3441 86.0683 26.3956C86.2723 26.1585 86.4782 25.9204 86.6802 25.6775C86.9261 25.3789 87.1661 25.0744 87.3886 24.7592C87.7144 24.3088 87.9902 23.8242 88.2112 23.3141C88.2317 23.2663 88.2502 23.2185 88.2697 23.1706C88.4807 22.6439 88.6037 22.0862 88.6337 21.5196C88.6366 21.4737 88.6376 21.4279 88.6376 21.382C88.6396 21.3137 88.6386 21.2464 88.6357 21.178C88.6357 21.1673 88.6357 21.1566 88.6347 21.1458C88.7176 21.138 88.8006 21.1263 88.8845 21.1107C88.8972 21.1088 88.9099 21.1058 88.9225 21.1029V21.1146C88.9255 21.1732 88.9255 21.2317 88.9245 21.2903Z" fill="#FFBA55"/>
        <path d="M77.8355 42.7215C77.8403 43.1733 77.855 43.6241 77.8852 44.075H77.5964C77.5534 43.3753 77.5476 42.6727 77.5505 41.9711C77.5573 39.9142 77.6393 37.8211 77.0938 35.8168C76.9084 35.1337 76.6625 34.4702 76.4401 33.7988C76.401 33.6818 76.363 33.5647 76.3259 33.4466C76.2634 33.2475 76.2039 33.0465 76.1493 32.8435C75.9241 31.9742 75.8112 31.0796 75.8136 30.1816C75.8114 29.654 75.8404 29.1268 75.9005 28.6027C76.0213 27.5384 76.2726 26.4929 76.6489 25.4899C76.7016 25.3523 76.7562 25.2148 76.8128 25.0791C76.8629 25.1627 76.918 25.2432 76.9777 25.3201C76.9621 25.3611 76.9465 25.4011 76.9309 25.4421C76.8596 25.6314 76.7923 25.8237 76.7299 26.0169C76.4663 26.8323 76.2833 27.6716 76.1834 28.5227C76.0912 29.2975 76.0709 30.0792 76.1229 30.8578C76.19 31.7378 76.361 32.6068 76.6323 33.4466C76.6479 33.4934 76.6625 33.5412 76.6782 33.5881C76.6947 33.6388 76.7113 33.6896 76.7289 33.7403C77.0665 34.6554 77.3452 35.5911 77.5632 36.5418C77.6601 37.0518 77.7285 37.5669 77.7681 38.0845C77.7701 38.1011 77.772 38.1187 77.773 38.1353C77.893 39.6575 77.8169 41.1964 77.8355 42.7215Z" fill="#EFA94B"/>
    </g>
    <circle cx="112.75" cy="20.5" r="20.5" fill="#A797B0"/>
    <circle cx="112.75" cy="20.5" r="20.5" fill="#A797B0"/>
    <mask id="mask4_191_2248" className="mask-type:alpha" maskUnits="userSpaceOnUse" x="92" y="0" width="42" height="41">
        <path d="M112.75 41C124.072 41 133.25 31.8218 133.25 20.5C133.25 9.17816 124.072 0 112.75 0C101.428 0 92.25 9.17816 92.25 20.5C92.25 31.8218 101.428 41 112.75 41Z" fill="#F53C42"/>
    </mask>
    <g mask="url(#mask4_191_2248)">
        <path d="M110.94 12.5829C110.911 12.4958 110.893 12.4055 110.886 12.3141C110.914 12.4661 110.936 12.5662 110.94 12.5829Z" stroke="#391B1B" stroke-miterlimit="10"/>
        <path d="M115.053 14.7361C115.077 14.7441 115.102 14.7506 115.127 14.7556C115.108 14.751 115.083 14.7445 115.053 14.7361Z" stroke="#391B1B" stroke-miterlimit="10"/>
        <path d="M113.809 10.7902L111.826 9.89566H111.825C111.905 9.25226 112.102 8.62881 112.405 8.05563C112.489 8.88434 113.108 9.88917 113.809 10.7902Z" stroke="#391B1B" stroke-miterlimit="10"/>
        <path d="M130.358 37.0879C129.945 36.6346 129.516 36.1499 129.14 35.72C129.119 35.6975 129.1 35.675 129.081 35.6525C129.041 35.6074 129.003 35.5624 128.966 35.5193C128.947 35.4978 128.927 35.4762 128.909 35.4547C128.871 35.4126 128.834 35.3705 128.8 35.3303C128.792 35.3205 128.784 35.3117 128.776 35.3019L128.748 35.2687L128.722 35.2393C128.695 35.2099 128.67 35.1805 128.646 35.1521C128.622 35.1237 128.598 35.0973 128.575 35.0709C128.552 35.0444 128.532 35.019 128.51 34.9955C128.471 34.9495 128.434 34.9064 128.399 34.8652C128.364 34.8261 128.333 34.7889 128.304 34.7546C128.148 34.5734 128.047 34.4559 128.024 34.4275L128.019 34.4226L128.018 34.4207L127.79 32.4623L129.5 28.6485V28.6475C129.498 28.6412 129.496 28.6349 129.493 28.6289L129.488 28.6152C129.487 28.6132 129.487 28.6103 129.486 28.6083C129.483 28.6023 129.481 28.5964 129.478 28.5907C129.475 28.5834 129.472 28.5762 129.468 28.5692C129.465 28.5643 129.463 28.5604 129.461 28.5564C129.455 28.5437 129.448 28.531 129.442 28.5183C129.402 28.4502 129.357 28.3857 129.306 28.3253C129.288 28.3028 129.269 28.2803 129.249 28.2568C129.232 28.2382 129.214 28.2186 129.195 28.199C129.176 28.1795 129.157 28.1599 129.137 28.1393C129.124 28.1252 129.111 28.1118 129.097 28.0992C129.083 28.0855 129.068 28.0718 129.055 28.058C129.039 28.0434 129.022 28.0287 129.007 28.013C128.985 27.9934 128.962 27.9729 128.938 27.9523C128.914 27.9307 128.888 27.9092 128.863 27.8877C128.832 27.8602 128.797 27.8328 128.764 27.8044C128.72 27.7682 128.674 27.731 128.626 27.6948C128.599 27.6742 128.573 27.6536 128.546 27.6331C128.464 27.5704 128.378 27.5068 128.288 27.4431C128.228 27.401 128.167 27.3579 128.104 27.3149C127.944 27.2042 127.776 27.0916 127.6 26.98C127.509 26.9212 127.416 26.8635 127.321 26.8047C127.313 26.7989 127.305 26.7937 127.296 26.789C127.233 26.7499 127.168 26.7107 127.103 26.6716L126.983 26.5981C126.824 26.5022 126.662 26.4062 126.497 26.3122L126.415 26.2652C126.388 26.2495 126.36 26.2329 126.333 26.2172C126.231 26.1594 126.129 26.1017 126.027 26.0449C125.992 26.0253 125.957 26.0047 125.921 25.9852C125.781 25.9078 125.641 25.8308 125.501 25.7541L125.419 25.71C125.408 25.7032 125.397 25.697 125.386 25.6914C125.121 25.5484 124.86 25.4104 124.608 25.2782C124.529 25.2371 124.451 25.1969 124.374 25.1578C124.181 25.0589 123.996 24.9642 123.819 24.8738C123.76 24.8444 123.703 24.8151 123.646 24.7857C123.487 24.7054 123.338 24.631 123.197 24.5624C123.157 24.5438 123.118 24.5242 123.081 24.5047C122.967 24.4488 122.861 24.3969 122.767 24.3509C122.751 24.3431 122.735 24.3362 122.72 24.3284C122.704 24.3206 122.688 24.3137 122.674 24.3059C122.629 24.2843 122.587 24.2638 122.548 24.2452L122.51 24.2276C122.499 24.2217 122.488 24.2168 122.479 24.2119C122.465 24.205 122.452 24.1992 122.439 24.1933C122.428 24.1884 122.418 24.1835 122.407 24.1786C122.396 24.1737 122.387 24.1678 122.377 24.1629C122.298 24.1257 122.241 24.0983 122.208 24.0836C122.202 24.081 122.196 24.0781 122.19 24.0748L122.189 24.0738C122.187 24.0728 122.184 24.0722 122.182 24.0719L122.178 24.0699L122.177 24.0689L122.142 24.0719L121.78 24.1042L117.589 24.4655H117.588L117.561 24.4684H117.558L116.953 24.6271H116.952L116.699 24.6927L116.301 24.7965L116 24.8748L115.018 25.1303L115.01 25.1333L107.913 26.9859L107.91 26.9868H107.908L107.089 27.2013L107.043 27.2463V27.2473L107.026 27.2639L101.92 32.4614L101.734 32.8462L101.349 33.6393C101.228 33.6799 101.108 33.7266 100.992 33.7793C100.947 33.7989 100.9 33.8205 100.854 33.844C100.828 33.8567 100.801 33.8694 100.774 33.8821C100.769 33.8851 100.763 33.888 100.756 33.8909C100.735 33.9017 100.714 33.9135 100.692 33.9242C100.668 33.937 100.642 33.9497 100.617 33.9634C99.1265 34.847 97.7137 35.8552 96.3936 36.9773V40.1997C96.3892 40.194 96.3953 40.4283 96.3999 40.4969C96.403 40.543 96.3936 44.6755 96.3936 44.6755H110.104C110.104 44.9712 110.122 45.2718 110.145 45.5528H110.976C110.951 45.3021 110.927 45.0064 110.922 44.7616C110.921 44.7333 110.921 44.7048 110.921 44.6755H116.009C116.084 44.9731 116.172 45.2669 116.268 45.5528H117.15C117.051 45.2757 116.952 44.9721 116.87 44.6755H130.358V37.0879Z" fill="#27848B"/>
        <g className="mix-blend-mode:multiply" opacity="0.5">
            <path d="M101.477 34.3223C101.911 34.3223 105.612 36.9446 107.475 41.3987L100.617 33.9635C100.851 33.8347 101.097 33.7262 101.35 33.6391L101.92 32.4618L107.089 27.2004L115.01 25.1332L107.475 29.1544C107.475 29.1544 101.044 34.3223 101.477 34.3223Z" fill="#27848B"/>
        </g>
        <path d="M117.836 29.6825L119.885 33.2264L119.724 33.4171L118.819 34.4921L113.81 40.4403L109.063 37.9098L107.462 33.7948C107.462 33.7948 108.167 33.606 107.91 31.455L107.09 27.3554L104.491 21.1975C104.491 21.1975 102.929 18.7631 104.491 19.5722L104.188 17.048L104.161 16.8346L103.796 13.7983L111.375 7.72296L116.033 8.43483L116.838 9.88306L118.52 12.9094L119.117 15.9493L118.601 19.169L118.59 19.2389L118.52 19.6784C118.66 19.4802 118.815 19.2935 118.984 19.12C119.46 18.6324 120.201 18.1148 120.719 18.9002C120.856 19.1244 120.958 19.3681 121.023 19.623C121.033 19.6615 121.037 19.7013 121.036 19.741C121.027 20.1378 120.897 22.3124 119.18 23.2268L117.615 23.8197L117.56 23.8406H117.559V23.8424L117.814 29.2258L117.836 29.6825Z" fill="#FFA787"/>
        <g className="mix-blend-mode:multiply">
            <path d="M117.814 29.2259L112.273 30.0776C111.851 30.1424 111.421 30.1216 111.007 30.0164C110.593 29.9113 110.205 29.724 109.865 29.4656L107.091 27.3564C107.212 27.4054 115.075 30.6033 117.559 23.8425L117.814 29.2259Z" fill="#FFA787"/>
        </g>
        <g className="mix-blend-mode:multiply">
            <path d="M109.426 18.7441L108.674 21.1396C108.652 21.2098 108.647 21.2841 108.659 21.3566C108.671 21.4291 108.7 21.4978 108.744 21.557C108.787 21.6163 108.844 21.6645 108.91 21.6977C108.975 21.7309 109.048 21.7482 109.121 21.7482H109.426V18.7441Z" fill="#FFA787"/>
        </g>
        <g className="mix-blend-mode:multiply" opacity="0.4">
            <g className="mix-blend-mode:multiply" opacity="0.4">
                <path d="M119.117 15.9495L118.601 19.1692L118.59 19.2388C118.521 19.3493 118.446 19.4558 118.365 19.5575C118.592 18.2046 117.605 16.9479 117.455 15.585C117.403 15.1105 117.454 14.6269 117.376 14.1551C117.354 13.9166 117.273 13.6874 117.139 13.4885C117.006 13.2896 116.825 13.1273 116.612 13.0166C116.364 12.9338 116.1 12.9081 115.84 12.9414C114.992 12.9991 114.156 13.1704 113.354 13.4507C112.736 13.72 112.088 13.9162 111.424 14.0351C110.579 14.1221 109.744 13.8446 108.921 13.6339C107.652 13.3097 106.261 13.1494 105.071 13.6953L105.145 13.8831L104.824 13.8913C105.629 12.6871 106.809 11.7813 108.18 11.3138C108.633 11.1891 109.078 11.034 109.51 10.8494C110.299 10.4573 110.887 9.71723 111.708 9.39847C112.438 9.17445 113.213 9.14508 113.957 9.31329C114.783 9.4406 115.601 9.61647 116.418 9.79143C116.557 9.82074 116.698 9.85096 116.838 9.88304L118.519 12.9094L119.117 15.9495Z" fill="#FFA787"/>
            </g>
        </g>
        <path d="M104.42 19.1243C104.417 19.1041 104.416 19.0867 104.415 19.0739L104.42 19.1243Z" fill="white"/>
        <path d="M118.519 19.6795C118.519 19.6795 119.496 17.1802 120.777 19.0572C120.777 19.0572 121.879 23.0175 117.559 23.8408L117.253 22.7795L118.519 19.6795Z" fill="#FFA787"/>
        <g className="mix-blend-mode:multiply" opacity="0.5">
            <g className="mix-blend-mode:multiply" opacity="0.5">
                <path d="M97.7542 42.9815C97.468 41.9814 97.0076 41.0397 96.3941 40.1997C96.3917 40.1965 96.3941 40.6423 96.3941 40.6423C96.3941 40.6423 97.5897 43.2655 97.9197 44.6755H98.2037C98.0705 44.1056 97.9285 43.5387 97.7542 42.9815Z" fill="#27848B"/>
            </g>
        </g>
        <g className="mix-blend-mode:multiply" opacity="0.5">
            <path d="M121.79 31.661L126.022 27.7798L117.559 24.4677L122.178 24.0691C122.178 24.0691 129.044 27.2801 129.5 28.6474L121.79 31.661Z" fill="#27848B"/>
        </g>
        <g className="mix-blend-mode:multiply" opacity="0.5">
            <path d="M110.026 41.0402C110.026 41.0402 112.687 42.8492 113.401 42.5525C113.401 42.5525 111.535 40.537 110.026 41.0402Z" fill="#27848B"/>
        </g>
        <g className="mix-blend-mode:multiply" opacity="0.5">
            <path d="M115.009 41.944C115.009 41.944 117.215 41.4274 117.253 40.4408C116.346 40.6493 115.547 41.1844 115.009 41.944Z" fill="#27848B"/>
        </g>
        <path d="M117.15 45.5528H116.268C116.172 45.2669 116.084 44.9731 116.009 44.6755C115.736 43.7004 115.68 42.6774 115.845 41.6783V41.6763C115.869 41.549 115.899 41.4237 115.933 41.2974C115.971 41.2089 116.034 41.1334 116.114 41.0797C116.194 41.026 116.287 40.9966 116.383 40.9948C116.502 40.9791 116.78 41.0291 116.748 41.2034V41.2043C116.747 41.2093 116.746 41.2142 116.745 41.219C116.494 42.2293 116.503 43.2865 116.769 44.2926C116.799 44.417 116.833 44.5453 116.87 44.6755C116.952 44.9722 117.051 45.2757 117.15 45.5528Z" fill="#FFBA55"/>
        <g className="mix-blend-mode:multiply" opacity="0.5">
            <path d="M129.14 35.72C126.395 36.6618 121.001 40.3743 120.904 40.4401C123.085 38.03 128.018 34.4203 128.018 34.4203C128.018 34.4203 128.503 34.9914 129.14 35.72Z" fill="#27848B"/>
        </g>
        <path d="M118.534 19.6439C118.457 19.8747 118.652 14.37 118.652 14.37C118.478 14.6244 118.355 14.9094 118.288 15.2098C118.346 11.6401 114.959 11.755 114.959 11.755C113.391 12.8906 109.259 13.0203 106.945 12.9972C106.472 12.9918 106.011 13.1403 105.631 13.4203C105.25 13.7002 104.971 14.0964 104.836 14.5489L104.166 16.8756L103.039 15.805C102.665 15.4474 102.4 14.9914 102.274 14.4896C101.034 9.56831 103.115 7.14058 103.115 7.14058C121.343 -4.70425 117.882 7.83303 117.882 7.83303L120.959 9.90944C123.42 12.6014 118.611 19.413 118.534 19.6439Z" fill="#5E1212"/>
        <path d="M111.739 16.8667L112.128 17.7284C112.128 17.7284 114.758 16.4314 115.67 17.1231C115.67 17.1231 113.512 15.8321 111.739 16.8667Z" fill="#5E1212"/>
        <path d="M107.159 16.9873L106.769 17.849C105.955 17.4496 105.084 17.1794 104.187 17.0482L104.161 16.8348C104.951 16.5724 106.122 16.3817 107.159 16.9873Z" fill="#5E1212"/>
        <g className="mix-blend-mode:multiply">
            <path d="M118.326 20.1524C118.326 20.1524 119.62 18.0968 120.308 19.2294C120.395 19.3782 120.451 19.5429 120.473 19.7137C120.495 19.8846 120.482 20.0581 120.435 20.224C120.212 21.0695 119.548 22.8716 117.981 22.6881L118.326 20.1524Z" fill="#FFA787"/>
        </g>
        <path d="M117.28 8.23219C117.487 8.20358 117.685 8.13015 117.861 8.01703C118.037 7.9039 118.186 7.75381 118.297 7.57721C118.604 7.21539 118.88 6.82941 119.124 6.42304C119.349 6.08711 119.485 5.70048 119.522 5.29834C119.558 4.8962 119.493 4.49131 119.334 4.1205C119.249 3.9408 119.129 3.78017 118.981 3.64844C118.832 3.5167 118.658 3.41663 118.47 3.35433C118.439 3.34555 118.406 3.34333 118.374 3.34779C118.342 3.35225 118.311 3.3633 118.284 3.38024C118.257 3.39717 118.197 3.45891 118.26 3.47801C118.564 3.59785 118.824 3.80725 119.006 4.07845C119.188 4.34964 119.284 4.6698 119.28 4.99647C119.323 5.82303 118.834 6.571 118.351 7.19845C118.211 7.38023 118.071 7.56382 117.919 7.7359C117.793 7.91799 117.601 8.04449 117.384 8.08917C117.332 8.09183 117.237 8.10564 117.21 8.15972C117.185 8.21026 117.232 8.23465 117.28 8.2322V8.23219Z" fill="#5E1212"/>
        <path d="M117.895 8.31007C118.953 7.69596 119.949 6.98057 120.869 6.17397C120.911 6.13722 120.898 6.10844 120.848 6.09533C120.815 6.09086 120.782 6.09297 120.75 6.10153C120.718 6.11009 120.688 6.12493 120.662 6.14518C119.757 6.9397 118.778 7.64449 117.737 8.24963C117.699 8.27162 117.662 8.30809 117.71 8.33837C117.756 8.36692 117.855 8.33377 117.895 8.31009V8.31007Z" fill="#5E1212"/>
        <path d="M117.431 7.9857C117.494 7.37426 117.529 6.76091 117.537 6.14565C117.555 5.59984 117.534 5.05348 117.476 4.51047C117.439 4.06389 117.287 3.63454 117.035 3.26414C116.894 3.08603 116.719 2.93834 116.519 2.83003C116.32 2.72172 116.101 2.65507 115.875 2.6341C115.312 2.59646 114.747 2.66168 114.208 2.82658C114.162 2.83793 114.081 2.88134 114.097 2.94029C114.113 3.00035 114.206 2.99448 114.25 2.9835C115.087 2.77505 116.159 2.5665 116.773 3.3486C117.021 3.70262 117.172 4.11626 117.209 4.54738C117.265 5.04975 117.287 5.55547 117.273 6.06085C117.269 6.71257 117.233 7.36294 117.166 8.01197C117.153 8.13317 117.42 8.09015 117.431 7.9857Z" fill="#C47076"/>
        <path d="M119.399 9.96808C119.672 10.4978 120.309 10.6038 120.794 10.8593C120.933 10.9209 121.056 11.0134 121.154 11.1298C121.252 11.2462 121.323 11.3834 121.36 11.531C121.399 11.7557 121.413 11.9841 121.401 12.2119C121.399 12.4414 121.387 12.6706 121.365 12.8994C121.314 13.4282 121.213 13.9508 121.062 14.4602C121.031 14.5656 121.297 14.5314 121.326 14.4323C121.603 13.539 121.714 12.6025 121.653 11.6693C121.645 11.5059 121.601 11.3464 121.522 11.203C121.443 11.0596 121.333 10.9362 121.199 10.8423C120.95 10.6878 120.685 10.5605 120.409 10.4625C120.102 10.3666 119.838 10.1668 119.662 9.89758C119.611 9.79864 119.354 9.88047 119.399 9.96808V9.96808Z" fill="#C47076"/>
    </g>
    <defs>
        <linearGradient id="paint0_linear_191_2248" x1="20.891" y1="16.375" x2="21.454" y2="40.5819" gradientUnits="userSpaceOnUse">
            <stop stop-color="#D62B37"/>
            <stop offset="0.03181" stop-color="#D82C38" stop-opacity="0.96274"/>
            <stop offset="0.19674" stop-color="#E3323B" stop-opacity="0.79582"/>
            <stop offset="0.37001" stop-color="#EB363E" stop-opacity="0.66528"/>
            <stop offset="0.55323" stop-color="#F13A40" stop-opacity="0.57255"/>
            <stop offset="0.75294" stop-color="#F43B42" stop-opacity="0.51755"/>
            <stop offset="1" stop-color="#F53C42" stop-opacity="0.5"/>
        </linearGradient>
        <linearGradient id="paint1_linear_191_2248" x1="20.891" y1="16.375" x2="21.454" y2="40.5819" gradientUnits="userSpaceOnUse">
            <stop stop-color="#D62B37"/>
            <stop offset="0.03181" stop-color="#D82C38" stop-opacity="0.96274"/>
            <stop offset="0.19674" stop-color="#E3323B" stop-opacity="0.79582"/>
            <stop offset="0.37001" stop-color="#EB363E" stop-opacity="0.66528"/>
            <stop offset="0.55323" stop-color="#F13A40" stop-opacity="0.57255"/>
            <stop offset="0.75294" stop-color="#F43B42" stop-opacity="0.51755"/>
            <stop offset="1" stop-color="#F53C42" stop-opacity="0.5"/>
        </linearGradient>
    </defs>
</svg>