<svg width="352" height="255" viewBox="0 0 352 255" fill="none" xmlns="http://www.w3.org/2000/svg">
<path opacity="0.05" d="M176 254.058C78.7979 254.058 0 233.654 0 208.483C0 183.312 78.7979 162.907 176 162.907C273.202 162.907 352 183.312 352 208.483C352 233.654 273.202 254.058 176 254.058Z" fill="#070707"/>
<path d="M95.5784 132.356C95.5784 132.356 106.602 92.799 115.397 79.3567C124.206 65.9144 140.607 51.1616 140.607 51.1616C140.607 51.1616 140.228 112.159 95.5784 132.356Z" fill="#8879FF"/>
<path d="M96.3757 131.68C100.158 125.546 103.36 119.062 106.427 112.509C107.778 105.484 109.426 98.4187 111.898 91.7043C111.939 91.5827 112.128 91.6502 112.088 91.7718C110.629 98.0269 108.926 104.214 107.373 110.442C111.817 100.81 116.046 91.0693 121.355 81.9637C122.423 77.5459 124.449 73.3039 126.462 69.3049C126.516 69.1834 126.719 69.2509 126.651 69.3725C125.233 72.4662 124.219 75.6681 123.206 78.8699C125.706 74.844 128.462 70.9531 131.582 67.3055C131.771 67.0758 132.163 67.3325 131.974 67.5757C124.895 76.6138 120.004 86.9083 115.343 97.3244C120.383 91.9474 124.963 86.0572 129.178 80.0318C129.218 79.9642 129.313 80.0318 129.272 80.0993C124.922 87.0163 119.91 93.2309 114.465 99.2968C111.074 106.93 107.737 114.59 103.698 121.845C111.777 115.009 117.991 106.173 124.152 97.6486C124.287 97.4594 124.584 97.6621 124.449 97.8513C118.289 107.214 111.926 116.022 103.063 122.953C101.253 126.127 99.3073 129.221 97.1457 132.193C96.7945 132.707 96.0514 132.193 96.3757 131.68Z" fill="#263238"/>
<path d="M93.4834 132.409C93.4834 132.409 113.289 95.9329 107.534 60.5641C101.778 25.1953 95.618 12.6041 95.618 12.6041C95.618 12.6041 64.4777 67.6162 93.4834 132.409Z" fill="#8879FF"/>
<path d="M85.3509 75.0603C86.9315 85.2737 89.701 94.8387 92.9974 104.512C93.0515 91.5288 93.2947 78.5458 93.6459 65.5764C91.3627 57.6866 90.2144 49.6077 89.9037 41.4072C89.8902 41.1641 90.2549 41.1776 90.2684 41.4072C90.8494 48.4729 92.0923 55.3494 93.7405 62.2124C94.0377 51.4991 94.4025 40.7993 94.7807 30.0995C94.7807 29.9239 95.0644 29.9239 95.0644 30.0995C95.0509 46.8247 95.0509 63.5499 94.9564 80.2751C97.5097 73.8309 99.1174 67.1976 100.671 60.4021C100.685 60.3346 100.793 60.3481 100.793 60.4156C100.198 68.2243 97.8205 75.7763 94.9429 83.0311C94.8618 93.7174 94.7537 104.417 94.5105 115.104C97.861 103.742 101.441 92.7312 102.414 80.7209C102.427 80.5588 102.67 80.5588 102.67 80.7209C102.414 93.9606 98.9958 107.416 94.6186 119.872C94.5646 120.008 94.4835 120.102 94.4025 120.183C94.3079 124.088 94.1863 127.992 94.0647 131.91C94.0512 132.477 93.2001 132.45 93.2001 131.896C93.0515 123.898 92.9974 115.914 93.0109 107.916C88.5662 97.6488 86.1885 86.1789 85.2023 75.0873C85.1752 74.9928 85.3373 74.9657 85.3509 75.0603Z" fill="#263238"/>
<path d="M86.7159 69.4288C87.3374 72.5631 87.9318 75.873 88.0939 79.0613C88.0939 79.1694 87.9318 79.1829 87.9048 79.0884C87.0807 75.9946 86.6349 72.6577 86.2701 69.4829C86.2566 69.2262 86.6619 69.1856 86.7159 69.4288Z" fill="#263238"/>
<path d="M98.2931 42.7593C98.3066 42.6513 98.4822 42.6783 98.4822 42.7864C98.5092 44.975 98.0634 47.3257 97.4825 49.4332C97.4284 49.6088 97.1853 49.5278 97.2123 49.3522C97.6581 47.1636 97.9283 44.9614 98.2931 42.7593Z" fill="#263238"/>
<path d="M86.2566 132.41C86.2566 132.41 87.0672 94.3252 76.1377 75.3979C65.2083 56.4706 47.0916 46.8246 47.0916 46.8246C47.0916 46.8246 54.4004 113.955 86.2566 132.41Z" fill="#8879FF"/>
<path d="M66.3435 99.8498C70.9369 106.456 75.5032 112.833 81.1233 118.588C78.9482 110.806 76.4084 103.146 73.5578 95.6213C67.4378 90.2578 61.3584 84.6918 57.6026 77.3424C57.5486 77.2208 57.7107 77.1263 57.7783 77.2344C61.8177 83.7461 67.2217 88.9474 72.9093 93.9596C68.5456 82.6518 63.4659 71.6143 57.6972 60.8469C57.5486 60.5767 57.9539 60.3335 58.116 60.6037C61.6151 66.2103 64.7899 72.0195 67.654 77.9774C66.6272 73.9109 65.8166 69.7499 64.7629 65.7105C64.7358 65.6024 64.898 65.5618 64.9385 65.6564C66.8704 70.7496 68.8023 76.3697 69.4238 81.8007C73.247 90.2444 76.4624 98.9582 79.0428 107.861C78.7591 102.147 78.4078 96.4724 77.8134 90.7712C77.7999 90.6631 77.989 90.6361 78.0025 90.7442C79.1914 97.0668 79.8128 103.497 79.6507 109.928C81.2314 115.602 82.5553 121.344 83.6091 127.126C83.6361 127.275 83.4065 127.356 83.3659 127.194C82.7715 124.762 82.123 122.357 81.4746 119.966C81.434 119.953 81.3935 119.953 81.353 119.912C75.4897 114.049 69.9236 107.348 66.276 99.8634C66.2625 99.8499 66.3165 99.8093 66.3435 99.8498Z" fill="#263238"/>
<path d="M53.6849 68.8719C54.9008 70.1823 56.0221 71.5738 57.1975 72.9248C58.2378 74.1272 59.5077 75.2485 60.3453 76.5995C60.3723 76.6536 60.3183 76.7211 60.2642 76.6806C58.8592 75.7889 57.7244 74.3434 56.6301 73.1005C55.4818 71.79 54.4415 70.4931 53.5228 69.007C53.4418 68.8989 53.6039 68.7773 53.6849 68.8719Z" fill="#263238"/>
<path d="M117.396 135.205L116.018 153.24L111.87 207.766H75.6774L71.5299 153.24L70.1519 135.205C71.692 135.205 93.7671 135.205 93.7671 135.205C93.7671 135.205 115.856 135.205 117.396 135.205Z" fill="#37474F"/>
<path d="M117.396 135.205L116.558 146.175L71.1382 147.999L70.1655 135.205C71.7057 135.205 93.7808 135.205 93.7808 135.205C93.7808 135.205 115.856 135.205 117.396 135.205Z" fill="#263238"/>
<path d="M66.936 140.173H120.611V126.338H66.936V140.173Z" fill="#37474F"/>
<path d="M34.6741 217.38C37.3795 218.36 117.409 219.94 120.424 218.098C120.773 217.914 122.083 191.431 122.083 191.431C121.986 191.053 123.324 188.503 125.36 184.954C131.072 174.995 142.223 157.162 142.223 157.162L94.7177 142.801L75.2074 181.89L70.2329 191.858C70.2329 191.858 59.3238 196.125 49.8014 200.372C49.7917 200.382 49.7723 200.382 49.7723 200.401C43.9056 203.01 38.8147 205.405 37.622 206.297C34.5771 208.653 31.9783 216.43 34.6741 217.38Z" fill="#FFC4C0"/>
<path d="M34.6741 217.381C37.3795 218.36 117.409 219.94 120.424 218.098C120.773 217.914 122.083 191.431 122.083 191.431C121.986 191.053 123.324 188.503 125.36 184.954L75.2074 181.88L70.2329 191.848C70.2329 191.848 59.3238 196.115 49.8014 200.362C49.7917 200.372 49.7723 200.372 49.7723 200.391C43.9056 203 38.8147 205.395 37.622 206.287C34.5771 208.653 31.9783 216.43 34.6741 217.381Z" fill="white"/>
<path d="M34.3426 217.68C37.1256 218.669 117.271 220.037 120.355 218.165C121.528 217.457 122.944 205.123 122.081 191.44L70.4153 190.616C70.4153 190.616 40.4904 203.843 37.3292 206.267C34.168 208.681 31.5595 216.691 34.3426 217.68Z" fill="#C479FF"/>
<path opacity="0.1" d="M120.346 218.155C119.221 218.834 107.827 219.096 93.6887 219.096L120.811 191.411L120.821 191.401L122.081 191.431C122.944 205.113 121.529 217.457 120.346 218.155Z" fill="black"/>
<path d="M35.5468 214.492C48.9868 214.395 103.203 215.258 116.497 216.179C116.604 216.189 116.604 216.257 116.497 216.266C103.183 216.654 48.9674 215.345 35.5468 214.715C35.2559 214.705 35.2656 214.492 35.5468 214.492Z" fill="#263238"/>
<path d="M42.529 203.467C45.7193 203.389 48.803 204.96 50.5096 206.89C52.1484 208.742 53.5351 211.331 53.3896 214.114C53.3896 214.192 53.2345 214.192 53.2248 214.114C52.546 208.849 47.843 204.146 42.5193 203.641C42.4223 203.622 42.4223 203.467 42.529 203.467Z" fill="#263238"/>
<path d="M66.1792 191.888C71.5611 191.907 77.7574 193.915 81.0253 198.366C81.1514 198.54 80.9089 198.715 80.7441 198.627C75.9247 196.038 71.338 194.089 66.0726 192.547C65.7041 192.441 65.7914 191.888 66.1792 191.888Z" fill="#263238"/>
<path d="M62 193.43C67.3819 193.449 73.5782 195.457 76.8461 199.908C76.9722 200.082 76.7297 200.257 76.5649 200.169C71.7455 197.58 67.1588 195.631 61.8934 194.089C61.5249 193.983 61.6122 193.43 62 193.43Z" fill="#263238"/>
<path d="M57.8206 194.982C63.2024 195.001 69.3988 197.008 72.6667 201.459C72.7927 201.634 72.5503 201.808 72.3854 201.721C67.5661 199.132 62.9794 197.183 57.7139 195.641C57.3454 195.534 57.4327 194.982 57.8206 194.982Z" fill="#263238"/>
<path d="M53.6412 196.524C59.023 196.543 65.2193 198.55 68.4872 203.001C68.6133 203.176 68.3709 203.35 68.206 203.263C63.3866 200.674 58.7999 198.725 53.5345 197.183C53.166 197.077 53.2533 196.524 53.6412 196.524Z" fill="#263238"/>
<path d="M113.288 203.37C119.32 203.487 119.145 212.864 113.104 212.747C107.073 212.621 107.247 203.244 113.288 203.37Z" fill="#263238"/>
<path d="M60.9044 185.323C63.7456 189.114 68.1189 191.548 71.9008 194.263C72.2886 194.545 72.7541 194.234 72.8705 193.846C72.9577 193.856 73.045 193.808 73.045 193.691C72.822 189.056 71.0474 183.703 68.3905 179.854C66.7517 177.478 63.3577 175.218 60.6038 177.429C58.005 179.524 59.2462 183.112 60.9044 185.323ZM60.7298 180.872C61.3601 175.034 66.5674 179.611 67.702 181.415C68.4292 182.569 69.0402 183.829 69.6026 185.071C70.7856 187.669 71.5808 190.394 72.4923 193.09C70.7177 191.645 68.8268 190.365 67.0038 188.978C64.8317 187.33 60.3808 184.091 60.7298 180.872Z" fill="#263238"/>
<path d="M92.2056 190.598C91.8468 187.078 87.8517 186.254 85.0104 186.748C80.4141 187.553 75.3522 190.045 71.8904 193.139C71.8032 193.216 71.8323 193.313 71.9001 193.362C71.7159 193.72 71.8129 194.263 72.288 194.351C76.8747 195.146 81.6844 196.562 86.3777 195.922C89.1122 195.543 92.545 193.924 92.2056 190.598ZM79.4832 194.128C77.2141 193.788 74.9838 193.352 72.705 193.1C75.265 191.859 77.7668 190.52 80.4528 189.541C81.7329 189.076 83.0613 188.62 84.3995 188.329C86.4747 187.883 93.3983 188.368 89.6747 192.925C87.6286 195.427 82.1886 194.525 79.4832 194.128Z" fill="#263238"/>
<path d="M128.977 184.441L72.6274 175.898C72.6274 175.898 99.7111 121.915 116.487 92.6106C125.806 76.3197 151.318 75.5246 163.721 95.0446C180.293 121.12 193.151 145.546 200.521 159.093L213.301 160.189L210.547 181.076L168.065 190.589C151.793 192.538 140.37 163.563 140.109 164.058C138.034 167.859 128.977 184.441 128.977 184.441Z" fill="#32063D"/>
<path d="M139.798 164.185C141.398 160.907 142.649 157.416 144.074 154.052C145.451 150.793 146.838 147.545 148.205 144.287C150.969 137.703 153.829 131.147 156.515 124.534C158.018 120.82 159.405 117.058 160.811 113.305C160.84 113.218 160.986 113.256 160.957 113.353C159.871 116.903 158.736 120.432 157.553 123.952C157.873 123.341 158.183 122.74 158.513 122.149C159.415 120.529 160.355 118.929 161.286 117.339C161.325 117.281 161.412 117.339 161.383 117.397C160.52 119.007 159.657 120.607 158.755 122.187C158.309 122.973 157.824 123.758 157.349 124.544C154.004 134.386 150.212 144.064 145.665 153.421C143.871 157.097 141.776 160.616 139.982 164.292C139.914 164.408 139.74 164.301 139.798 164.185Z" fill="#6C037D"/>
<path d="M127.716 174.425C130.431 170.236 136.899 157.542 139.217 153.159C143.9 144.287 148.196 135.23 152.249 126.056C154.538 120.869 156.681 115.642 158.804 110.386C158.814 110.347 158.872 110.367 158.863 110.406C155.672 119.87 151.871 129.15 147.74 138.246C143.609 147.351 130.276 171.894 127.881 174.541C127.803 174.629 127.648 174.532 127.716 174.425Z" fill="#6C037D"/>
<path d="M162.703 117.387C167.561 126.057 172.517 134.667 177.394 143.327C179.857 147.7 182.32 152.083 184.764 156.466C185.908 158.532 187.023 160.626 188.216 162.663C189.341 164.592 190.689 166.192 192.667 167.278C194.849 168.481 197.36 169.053 199.736 169.741C202.48 170.546 205.195 171.409 207.949 172.166C208.075 172.204 208.017 172.389 207.891 172.36C205.438 171.7 202.955 171.138 200.492 170.527C198.252 169.974 195.944 169.509 193.772 168.713C191.804 167.996 190.107 166.929 188.788 165.271C187.382 163.497 186.383 161.421 185.297 159.443C180.429 150.541 175.6 141.601 170.82 132.65C168.095 127.56 165.399 122.459 162.645 117.387C162.645 117.387 162.684 117.358 162.703 117.387Z" fill="#32063D"/>
<path d="M130.256 176.538C126.882 175.927 123.42 175.627 120.016 175.19C116.603 174.754 113.19 174.308 109.776 173.862C102.969 172.97 79.7837 169.285 78.0383 168.703C77.9316 168.664 77.9704 168.49 78.0771 168.48C79.7353 168.432 94.9207 170.448 98.3244 170.953C105.132 171.951 111.9 173.164 118.688 174.308C120.627 174.638 122.557 175.006 124.487 175.345C126.416 175.685 128.346 176.102 130.295 176.354C130.412 176.373 130.373 176.558 130.256 176.538Z" fill="#6C037D"/>
<path d="M94.588 229.442C95.6062 226.755 146.641 165.083 149.997 163.997C150.384 163.851 171.291 180.142 171.291 180.142C172.125 181.364 213.512 174.489 213.512 174.489L211.766 223.982L137.129 219.134C137.129 219.134 126.782 224.632 117.337 229.054C117.318 229.054 117.318 229.063 117.308 229.054C111.5 231.798 106.36 234.106 104.915 234.416C101.133 235.221 93.5504 232.108 94.588 229.442Z" fill="#FFC4C0"/>
<path d="M104.915 234.426C106.37 234.116 111.499 231.817 117.308 229.063C117.318 229.073 117.327 229.063 117.347 229.063C126.782 224.632 137.128 219.134 137.128 219.134L153.739 220.21L181.589 179.337C175.829 180.103 171.543 180.52 171.281 180.133C171.281 180.133 150.384 163.842 149.996 163.997C146.651 165.083 95.6158 226.746 94.5879 229.432C93.56 232.108 101.133 235.231 104.915 234.426Z" fill="white"/>
<path d="M94.1407 229.499C95.2074 226.746 146.466 165.121 149.898 164.006C151.198 163.579 161.467 170.552 171.28 180.132L138.194 219.822C138.194 219.822 108.647 233.863 104.74 234.687C100.851 235.502 93.0741 232.253 94.1407 229.499Z" fill="#C479FF"/>
<path d="M97.3403 230.671C106.184 220.547 140.909 178.899 148.88 168.232C148.948 168.145 148.889 168.096 148.812 168.174C139.823 178.016 105.447 219.946 97.1658 230.535C97.0009 230.748 97.1561 230.884 97.3403 230.671Z" fill="#263238"/>
<path d="M110.256 232.571C112.39 230.205 113.223 226.84 112.874 224.29C112.545 221.836 111.478 219.102 109.277 217.395C109.219 217.347 109.122 217.463 109.17 217.521C112.719 221.478 113.214 228.101 110.12 232.464C110.062 232.552 110.179 232.649 110.256 232.571Z" fill="#263238"/>
<path d="M134.46 222.205C137.961 218.123 140.482 212.111 139.241 206.729C139.192 206.516 138.901 206.593 138.862 206.768C137.679 212.111 136.157 216.853 133.898 221.856C133.733 222.205 134.208 222.506 134.46 222.205Z" fill="#263238"/>
<path d="M130.562 224.367C134.063 220.285 136.584 214.272 135.343 208.891C135.294 208.677 135.003 208.755 134.964 208.929C133.781 214.272 132.259 219.014 130 224.018C129.835 224.367 130.31 224.658 130.562 224.367Z" fill="#263238"/>
<path d="M126.664 226.52C130.164 222.438 132.686 216.426 131.444 211.044C131.396 210.84 131.105 210.908 131.066 211.083C129.883 216.426 128.361 221.168 126.101 226.171C125.937 226.521 126.412 226.811 126.664 226.52Z" fill="#263238"/>
<path d="M122.766 228.682C126.266 224.6 128.788 218.588 127.546 213.206C127.498 213.002 127.207 213.07 127.168 213.245C125.985 218.588 124.463 223.329 122.203 228.333C122.039 228.682 122.514 228.973 122.766 228.682Z" fill="#263238"/>
<path d="M156.501 179.015C160.341 174.361 153.127 168.378 149.277 173.042C145.437 177.687 152.652 183.67 156.501 179.015Z" fill="#263238"/>
<path d="M141.781 235.849C145.252 235.2 145.756 231.156 145.029 228.363C143.846 223.845 140.956 219.006 137.582 215.815C137.495 215.738 137.407 215.777 137.359 215.845C136.99 215.689 136.447 215.825 136.409 216.31C135.992 220.945 134.983 225.852 136.001 230.477C136.593 233.183 138.493 236.47 141.781 235.849ZM137.213 223.476C137.359 221.188 137.621 218.928 137.679 216.64C139.124 219.093 140.666 221.469 141.868 224.068C142.44 225.309 143.002 226.589 143.4 227.898C144.021 229.934 144.098 236.868 139.259 233.532C136.593 231.689 137.029 226.201 137.213 223.476Z" fill="#263238"/>
<path d="M144.585 204.266C141.036 207.408 138.97 211.975 136.585 215.971C136.333 216.387 136.692 216.814 137.079 216.911C137.079 216.998 137.128 217.086 137.244 217.066C141.85 216.465 147.038 214.254 150.645 211.297C152.876 209.464 154.854 205.905 152.42 203.335C150.122 200.901 146.66 202.434 144.585 204.266ZM149.016 203.733C154.893 203.888 150.752 209.444 149.055 210.724C147.969 211.549 146.757 212.257 145.564 212.926C143.072 214.322 140.425 215.34 137.807 216.465C139.106 214.574 140.221 212.596 141.453 210.657C142.907 208.349 145.778 203.646 149.016 203.733Z" fill="#263238"/>
<path d="M189.454 161.99C189.454 161.99 253.454 153.399 274.399 159.042C303.616 166.916 306.962 202.01 284.465 215.362C255.956 232.284 157.066 222.858 157.066 222.858L184.673 176.332C184.673 176.332 226.099 168.613 263.238 171.61L188.31 180.88L189.454 161.99Z" fill="#32063D"/>
<path d="M182.764 179.454C182.803 179.395 182.813 179.269 182.832 179.202C182.851 179.134 182.871 179.066 182.89 178.998C182.929 178.843 182.977 178.678 183.026 178.523C183.123 178.193 183.249 177.883 183.375 177.563C183.501 177.243 183.646 176.942 183.792 176.632C183.947 176.312 184.141 176.06 184.325 175.779C184.345 175.749 184.374 175.749 184.403 175.73C184.422 175.72 184.432 175.711 184.451 175.691C184.471 175.682 184.49 175.662 184.519 175.662C184.539 175.652 184.558 175.643 184.587 175.633C189.135 174.906 220 171.405 224.577 171.037C229.193 170.659 233.828 170.387 238.454 170.164C247.685 169.718 256.946 169.699 266.158 170.271C267.021 170.329 267.884 170.397 268.747 170.474C268.931 170.416 269.135 170.387 269.319 170.348C269.765 170.251 270.211 170.145 270.667 170.077C271.511 169.941 272.354 169.844 273.198 169.737C274.953 169.524 276.718 169.388 278.463 169.107C278.57 169.088 278.599 169.272 278.493 169.291C276.728 169.64 274.992 170.125 273.227 170.465C272.723 170.562 272.209 170.659 271.695 170.755C275.07 171.095 278.434 171.531 281.799 172.016C281.906 172.036 281.896 172.21 281.79 172.2C277.213 171.706 272.577 171.463 267.981 171.347C263.404 171.231 258.837 171.143 254.26 171.231C245.009 171.415 235.748 171.919 226.507 172.579C221.319 172.947 189.853 176.612 184.665 176.622C184.645 176.622 184.626 176.612 184.597 176.612C184.548 176.739 184.5 176.874 184.442 177C184.286 177.301 184.131 177.602 183.966 177.902C183.802 178.183 183.646 178.474 183.462 178.746C183.375 178.882 183.278 179.017 183.191 179.143C183.142 179.211 183.103 179.279 183.055 179.347C183.016 179.405 182.929 179.492 182.91 179.56C182.871 179.657 182.696 179.57 182.764 179.454Z" fill="#6C037D"/>
<path d="M171.253 219.948C172.882 217.272 174.298 214.402 175.811 211.638C177.324 208.865 178.836 206.091 180.349 203.318C183.374 197.791 194.167 179.211 195.214 177.931C195.282 177.854 195.408 177.951 195.37 178.048C194.836 179.502 188.068 191.808 186.507 194.552C183.394 200.04 180.145 205.413 176.936 210.823C176.014 212.365 175.074 213.897 174.143 215.43C173.222 216.962 172.233 218.474 171.379 220.055C171.331 220.142 171.195 220.045 171.253 219.948Z" fill="#6C037D"/>
<path d="M196.892 183.022C199.646 182.421 202.449 182.072 205.232 181.626C208.015 181.17 210.798 180.724 213.581 180.278C219.147 179.395 224.723 178.552 230.298 177.766C241.421 176.205 252.582 174.983 263.772 174.295C270.095 173.907 276.417 173.742 282.74 173.509C282.875 173.509 282.856 173.742 282.72 173.742C271.472 173.81 260.194 174.993 249.004 176.273C237.92 177.533 226.866 178.969 215.811 180.53C212.689 180.966 209.576 181.422 206.453 181.878C203.292 182.343 200.112 182.944 196.931 183.245C196.815 183.235 196.766 183.051 196.892 183.022Z" fill="#6C037D"/>
<path d="M196.886 102.915C190.757 113.611 166.35 146.609 158.67 147.705C150.68 148.849 121.22 146.318 115.848 139.996C113.22 136.903 117.458 110.343 121.54 111.826C125.623 113.31 150.825 119.4 154.064 118.924C157.283 118.459 183.417 93.1596 193.046 87.7099C209.647 78.2942 200.192 97.1548 196.886 102.915Z" fill="#FFC4C0"/>
<path d="M128.027 112.661L121.811 145.572C121.811 145.572 151.319 151.623 160.017 149.073C168.725 146.523 193.035 111.953 200.124 98.2802C207.212 84.6075 201.016 81.0196 188.293 89.5336C175.571 98.0475 155.149 117.151 153.171 117.238C151.193 117.306 128.027 112.661 128.027 112.661Z" fill="#E478E5"/>
<path d="M191.386 92.0646C190.698 92.7822 190.048 93.5676 189.631 94.5664C190.63 94.1495 191.415 93.5095 192.133 92.8113C192.822 92.0937 193.471 91.3082 193.888 90.3094C192.889 90.7361 192.114 91.3761 191.386 92.0646ZM127.726 142.217C126.717 142.237 125.719 142.334 124.72 142.741C125.719 143.158 126.717 143.255 127.726 143.274C128.725 143.255 129.723 143.158 130.732 142.741C129.723 142.334 128.725 142.237 127.726 142.217ZM175.949 132.385C174.94 132.404 173.942 132.501 172.933 132.908C173.942 133.325 174.94 133.422 175.949 133.442C176.075 133.442 176.22 133.432 176.346 133.432C176.599 133.112 176.86 132.792 177.122 132.462C176.715 132.414 176.337 132.394 175.949 132.385ZM154.945 140.268C154.528 141.267 154.441 142.276 154.422 143.274C154.441 144.273 154.528 145.282 154.945 146.28C155.362 145.282 155.449 144.273 155.479 143.274C155.459 142.276 155.362 141.267 154.945 140.268ZM179.663 108.103C179.246 109.102 179.149 110.101 179.139 111.109C179.159 112.108 179.246 113.117 179.663 114.116C180.08 113.117 180.167 112.108 180.186 111.109C180.186 110.101 180.08 109.102 179.663 108.103ZM191.386 92.0646C190.698 92.7822 190.048 93.5676 189.631 94.5664C190.63 94.1495 191.415 93.5095 192.133 92.8113C192.822 92.0937 193.471 91.3082 193.888 90.3094C192.889 90.7361 192.114 91.3761 191.386 92.0646ZM159.648 119.187C158.96 119.905 158.31 120.68 157.893 121.689C158.892 121.262 159.677 120.632 160.395 119.924C161.083 119.206 161.733 118.431 162.15 117.422C161.151 117.849 160.366 118.489 159.648 119.187ZM129.859 113.029H129.849C129.762 113.107 129.675 113.194 129.578 113.282C128.889 113.999 128.24 114.775 127.823 115.783C128.822 115.366 129.597 114.726 130.325 114.019C130.557 113.776 130.79 113.524 131.003 113.252C130.586 113.175 130.199 113.097 129.859 113.029ZM141.738 129.32C141.02 128.632 140.245 127.982 139.236 127.565C139.653 128.564 140.293 129.349 141.001 130.067C141.719 130.756 142.494 131.405 143.493 131.822C143.076 130.823 142.426 130.048 141.738 129.32ZM175.949 132.385C174.94 132.404 173.942 132.501 172.933 132.908C173.942 133.325 174.94 133.422 175.949 133.442C176.075 133.442 176.22 133.432 176.346 133.432C176.599 133.112 176.86 132.792 177.122 132.462C176.715 132.414 176.337 132.394 175.949 132.385ZM179.663 108.103C179.246 109.102 179.149 110.101 179.139 111.109C179.159 112.108 179.246 113.117 179.663 114.116C180.08 113.117 180.167 112.108 180.186 111.109C180.186 110.101 180.08 109.102 179.663 108.103Z" fill="white"/>
<path d="M133.361 130.61C133.865 128.001 135.795 117.568 136.076 114.949C136.076 114.911 136.018 114.881 135.998 114.93C135.242 117.383 133.031 127.623 132.517 130.232C131.508 135.429 130.384 140.637 129.947 145.931C129.938 146.028 130.083 146.077 130.112 145.98C131.547 140.928 132.372 135.74 133.361 130.61Z" fill="#263238"/>
<path opacity="0.1" d="M200.134 98.2713C193.035 111.954 168.735 146.523 160.027 149.064C153.433 150.994 134.922 147.997 126.32 146.426L199.707 84.967C203.828 85.2676 204.488 89.864 200.134 98.2713Z" fill="black"/>
<path d="M174.408 163.521L246.961 167.73C246.873 166.246 235.518 124.636 227.363 108.791C216.9 88.4763 212.255 85.3732 209.152 84.3357C205.176 83.0072 197.021 83.0169 194.616 86.8472C181.652 107.57 173.419 162.6 174.408 163.521Z" fill="#E478E5"/>
<path d="M192.095 91.4341C191.707 92.2099 191.329 92.9953 190.961 93.8293C191.387 93.519 191.775 93.1796 192.144 92.8208C192.832 92.1032 193.482 91.3178 193.899 90.319C193.21 90.6002 192.629 90.9881 192.095 91.4341ZM213.933 158.654C213.244 159.371 212.595 160.147 212.178 161.155C213.176 160.738 213.962 160.098 214.679 159.4C215.368 158.663 216.018 157.897 216.435 156.898C215.446 157.325 214.66 157.965 213.933 158.654ZM192.095 91.4341C191.707 92.2099 191.329 92.9953 190.961 93.8293C191.387 93.519 191.775 93.1796 192.144 92.8208C192.832 92.1032 193.482 91.3178 193.899 90.319C193.21 90.6002 192.629 90.9881 192.095 91.4341ZM234.713 126.877H234.704C234.529 126.78 234.335 126.683 234.141 126.595C234.423 127.264 234.801 127.837 235.227 128.36C235.063 127.866 234.878 127.361 234.713 126.877ZM218.762 93.2765C218.471 92.9953 218.19 92.7335 217.87 92.4814L217.86 92.4717C217.385 92.1032 216.871 91.7735 216.27 91.5214C216.687 92.5202 217.327 93.3056 218.025 94.0232C218.568 94.5469 219.15 95.0414 219.838 95.4293C220.052 95.5553 220.284 95.6814 220.527 95.7784C220.1 94.7796 219.47 93.9941 218.762 93.2765ZM199.106 127.197C198.389 126.508 197.613 125.858 196.604 125.441C197.031 126.44 197.661 127.226 198.369 127.943C199.087 128.632 199.863 129.281 200.871 129.698C200.444 128.7 199.804 127.924 199.106 127.197ZM217.317 137.243C216.318 137.262 215.31 137.359 214.311 137.776C215.31 138.183 216.318 138.28 217.317 138.3C218.326 138.28 219.324 138.183 220.323 137.776C219.334 137.359 218.326 137.262 217.317 137.243ZM199.62 105.427C198.612 105.446 197.613 105.543 196.614 105.96C197.613 106.367 198.612 106.464 199.62 106.484C200.619 106.464 201.618 106.377 202.626 105.96C201.618 105.543 200.619 105.446 199.62 105.427ZM191.766 148.763C191.349 149.761 191.252 150.76 191.232 151.769C191.261 152.767 191.349 153.766 191.766 154.775C192.182 153.766 192.27 152.767 192.289 151.769C192.27 150.76 192.182 149.761 191.766 148.763ZM233.278 145.747C232.861 146.755 232.764 147.754 232.745 148.763C232.764 149.761 232.861 150.76 233.278 151.769C233.686 150.76 233.783 149.761 233.802 148.763C233.783 147.754 233.686 146.755 233.278 145.747ZM218.403 113.301C217.986 114.3 217.889 115.298 217.87 116.307C217.889 117.306 217.986 118.304 218.403 119.313C218.81 118.304 218.907 117.306 218.927 116.307C218.907 115.298 218.81 114.3 218.403 113.301Z" fill="white"/>
<path d="M221.253 93.5865C239.59 116.132 259.614 153.562 249.81 160.806C240.85 167.419 209.868 159.022 190.581 150.275C186.906 148.607 203.885 116.248 207.599 118.42C214.125 122.241 219.274 124.53 219.769 124.694C220.836 125.043 215.299 117.499 209.626 99.7538C203.876 81.7271 210.78 80.6992 221.253 93.5865Z" fill="#FFC4C0"/>
<path d="M159.861 113.398C159.638 117.248 169.19 117.005 169.19 117.005C169.19 117.005 166.843 118.276 166.086 120.729C165.214 123.531 169.228 126.12 169.228 126.12C169.228 126.12 167.124 127.905 166.581 130.571C166.019 133.335 169.694 136.535 169.694 136.535C169.694 136.535 168.646 139.269 169.83 141.907C171.856 146.416 179.449 146.92 184.094 148.152C189.068 149.471 196.273 152.39 199.231 153.873L209.8 119.701C209.8 119.701 190.086 106.533 184.375 106.494C179.575 106.465 160.2 107.502 159.861 113.398Z" fill="#FFC4C0"/>
<path d="M169.268 116.899C174.388 115.707 179.78 115.736 184.977 115.823C185.094 115.823 185.084 116.007 184.968 116.007C179.789 115.862 174.456 117.093 169.288 117.151C169.152 117.142 169.132 116.928 169.268 116.899Z" fill="#263238"/>
<path d="M169.394 125.733C170.558 125.5 171.799 125.646 172.972 125.723C174.243 125.811 175.503 125.917 176.764 126.043C179.295 126.296 181.816 126.606 184.328 126.994C184.434 127.013 184.444 127.188 184.318 127.178C181.797 126.936 179.275 126.722 176.745 126.577C175.484 126.509 174.214 126.451 172.943 126.392C171.77 126.344 170.519 126.393 169.375 126.082C169.21 126.034 169.22 125.772 169.394 125.733Z" fill="#263238"/>
<path d="M169.811 136.536C170.819 136.294 172.022 136.575 173.04 136.701C174.194 136.837 175.338 136.973 176.492 137.099C178.79 137.351 181.098 137.603 183.406 137.778C183.522 137.787 183.513 137.962 183.396 137.962C181.05 137.797 178.703 137.671 176.356 137.487C175.202 137.399 174.048 137.302 172.904 137.196C171.925 137.109 170.693 137.109 169.801 136.662C169.743 136.624 169.762 136.546 169.811 136.536Z" fill="#263238"/>
<path d="M210.742 119.35L201.258 156.218C201.258 156.218 247.26 170.87 252.72 159.331C258.189 147.782 233.093 102.507 217.947 89.1541C202.8 75.811 207.677 95.8256 208.075 97.4256C209.84 104.533 218.81 123.317 218.81 123.317L210.742 119.35Z" fill="#E478E5"/>
<path d="M218.402 113.299C217.985 114.298 217.889 115.297 217.869 116.305C217.889 117.304 217.985 118.303 218.402 119.312C218.81 118.303 218.907 117.304 218.926 116.305C218.907 115.297 218.81 114.298 218.402 113.299ZM233.278 145.745C232.861 146.754 232.764 147.753 232.744 148.761C232.764 149.76 232.861 150.759 233.278 151.767C233.685 150.759 233.782 149.76 233.801 148.761C233.782 147.753 233.685 146.754 233.278 145.745ZM217.316 137.241C216.318 137.261 215.309 137.358 214.31 137.775C215.309 138.182 216.318 138.279 217.316 138.298C218.325 138.279 219.324 138.182 220.322 137.775C219.333 137.358 218.325 137.261 217.316 137.241ZM218.761 93.2752C218.044 92.5867 217.268 91.937 216.269 91.52C216.686 92.5188 217.326 93.3043 218.024 94.0219C218.742 94.7103 219.527 95.36 220.526 95.777C220.099 94.7782 219.469 93.9927 218.761 93.2752ZM250.626 156.529C249.908 155.84 249.132 155.19 248.133 154.773C248.55 155.772 249.19 156.558 249.889 157.275C250.606 157.964 251.392 158.613 252.39 159.03C251.964 158.032 251.333 157.246 250.626 156.529ZM236.642 128.349C235.925 127.661 235.139 127.011 234.141 126.594C234.558 127.593 235.198 128.378 235.896 129.096C236.613 129.784 237.399 130.434 238.398 130.851C237.981 129.852 237.331 129.076 236.642 128.349ZM213.932 158.652C213.661 158.943 213.399 159.224 213.147 159.535C213.515 159.622 213.864 159.709 214.242 159.806C214.388 159.68 214.543 159.544 214.679 159.409C215.367 158.672 216.017 157.905 216.434 156.907C215.445 157.324 214.659 157.964 213.932 158.652Z" fill="white"/>
<path d="M211.545 119.418C216.801 121.591 230.464 129.338 233.392 132.374C233.479 132.461 233.373 132.606 233.276 132.529C230.357 130.23 213.455 120.815 210.798 119.632C210.798 119.632 210.653 119.961 210.585 120.039C210.488 120.165 210.42 120.087 210.43 119.961C210.439 119.874 210.643 119.108 210.682 119.06C210.682 119.069 210.973 119.186 211.545 119.418Z" fill="#32063D"/>
<path d="M214.427 140.48C215.067 137.91 217.569 127.593 217.996 124.984C218.005 124.945 217.937 124.916 217.918 124.965C217.026 127.37 214.262 137.474 213.612 140.053C212.313 145.193 210.907 150.332 210.189 155.588C210.18 155.685 210.325 155.743 210.354 155.636C212.042 150.691 213.157 145.552 214.427 140.48Z" fill="#32063D"/>
<path d="M219.169 123.55C217.87 120.301 216.251 117.179 214.815 113.998C213.38 110.827 211.877 107.666 210.549 104.447C210.529 104.408 210.461 104.437 210.471 104.476C211.266 106.668 212.061 108.849 212.915 111.012C212.643 110.663 212.381 110.304 212.129 109.935C211.674 109.276 211.247 108.587 210.84 107.889C210.811 107.841 210.752 107.88 210.772 107.928C211.082 108.704 211.48 109.421 211.955 110.11C212.304 110.624 212.711 111.089 213.128 111.545C213.487 112.427 213.846 113.3 214.234 114.173C215.659 117.392 216.726 120.573 218.626 123.54C218.694 123.628 219.218 123.657 219.169 123.55Z" fill="#32063D"/>
<path d="M245.874 163.181C236.371 164.519 206.514 157.595 201.424 156.267C201.52 155.724 201.511 155.53 201.637 154.764C201.656 154.667 201.501 154.609 201.472 154.715C201.288 155.443 200.725 156.868 200.919 156.955C203.334 158.061 236.594 165.644 245.855 163.404C246.01 163.375 246.02 163.161 245.874 163.181Z" fill="#32063D"/>
<path d="M172.158 149.121L133.303 153.514L119.746 99.3467L158.602 94.954L172.158 149.121Z" fill="#37474F"/>
<path d="M170.248 149.334L131.392 153.727L117.845 99.5598L156.701 95.1768L170.248 149.334Z" fill="#455A64"/>
<path d="M138.675 122.619C139.092 124.685 141.129 126.168 143.214 125.936C145.298 125.703 146.656 123.831 146.239 121.766C145.822 119.7 143.786 118.217 141.701 118.449C139.606 118.682 138.249 120.554 138.675 122.619Z" fill="#37474F"/>
<path d="M117.99 110.673C116.283 115.172 111.532 120.971 111.396 124.54C111.27 127.769 114.014 128.68 114.014 128.68C114.014 128.68 110.62 130.726 111.027 133.985C111.241 135.662 114.101 136.806 114.101 136.806C114.101 136.806 111.454 138.562 111.997 141.442C112.424 143.74 115.236 144.535 115.236 144.535C115.236 144.535 113.481 147.405 114.673 149.597C117.088 154.057 137.064 152.448 139.556 144.845C140.719 141.296 135.861 141.956 135.861 141.956C135.861 141.956 142.62 139.328 142.397 135.197C142.174 131.066 135.91 132.307 135.91 132.307C135.91 132.307 142.436 129.699 141.776 125.442C141.088 121.01 135.037 123.318 135.037 123.318C135.037 123.318 139.236 119.953 137.985 116.811C135.91 111.623 128.036 118.983 123.566 118.295L120.559 111.245L117.99 110.673Z" fill="#FFC4C0"/>
<path d="M114.488 117.286C115.739 112.884 110.018 108.035 110.61 103.652C111.405 97.7275 118.416 102.915 120.549 111.245L121.073 118.014L114.488 117.286Z" fill="#FFC4C0"/>
<path d="M115.663 144.729C115.595 144.729 115.585 144.826 115.653 144.836C122.354 145.912 130.043 145.039 136.133 141.956C136.337 141.859 136.259 141.49 136.017 141.558C129.132 143.527 122.858 144.729 115.663 144.729Z" fill="#263238"/>
<path d="M114.004 136.855C113.927 136.855 113.927 136.981 114.004 137C120.918 138.067 129.549 136.845 136.152 132.472C136.375 132.326 136.434 131.958 136.162 132.113C131.556 134.692 120.482 136.894 114.004 136.855Z" fill="#263238"/>
<path d="M135.415 122.852C128.918 126.799 121.81 128.273 114.295 128.738C114.198 128.748 114.217 128.884 114.295 128.903C118.038 129.679 122.799 128.884 126.445 127.953C129.946 127.061 132.923 125.558 135.55 123.085C135.647 122.988 135.55 122.765 135.415 122.852Z" fill="#263238"/>
<path d="M198.709 98.8804C202.956 99.0355 208.687 91.4719 210.452 85.9058C210.568 85.5277 209.327 81.998 208.018 77.644C207.233 74.9968 206.428 72.0392 205.885 69.2755C205.778 68.7131 189.419 76.8877 189.419 76.8877C189.419 76.8877 192.26 82.3374 193.182 87.1471C193.249 87.5544 193.288 87.9325 193.288 88.301C193.288 88.3495 193.288 88.4174 193.298 88.4949C193.356 90.7253 194.607 98.7252 198.709 98.8804Z" fill="#FFC4C0"/>
<path d="M204.828 69.5673C204.944 74.3867 204.265 86.2266 195.082 88.2533C194.442 88.3988 193.851 88.4764 193.298 88.5054C193.279 88.4279 193.288 88.3697 193.279 88.3115C193.279 87.943 193.249 87.5648 193.182 87.1575C192.26 82.3382 189.419 76.8885 189.419 76.8885C189.419 76.8885 201.211 70.9927 204.828 69.5673Z" fill="#263238"/>
<path d="M208.822 51.1413C210.597 57.4346 206.912 75.4128 202.384 79.3498C195.819 85.0516 185.249 85.3813 180.459 77.5365C175.814 69.9243 181.021 46.574 186.064 43.0153C193.501 37.7789 206.204 41.8419 208.822 51.1413Z" fill="#FFC4C0"/>
<path d="M190.911 61.7911C190.93 61.7523 190.988 61.8687 190.979 61.9172C190.649 63.1099 190.484 64.5354 191.473 65.1948C191.502 65.2141 191.483 65.2723 191.444 65.2626C190.164 64.7584 190.407 62.8772 190.911 61.7911Z" fill="#263238"/>
<path d="M192.287 60.7918C194.256 61.1118 193.48 65.0197 191.657 64.7288C189.853 64.4476 190.639 60.53 192.287 60.7918Z" fill="#263238"/>
<path d="M184.114 60.4819C184.114 60.4334 184.008 60.5206 183.998 60.5691C183.794 61.7909 183.358 63.1582 182.185 63.3424C182.146 63.3521 182.136 63.4103 182.185 63.4103C183.562 63.4879 184.124 61.6746 184.114 60.4819Z" fill="#263238"/>
<path d="M183.28 58.9975C181.36 58.4642 180.429 62.343 182.213 62.8375C183.969 63.3321 184.89 59.4533 183.28 58.9975Z" fill="#263238"/>
<path d="M194.18 58.6088C193.676 58.3664 193.239 58.0657 192.764 57.7845C192.221 57.4645 191.765 57.2609 191.484 56.6694C191.339 56.3494 191.513 55.8646 191.814 55.69C192.502 55.2827 193.259 55.5155 193.928 55.8743C194.645 56.2718 195.101 56.7567 195.412 57.513C195.712 58.2597 194.849 58.9288 194.18 58.6088Z" fill="#9C5521"/>
<path d="M181.845 56.68C182.398 56.7382 182.931 56.7091 183.484 56.7091C184.114 56.7188 184.609 56.7867 185.162 56.4182C185.452 56.2242 185.549 55.72 185.394 55.4097C185.016 54.7018 184.25 54.5079 183.494 54.4691C182.669 54.4303 182.029 54.6048 181.37 55.0994C180.72 55.5745 181.108 56.6024 181.845 56.68Z" fill="#9C5521"/>
<path d="M191.184 73.1254C190.932 73.4551 190.709 73.9011 190.273 73.9981C189.856 74.1048 189.322 73.9884 188.915 73.8915C188.876 73.8818 188.837 73.9303 188.876 73.9594C189.264 74.3763 189.982 74.5703 190.534 74.3763C191.068 74.1921 191.271 73.6684 191.33 73.1448C191.32 73.0866 191.223 73.0769 191.184 73.1254Z" fill="#263238"/>
<path d="M190.146 69.5877C189.254 70.5089 188.149 70.8871 187.024 70.8774C186.52 70.8774 186.015 70.7901 185.521 70.6544C185.424 70.635 185.327 70.6059 185.24 70.5671C185.152 70.538 185.075 70.5089 184.978 70.4701C184.842 70.4217 184.784 70.2859 184.784 70.1501V70.1404C184.794 70.092 184.803 70.0629 184.823 70.0144C184.823 70.0144 184.823 70.0144 184.823 70.0047L184.842 69.898C184.997 68.9574 185.375 67.561 185.375 67.561C184.997 67.6677 183.106 68.1041 183.232 67.6192C184.28 63.6241 185.434 59.1926 187.315 55.4398C187.373 55.3138 187.567 55.3816 187.528 55.5174C186.675 59.3962 185.152 63.0907 184.241 66.9695C184.842 66.8725 185.821 66.6592 186.306 66.7659C186.432 66.8338 185.54 69.4616 185.501 69.8883C185.501 69.8883 185.501 69.9077 185.501 69.9368C187.034 70.4508 188.304 70.2083 190.04 69.4616C190.156 69.4035 190.243 69.5004 190.146 69.5877Z" fill="#263238"/>
<path d="M186.539 70.7502C186.539 70.7502 187.266 71.8556 188.323 72.292C188.711 72.4568 189.137 72.5344 189.593 72.4374C190.524 72.2435 190.592 71.3999 190.466 70.6726C190.359 70.0714 190.117 69.5477 190.117 69.5477C190.117 69.5477 188.701 70.7308 186.539 70.7502Z" fill="#263238"/>
<path d="M188.323 72.2921C188.71 72.457 189.137 72.5346 189.593 72.4376C190.524 72.2436 190.592 71.4 190.466 70.6727C189.467 70.7212 188.458 71.3418 188.323 72.2921Z" fill="#FF9BBC"/>
<path d="M209.531 65.2115C204.76 65.4442 202.384 59.7133 203.606 55.1557C203.606 55.1557 190.893 56.5715 190.505 46.38C190.505 46.38 187.926 50.7436 182.166 50.7727L180.673 54.4963C179.383 54.0891 178.074 50.3654 181.313 47.5339C181.313 47.5339 181.642 42.4624 185.444 39.5048C189.245 36.5375 192.92 38.6224 192.92 38.6224C192.92 38.6224 195.945 36.2078 200.6 36.8963C205.254 37.5945 207.087 41.8903 207.087 41.8903C207.087 41.8903 213.342 43.2188 214.311 47.7084C215.291 52.1884 212.915 55.1363 212.915 55.1363C212.915 55.1363 214.457 56.9206 213.574 60.7121C213.022 63.146 210.966 65.1436 209.531 65.2115Z" fill="#9C5521"/>
<path d="M190.806 45.4875C190.709 46.3118 190.651 47.1457 190.729 47.97C190.758 48.7942 190.913 49.6088 191.136 50.3845C191.611 51.9361 192.6 53.3033 193.996 54.0985C195.344 55.0003 197.032 55.1748 198.641 55.3688C199.466 55.3591 200.29 55.4075 201.114 55.3591C201.938 55.2912 202.772 55.2039 203.606 55.1554C202.792 55.3397 201.967 55.4754 201.143 55.6403C200.309 55.7566 199.465 55.7566 198.622 55.8148C196.954 55.7081 195.189 55.5336 193.686 54.593C192.193 53.6912 191.107 52.1688 190.699 50.5009C190.292 48.8427 190.36 47.0972 190.806 45.4875Z" fill="#9C5521"/>
<path d="M184.144 51.2284C185.569 50.7435 186.898 50.1229 188.033 49.2405C188.614 48.8138 189.099 48.2902 189.545 47.7277C190.011 47.1653 190.311 46.4962 190.651 45.8271C190.544 46.5641 190.34 47.3302 189.923 47.9799C189.536 48.649 189.012 49.2405 188.391 49.7059C187.771 50.1714 187.092 50.5496 186.374 50.8017C185.657 51.0538 184.9 51.2284 184.144 51.2284Z" fill="#9C5521"/>
<path d="M204.652 65.7754C204.652 65.7754 208.977 60.1124 211.556 61.6736C214.145 63.2348 210.722 71.5645 207.571 72.6021C204.419 73.63 203.401 70.7306 203.401 70.7306L204.652 65.7754Z" fill="#FFC4C0"/>
<path d="M210.518 64.0304C210.566 64.0304 210.576 64.0983 210.527 64.1177C208.307 64.9128 207.085 66.8813 206.193 68.9468C206.871 68.171 207.773 67.7637 208.821 68.5783C208.879 68.6171 208.821 68.7043 208.753 68.6946C207.87 68.4716 207.221 68.5977 206.581 69.2862C206.134 69.771 205.814 70.4013 205.485 70.9734C205.378 71.1674 205.029 71.0413 205.107 70.828C205.116 70.8086 205.116 70.7989 205.126 70.7795C205.204 67.9868 207.521 64.1855 210.518 64.0304Z" fill="#263238"/>
<g opacity="0.2">
<path d="M197.786 67.453C197.796 67.6081 197.932 67.7342 198.087 67.7245C198.242 67.7148 198.368 67.579 198.359 67.4239C198.349 67.2687 198.213 67.1427 198.058 67.1524C197.903 67.1621 197.777 67.2978 197.786 67.453Z" fill="black"/>
<path d="M191.735 67.4326C191.744 67.5877 191.88 67.7138 192.035 67.7041C192.19 67.6944 192.316 67.5587 192.307 67.4035C192.297 67.2484 192.161 67.1223 192.006 67.132C191.851 67.1417 191.725 67.2774 191.735 67.4326Z" fill="black"/>
<path d="M193.956 69.4598C193.966 69.615 194.102 69.741 194.257 69.7313C194.412 69.7216 194.538 69.5859 194.528 69.4307C194.519 69.2756 194.383 69.1495 194.228 69.1592C194.073 69.1689 193.947 69.3047 193.956 69.4598Z" fill="black"/>
<path d="M197.525 65.0766C197.535 65.2318 197.671 65.3579 197.826 65.3482C197.981 65.3385 198.107 65.2027 198.098 65.0476C198.088 64.8924 197.952 64.7663 197.797 64.776C197.642 64.7857 197.516 64.9215 197.525 65.0766Z" fill="black"/>
<path d="M194.741 66.8321C194.751 66.9873 194.887 67.1133 195.042 67.1036C195.197 67.094 195.323 66.9582 195.314 66.803C195.304 66.6479 195.168 66.5218 195.013 66.5315C194.858 66.5315 194.732 66.6673 194.741 66.8321Z" fill="black"/>
<path d="M179.712 63.2927C179.721 63.4479 179.857 63.5739 180.012 63.5642C180.167 63.5545 180.294 63.4188 180.284 63.2636C180.274 63.1085 180.138 62.9824 179.983 62.9921C179.828 63.0018 179.702 63.1376 179.712 63.2927Z" fill="black"/>
<path d="M182.028 64.8348C182.038 64.99 182.174 65.116 182.329 65.1063C182.484 65.0966 182.61 64.9609 182.6 64.8057C182.591 64.6506 182.455 64.5245 182.3 64.5342C182.145 64.5439 182.019 64.6797 182.028 64.8348Z" fill="black"/>
<path d="M181.534 66.7641C181.543 66.9193 181.679 67.0454 181.834 67.0357C181.989 67.026 182.116 66.8902 182.106 66.7351C182.096 66.5799 181.96 66.4538 181.805 66.4635C181.65 66.4732 181.524 66.5993 181.534 66.7641Z" fill="black"/>
<path d="M179.517 65.5223C179.527 65.6775 179.663 65.8035 179.818 65.7938C179.973 65.7841 180.099 65.6484 180.089 65.4932C180.08 65.3381 179.944 65.212 179.789 65.2217C179.634 65.2314 179.508 65.3672 179.517 65.5223Z" fill="black"/>
</g>
<path d="M267.802 24.1236C267.802 37.3309 257.087 48.0558 243.87 48.0558C238.527 48.0558 233.601 46.3006 229.615 43.3334L217.892 46.3297L222.769 35.4109C220.956 32.0461 219.938 28.1964 219.938 24.1236C219.938 10.9164 230.653 0.191528 243.87 0.191528C257.087 0.201225 267.802 10.9164 267.802 24.1236Z" fill="white"/>
<path d="M267.803 24.1235C267.968 37.9611 255.556 49.3841 241.796 48.1914C237.354 47.8617 233.02 46.252 229.413 43.6144L229.704 43.6726L217.999 46.7465L217.146 46.9696L217.505 46.155L222.344 35.2265L222.363 35.6338C216.855 25.8302 219.531 12.5841 228.23 5.55382C243.978 -7.40133 267.745 3.75018 267.803 24.1235ZM267.803 24.1235C267.881 8.83139 252.908 -2.85346 238.121 1.19988C227.59 3.76957 219.861 14.1938 220.424 25.0059C220.569 28.555 221.519 32.0653 223.178 35.1975L223.284 35.4011L223.187 35.6047L218.271 46.5041L217.776 45.9223L229.519 43.0035L229.684 42.9647C234.019 46.3005 239.594 48.1235 245.093 47.7938C257.563 47.4932 267.89 36.5356 267.803 24.1235Z" fill="#263238"/>
<path d="M243.18 10.982C239.602 14.5601 239.602 20.3589 243.18 23.9371C246.759 27.5153 252.557 27.5153 256.136 23.9371C259.714 20.3589 259.714 14.5698 256.136 10.982C252.557 7.40377 246.768 7.39407 243.18 10.982ZM254.274 15.268C253.605 15.9371 252.528 15.9371 251.85 15.2583C251.18 14.5892 251.18 13.5129 251.85 12.8438C252.519 12.1747 253.605 12.1747 254.274 12.8341C254.953 13.5129 254.953 14.5989 254.274 15.268Z" fill="#F0A4E7"/>
<path d="M241.925 19.2508L239.971 21.205L245.916 27.1497L247.87 25.1956L241.925 19.2508Z" fill="#F0A4E7"/>
<path d="M240.922 22.1425L244.956 26.1764L243.967 27.1655L242.299 26.6515L242.813 28.3194L241.174 29.9582L238.963 29.4927L239.419 31.7134L239.05 32.0819L237.382 31.5679L237.896 33.2358L236.228 32.7219L236.742 34.3897L235.443 35.6794L233.232 35.2237L233.688 37.4346L232.553 38.5691L228.063 39.0249L228.519 34.5449L240.922 22.1425Z" fill="#EBEBEB"/>
<path d="M242.125 24.4492L230.572 36.0028L230.853 36.2839L242.406 24.7303L242.125 24.4492Z" fill="#DBDBDB"/>
<g opacity="0.1">
<path d="M257.62 17.4588C257.707 24.5182 248.893 28.2321 243.88 23.2382C240.689 20.2224 240.68 14.6951 243.88 11.6794C248.903 6.68545 257.717 10.3897 257.62 17.4588ZM257.62 17.4588C257.659 10.4964 248.99 6.97635 244.17 11.98C241.203 14.8794 241.203 20.0479 244.17 22.9473C248.99 27.9412 257.659 24.4212 257.62 17.4588Z" fill="black"/>
</g>
</svg>
