<svg className="w-full" viewBox="0 0 395 215" fill="none" xmlns="http://www.w3.org/2000/svg">
        <mask id="mask0_405_4850" maskUnits="userSpaceOnUse" x="0" y="42" width="395" height="160">
            <path d="M0 58C0 49.1634 7.16344 42 16 42H379C387.837 42 395 49.1634 395 58V202H0V58Z" fill="white"/>
        </mask>
        <g mask="url(#mask0_405_4850)">
            <rect y="32.3032" width="396" height="190.061" fill="#EBEEF2"/>
            <path d="M15.2745 79.6957C13.2415 93.1803 1.2609 103.528 -13.2017 103.528C-29.101 103.528 -42 91.0289 -42 75.6023C-42 60.1847 -29.101 47.6852 -13.2017 47.6852V75.6023L15.2745 79.6957Z" fill="#F6F8F9"/>
            <path d="M21.4507 69.9166C21.4507 71.3099 21.3425 72.6742 21.1374 74.01L-7.33789 69.9166V42C3.34203 42 12.6746 47.6476 17.6493 56.0333C20.0731 60.1268 21.4511 64.8748 21.4511 69.9162L21.4507 69.9166Z" fill="#F6F8F9"/>
            <path d="M218.644 161.613C219.345 162.708 219.309 164.079 218.62 165.174C218.43 165.474 218.252 165.773 218.085 166.084C217.907 166.395 217.753 166.718 217.598 167.029C217.028 168.193 215.887 168.976 214.568 169.011L210.053 169.149L210.516 183.426L215.032 183.288C216.362 183.253 217.574 183.956 218.204 185.085C218.549 185.707 218.941 186.306 219.357 186.894C220.105 187.943 220.212 189.314 219.595 190.443L217.468 194.292L230.443 201.044L232.57 197.195C233.2 196.066 234.424 195.398 235.743 195.421C236.48 195.432 237.205 195.409 237.941 195.352C239.26 195.236 240.544 195.836 241.233 196.919L243.621 200.641L256.134 193.116L253.745 189.371C253.044 188.288 253.092 186.917 253.769 185.822C253.959 185.523 254.138 185.223 254.304 184.912C254.47 184.601 254.637 184.29 254.791 183.979C255.361 182.815 256.514 182.032 257.833 181.985L262.36 181.859L261.909 167.582L257.405 167.72C256.086 167.767 254.862 167.064 254.233 165.934C253.876 165.312 253.496 164.702 253.068 164.114C252.308 163.065 252.213 161.694 252.83 160.565L254.957 156.716L241.982 149.964L239.855 153.813C239.225 154.942 238.001 155.61 236.682 155.587C235.945 155.576 235.208 155.599 234.484 155.656C233.165 155.772 231.893 155.172 231.192 154.078L228.816 150.356L216.303 157.88L218.644 161.613ZM241.887 165.185C247.757 168.239 249.967 175.337 246.818 181.029C243.669 186.721 236.349 188.853 230.479 185.799C224.609 182.746 222.399 175.66 225.548 169.967C228.709 164.287 236.016 162.132 241.887 165.185Z" fill="#F6F8F9"/>
            <path d="M293.286 196.111H309.816V82.0449H293.286V196.111Z" fill="#F6F8F9"/>
            <path d="M321.697 196.112H338.227V109.655H321.697V196.112Z" fill="#F6F8F9"/>
            <path d="M350.11 196.111H366.641V152.883H350.11V196.111Z" fill="#F6F8F9"/>
            <path d="M378.521 196.111H395.053V128.191H378.521V196.111Z" fill="#F6F8F9"/>
            <path d="M281.296 67.5399L281.488 99.682L281.582 131.824L281.714 196.11L281.297 195.704C296.489 195.665 311.681 195.643 326.872 195.694L372.449 195.785L418.023 195.873L463.6 196.111L418.023 196.35L372.449 196.438L326.872 196.527C311.682 196.578 296.489 196.557 281.297 196.517H280.879V196.112L281.011 131.826L281.105 99.684L281.297 67.5418L281.296 67.5399Z" fill="#F6F8F9"/>
            <path d="M277.648 73.9853C278.864 73.6281 280.08 73.5464 281.295 73.5317C282.511 73.5455 283.726 73.6271 284.941 73.9853C283.726 74.3454 282.511 74.4271 281.295 74.4389C280.08 74.4251 278.864 74.3434 277.648 73.9853Z" fill="#F6F8F9"/>
            <path d="M277.648 83.7566C278.864 83.3995 280.08 83.3178 281.295 83.303C282.511 83.3168 283.726 83.3975 284.941 83.7566C283.726 84.1167 282.511 84.1984 281.295 84.2102C280.08 84.1964 278.864 84.1148 277.648 83.7566Z" fill="#F6F8F9"/>
            <path d="M277.648 93.5282C278.864 93.171 280.08 93.0893 281.295 93.0746C282.511 93.0884 283.726 93.17 284.941 93.5282C283.726 93.8883 282.511 93.9709 281.295 93.9818C280.08 93.968 278.864 93.8873 277.648 93.5282Z" fill="#F6F8F9"/>
            <path d="M277.648 103.301C278.864 102.943 280.08 102.861 281.295 102.845C282.511 102.859 283.726 102.941 284.941 103.301C283.726 103.66 282.511 103.742 281.295 103.754C280.08 103.74 278.864 103.658 277.648 103.301Z" fill="#F6F8F9"/>
            <path d="M277.648 113.072C278.864 112.714 280.08 112.633 281.295 112.618C282.511 112.632 283.726 112.712 284.941 113.072C283.726 113.432 282.511 113.513 281.295 113.527C280.08 113.511 278.864 113.431 277.648 113.072Z" fill="#F6F8F9"/>
            <path d="M277.648 122.844C278.864 122.484 280.08 122.403 281.295 122.388C282.511 122.402 283.726 122.483 284.941 122.844C283.726 123.202 282.511 123.284 281.295 123.297C280.08 123.281 278.864 123.201 277.648 122.844Z" fill="#F6F8F9"/>
            <path d="M277.648 132.613C278.864 132.258 280.08 132.174 281.295 132.16C282.511 132.173 283.726 132.255 284.941 132.613C283.726 132.973 282.511 133.055 281.295 133.069C280.08 133.054 278.864 132.972 277.648 132.613Z" fill="#F6F8F9"/>
            <path d="M277.648 142.387C278.864 142.03 280.08 141.946 281.295 141.932C282.511 141.945 283.726 142.026 284.941 142.387C283.726 142.746 282.511 142.828 281.295 142.841C280.08 142.825 278.864 142.744 277.648 142.387Z" fill="#F6F8F9"/>
            <path d="M277.648 152.159C278.864 151.8 280.08 151.718 281.295 151.703C282.511 151.717 283.726 151.799 284.941 152.159C283.726 152.517 282.511 152.6 281.295 152.612C280.08 152.598 278.864 152.516 277.648 152.159Z" fill="#F6F8F9"/>
            <path d="M277.648 161.929C278.864 161.572 280.08 161.489 281.295 161.475C282.511 161.487 283.726 161.568 284.941 161.929C283.726 162.288 282.511 162.371 281.295 162.382C280.08 162.367 278.864 162.286 277.648 161.929Z" fill="#F6F8F9"/>
            <path d="M277.648 171.7C278.864 171.343 280.08 171.259 281.295 171.246C282.511 171.258 283.726 171.34 284.941 171.7C283.726 172.059 282.511 172.142 281.295 172.154C280.08 172.14 278.864 172.057 277.648 171.7Z" fill="#F6F8F9"/>
            <path d="M277.648 181.471C278.864 181.114 280.08 181.03 281.295 181.018C282.511 181.029 283.726 181.111 284.941 181.471C283.726 181.829 282.511 181.913 281.295 181.925C280.08 181.909 278.864 181.828 277.648 181.471Z" fill="#F6F8F9"/>
            <path d="M21.4512 94.0439C50.8726 93.8037 80.294 93.8669 109.729 93.7657C139.151 93.8669 168.586 93.8037 198.007 94.0439C168.586 94.2842 139.151 94.221 109.729 94.3221C80.3078 94.221 50.8864 94.2842 21.4512 94.0439Z" fill="#F6F8F9"/>
            <path d="M21.4512 116.704C50.8726 116.463 80.294 116.527 109.729 116.425C139.151 116.527 168.586 116.463 198.007 116.704C168.586 116.944 139.151 116.881 109.729 116.982C80.3078 116.881 50.8864 116.944 21.4512 116.704Z" fill="#F6F8F9"/>
            <path d="M21.4512 139.363C50.8726 139.123 80.294 139.186 109.729 139.085C139.151 139.186 168.586 139.123 198.007 139.363C168.586 139.603 139.151 139.54 109.729 139.641C80.3078 139.54 50.8864 139.603 21.4512 139.363Z" fill="#F6F8F9"/>
            <path d="M21.4512 162.023C50.8726 161.782 80.294 161.845 109.729 161.744C139.151 161.845 168.586 161.782 198.007 162.023C168.586 162.263 139.151 162.2 109.729 162.301C80.3078 162.2 50.8864 162.263 21.4512 162.023Z" fill="#F6F8F9"/>
            <path d="M21.4512 184.682C50.8726 184.442 80.294 184.505 109.729 184.404C139.151 184.505 168.586 184.442 198.007 184.682C168.586 184.922 139.151 184.859 109.729 184.96C80.3078 184.859 50.8864 184.922 21.4512 184.682Z" fill="#F6F8F9"/>
            <path d="M56.9968 79.3126C57.2589 100.48 57.1899 121.66 57.3003 142.828C57.1899 163.995 57.2589 185.175 56.9968 206.343C56.7347 185.175 56.8037 163.995 56.6934 142.828C56.8037 121.66 56.7485 100.493 56.9968 79.3126Z" fill="#F6F8F9"/>
            <path d="M87.5359 79.3126C87.798 100.48 87.729 121.66 87.8393 142.828C87.729 163.995 87.798 185.175 87.5359 206.343C87.2738 185.175 87.3428 163.995 87.2324 142.828C87.3428 121.66 87.2738 100.493 87.5359 79.3126Z" fill="#F6F8F9"/>
            <path d="M118.061 79.3126C118.323 100.48 118.254 121.66 118.365 142.828C118.254 163.995 118.323 185.175 118.061 206.343C117.799 185.175 117.868 163.995 117.758 142.828C117.868 121.66 117.813 100.493 118.061 79.3126Z" fill="#F6F8F9"/>
            <path d="M148.599 79.3126C148.861 100.48 148.792 121.66 148.903 142.828C148.792 163.995 148.861 185.175 148.599 206.343C148.337 185.175 148.406 163.995 148.296 142.828C148.406 121.66 148.337 100.493 148.599 79.3126Z" fill="#F6F8F9"/>
            <path d="M179.124 79.3126C179.386 100.48 179.317 121.66 179.427 142.828C179.317 163.995 179.386 185.175 179.124 206.343C178.862 185.175 178.931 163.995 178.82 142.828C178.931 121.66 178.862 100.493 179.124 79.3126Z" fill="#F6F8F9"/>
            <path opacity="0.5" d="M25.9072 168.244C31.3005 168.244 34.5143 145.23 42.1421 145.23C49.7699 145.23 50.5837 162.023 57.0114 162.023C63.4392 162.023 63.2323 132.522 71.8807 132.522C80.5154 132.522 78.5154 144.497 87.5501 144.497C96.5848 144.497 93.1778 116.704 102.613 116.704C112.047 116.704 108.24 154.992 118.075 154.992C124.296 154.992 126.71 142.828 134.144 142.828C139.069 142.828 141.965 148.91 148.407 148.91C154.945 148.91 156.241 125.53 164.283 125.53C172.311 125.53 173.235 139.363 179.152 139.363C185.07 139.363 187.18 116.704 198.035 116.704V206.343H25.9072V168.244Z" fill="#F6F8F9"/>
            <path d="M25.9072 169.357V167.144C27.5349 167.144 29.7832 161.77 31.4246 157.837C34.2385 151.098 37.1627 144.118 42.1421 144.118C46.9146 144.118 49.2871 149.226 51.3837 153.728C53.0251 157.256 54.7217 160.91 56.9976 160.91C59.0115 160.91 60.7494 153.829 62.0184 148.657C64.1012 140.185 66.253 131.409 71.8532 131.409C76.8602 131.409 78.8188 134.849 80.543 137.884C82.2258 140.83 83.6741 143.372 87.5087 143.372C90.9846 143.372 92.3364 136.885 93.6606 130.6C95.2054 123.216 96.8055 115.578 102.571 115.578C108.295 115.578 109.758 125.201 111.302 135.38C112.558 143.612 114.116 153.867 118.034 153.867C120.378 153.867 122.296 151.338 124.323 148.67C126.792 145.407 129.592 141.715 134.103 141.715C136.82 141.715 138.931 143.22 140.972 144.687C143.11 146.217 145.331 147.797 148.352 147.797C150.586 147.797 152.614 142.233 154.255 137.77C156.655 131.207 159.138 124.417 164.228 124.417C169.29 124.417 171.773 128.83 173.98 132.725C175.58 135.57 177.097 138.25 179.097 138.25C180.794 138.25 182.725 133.951 184.421 130.145C187.318 123.658 190.932 115.591 197.98 115.591V117.804C192.546 117.804 189.415 124.809 186.656 130.992C184.283 136.29 182.421 140.463 179.097 140.463C175.635 140.463 173.787 137.201 171.842 133.736C169.869 130.234 167.828 126.63 164.242 126.63C160.89 126.63 158.586 132.927 156.559 138.478C154.296 144.674 152.338 150.023 148.365 150.023C144.517 150.023 141.855 148.126 139.496 146.444C137.606 145.104 135.993 143.941 134.103 143.941C130.861 143.941 128.544 147.001 126.31 149.947C124.02 152.969 121.647 156.105 118.034 156.105C112.006 156.105 110.502 146.204 108.902 135.709C107.688 127.742 106.185 117.816 102.557 117.816C98.7779 117.816 97.3158 124.847 96.0054 131.043C94.433 138.529 92.9571 145.61 87.4811 145.61C82.1844 145.61 80.1568 142.056 78.3637 138.933C76.7498 136.101 75.3429 133.648 71.8118 133.648C68.1427 133.648 66.0323 142.246 64.3219 149.163C62.4047 156.977 60.8874 163.148 56.9424 163.148C53.0665 163.148 51.1492 159.001 49.1078 154.613C47.2181 150.554 45.2732 146.343 42.0869 146.343C38.7627 146.343 35.9213 153.159 33.6315 158.634C31.1763 164.628 29.2039 169.357 25.9072 169.357Z" fill="#F6F8F9"/>
            <path d="M25.9073 80.6906C26.1004 101.63 26.266 122.57 26.2935 143.523L26.4729 206.355L25.9073 205.837L111.965 205.963L154.986 206.064L198.008 206.343L154.986 206.621L111.965 206.722L25.9073 206.848H25.3418V206.33L25.5211 143.498C25.5349 122.583 25.7142 101.63 25.9073 80.6906Z" fill="#F6F8F9"/>
            <path d="M103.327 60.256C103.817 60.5306 104.083 61.0585 104.054 61.6076C104.047 61.7555 104.04 61.9104 104.04 62.0582C104.04 62.2131 104.047 62.3609 104.054 62.5087C104.083 63.0578 103.817 63.5788 103.327 63.8533L101.662 64.7896L104.789 70.0836L106.454 69.1473C106.944 68.8727 107.542 68.9009 108.01 69.2036C108.27 69.3726 108.536 69.5204 108.817 69.6612C109.314 69.9076 109.639 70.4004 109.639 70.9495V72.8221H115.893V70.9495C115.893 70.4004 116.217 69.9076 116.715 69.6612C116.996 69.5204 117.262 69.3726 117.522 69.2036C117.99 68.9009 118.595 68.8727 119.078 69.1473L120.743 70.0836L123.87 64.7896L122.198 63.8463C121.715 63.5718 121.449 63.0508 121.478 62.5017C121.485 62.3539 121.492 62.199 121.492 62.0512C121.492 61.9033 121.485 61.7484 121.478 61.6006C121.449 61.0515 121.715 60.5235 122.205 60.249L123.87 59.3127L120.743 54.0187L119.085 54.955C118.595 55.2296 117.997 55.2014 117.529 54.9058C117.269 54.7368 116.996 54.589 116.722 54.4482C116.225 54.2018 115.9 53.7019 115.9 53.1599V51.2873H109.646V53.1599C109.646 53.709 109.322 54.2018 108.824 54.4482C108.543 54.589 108.277 54.7368 108.017 54.9058C107.549 55.2085 106.944 55.2296 106.461 54.955L104.804 54.0187L101.677 59.3127L103.327 60.256ZM112.773 57.0459C115.605 57.0459 117.896 59.2916 117.896 62.0512C117.896 64.8108 115.598 67.0565 112.773 67.0565C109.941 67.0565 107.65 64.8178 107.65 62.0512C107.65 59.2845 109.941 57.0459 112.773 57.0459Z" fill="#F6F8F9"/>
            <rect width="27.9814" height="330.948" transform="matrix(0.7179 0.696146 -0.717901 0.696146 156.588 -39.4545)" fill="#E478E5"/>
            <path d="M27.816 114.208L18.7705 105.436L22.0463 102.26C22.6881 101.637 23.3665 101.197 24.0815 100.938C24.7965 100.67 25.503 100.604 26.2008 100.737C26.8942 100.867 27.5317 101.213 28.1132 101.777C28.712 102.358 29.0889 102.974 29.2439 103.626C29.3947 104.273 29.3301 104.941 29.0501 105.63C28.7701 106.311 28.2769 106.994 27.5705 107.679L25.7743 109.421L29.2633 112.804L27.816 114.208ZM24.5338 108.218L26.3494 106.457C26.9352 105.889 27.2668 105.33 27.3444 104.778C27.4176 104.223 27.2022 103.701 26.6983 103.212C26.1986 102.727 25.6494 102.517 25.0507 102.579C24.4519 102.642 23.8726 102.945 23.3126 103.488L21.4841 105.261L24.5338 108.218ZM38.7245 104.006C38.0568 104.653 37.3074 105.083 36.476 105.296C35.6447 105.501 34.8241 105.499 34.0144 105.29C33.2003 105.077 32.4852 104.672 31.8693 104.075C31.4127 103.632 31.0659 103.133 30.829 102.577C30.5921 102.013 30.4715 101.429 30.4672 100.823C30.4672 100.213 30.5878 99.6158 30.829 99.031C31.0702 98.4462 31.4428 97.9095 31.9468 97.4208C32.6144 96.7734 33.3639 96.3474 34.1953 96.1427C35.0266 95.9297 35.8493 95.9297 36.6634 96.1427C37.4732 96.3515 38.1861 96.7546 38.802 97.3519C39.2543 97.7905 39.5989 98.2917 39.8358 98.8556C40.077 99.4153 40.1998 99.9979 40.2041 100.604C40.2084 101.209 40.0899 101.804 39.8487 102.389C39.6075 102.974 39.2328 103.513 38.7245 104.006ZM37.4646 102.784C37.8609 102.4 38.1258 101.976 38.2593 101.512C38.3928 101.04 38.3885 100.564 38.2464 100.084C38.1042 99.6032 37.8156 99.1521 37.3806 98.7303C36.9455 98.3084 36.4803 98.0285 35.985 97.8907C35.4853 97.7487 34.9943 97.7445 34.5119 97.8782C34.0337 98.0077 33.5965 98.2645 33.2003 98.6488C32.804 99.0331 32.5369 99.4591 32.3991 99.9269C32.2655 100.391 32.272 100.865 32.4185 101.349C32.5649 101.825 32.8557 102.274 33.2907 102.696C33.7258 103.118 34.191 103.398 34.6863 103.536C35.1817 103.674 35.6705 103.68 36.153 103.555C36.6354 103.421 37.0726 103.164 37.4646 102.784ZM46.1417 101.7L37.0316 92.866L38.3109 91.6255L39.209 92.4964C39.1401 91.9367 39.2025 91.3665 39.3963 90.7859C39.5902 90.2054 39.9778 89.6331 40.5593 89.0692C41.1839 88.4636 41.886 88.071 42.6657 87.8914C43.4453 87.7034 44.2271 87.7264 45.011 87.9603C45.7907 88.19 46.5057 88.6202 47.1561 89.2509C47.6256 89.7062 47.9896 90.2095 48.2481 90.7609C48.5022 91.3081 48.64 91.8719 48.6616 92.4525C48.6874 93.0289 48.5905 93.5949 48.3708 94.1504C48.1511 94.6976 47.8022 95.203 47.3241 95.6666C46.8245 96.1511 46.2947 96.4895 45.7347 96.6816C45.1747 96.8737 44.6083 96.951 44.0354 96.9134L47.5567 100.328L46.1417 101.7ZM45.8251 94.6767C46.2214 94.2924 46.4863 93.8685 46.6199 93.4048C46.7534 92.9329 46.7469 92.4588 46.6005 91.9826C46.4583 91.5023 46.1697 91.0512 45.7347 90.6293C45.2996 90.2074 44.8344 89.9276 44.3391 89.7898C43.8394 89.6477 43.3484 89.6436 42.866 89.7772C42.3878 89.9067 41.9528 90.1615 41.5608 90.5416C41.1645 90.9259 40.8975 91.3519 40.7596 91.8197C40.6261 92.2834 40.6326 92.7574 40.779 93.2419C40.9212 93.7223 41.2098 94.1734 41.6448 94.5953C42.0799 95.0171 42.5451 95.297 43.0404 95.4348C43.5358 95.5726 44.0247 95.5789 44.5071 95.4536C44.9895 95.3199 45.4289 95.061 45.8251 94.6767ZM54.4441 88.7624C53.8712 89.318 53.2832 89.6667 52.6802 89.8088C52.0771 89.9424 51.4935 89.9153 50.9292 89.7273C50.3649 89.5393 49.8588 89.2282 49.4109 88.7938L45.321 84.8278L46.7424 83.4495L50.5674 87.1585C51.0068 87.5846 51.4892 87.8018 52.0147 87.8101C52.5402 87.8101 53.0334 87.5867 53.4943 87.1397C53.7958 86.8473 53.9982 86.5216 54.1016 86.1623C54.2007 85.799 54.1964 85.4314 54.0887 85.0596C53.9853 84.6837 53.7721 84.3391 53.4491 84.0259L49.7985 80.486L51.22 79.1076L57.6165 85.3103L56.3372 86.5508L55.5812 85.8177C55.6329 86.3524 55.5704 86.8682 55.3938 87.3653C55.2172 87.854 54.9006 88.3197 54.4441 88.7624ZM59.5935 83.3932L50.2895 74.3711L51.7109 72.9928L61.0149 82.0148L59.5935 83.3932ZM65.8891 77.6642C65.2516 78.2824 64.5409 78.6876 63.7569 78.8797C62.973 79.0635 62.1869 79.0447 61.3986 78.8233C60.6104 78.5936 59.891 78.1634 59.2406 77.5327C58.7539 77.0607 58.3834 76.5469 58.1293 75.9914C57.8752 75.4359 57.7395 74.8699 57.7223 74.2935C57.705 73.7171 57.8127 73.1532 58.0453 72.6019C58.2779 72.0505 58.6311 71.5451 59.1049 71.0857C59.7338 70.4758 60.3929 70.0957 61.082 69.9454C61.7755 69.7908 62.4453 69.8096 63.0914 70.0018L63.1948 70.4904L61.6506 68.993L62.917 67.765L69.3135 73.9677L68.0471 75.1957L66.5029 73.6983L67.0069 73.7985C67.205 74.4251 67.2244 75.0746 67.065 75.747C66.91 76.4153 66.518 77.0544 65.8891 77.6642ZM64.8166 76.2608C65.2042 75.8849 65.4648 75.4651 65.5983 75.0015C65.7276 74.5337 65.719 74.0617 65.5725 73.5855C65.4304 73.1052 65.1418 72.6541 64.7067 72.2322C64.2717 71.8103 63.8065 71.5305 63.3111 71.3927C62.8158 71.2465 62.329 71.2381 61.8509 71.3676C61.3728 71.4971 60.9399 71.7498 60.5522 72.1257C60.1603 72.5058 59.8975 72.9277 59.764 73.3913C59.6347 73.8507 59.6434 74.3227 59.7898 74.8072C59.932 75.2876 60.2206 75.7387 60.6556 76.1606C61.0907 76.5824 61.5559 76.8623 62.0512 77.0001C62.5466 77.1379 63.0333 77.1463 63.5114 77.0252C63.9895 76.8957 64.4246 76.6409 64.8166 76.2608ZM71.2916 72.0495L64.8951 65.8469L66.3165 64.4685L67.2017 65.3269C67.0423 64.7045 67.0553 64.149 67.2405 63.6603C67.4214 63.1674 67.71 62.7288 68.1063 62.3446C68.2355 62.2193 68.3647 62.1065 68.4939 62.0062C68.6232 61.906 68.7545 61.8162 68.8881 61.7368L70.1674 63.3407C69.9994 63.4285 69.8378 63.5266 69.6828 63.6352C69.5277 63.7438 69.3834 63.8629 69.2499 63.9923C68.7545 64.4727 68.4982 65.0178 68.481 65.6276C68.4595 66.2332 68.7093 66.7888 69.2305 67.2942L72.713 70.6712L71.2916 72.0495Z" fill="#491F50"/>
        </g>
        <path d="M216.461 70.722C219.496 70.1899 222.157 68.0129 223.034 65.0014C223.893 62.0383 222.865 58.8152 220.651 56.735C223.856 55.9489 226.578 53.6691 226.771 50.0771C226.977 46.3581 224.292 43.5341 220.784 42.8145C220.76 42.8084 220.742 42.8508 220.772 42.8568C223.887 43.8606 226.408 46.5879 226.178 50.0166C225.979 52.9495 224.104 54.7455 221.716 55.7251C223.518 54.0742 224.824 51.8549 224.848 49.3575C224.872 46.6181 223.24 43.9695 220.712 42.9415C221.958 40.0872 222.296 36.6041 220.663 33.8284C219.291 31.4942 216.63 30.0127 213.951 30.3755C214.61 27.3519 213.443 24.0018 210.843 22.2179C208.406 20.5429 205.171 20.4945 202.613 21.8732C203.272 17.2472 198.827 13.4254 194.304 14.8223C194.262 13.1412 193.113 11.6717 191.54 11.0126C189.732 10.2446 187.725 10.6679 185.953 11.3875C184.937 9.97852 183.28 9.04121 181.496 9.15006C179.114 9.29519 177.366 11.1698 177.118 13.4314C174.088 12.6997 170.702 12.3309 167.872 13.8608C165.544 15.1186 163.802 17.6342 164.111 20.3252C158.523 19.7446 153.71 24.1288 153.764 29.7648C151.466 30.1699 149.604 31.8873 148.811 34.0885C148.013 36.3078 148.098 37.9647 148.213 38.7447C146.175 39.2709 144.73 41.1273 144.603 43.2317C144.476 45.2998 145.485 46.9628 146.876 48.3234C146.997 48.8374 147.021 49.3454 146.894 49.9803C146.326 52.8467 147.088 55.6586 149.114 57.757C147.384 60.7321 148.884 64.8261 152.113 65.9871C151.351 69.4098 153.764 73.032 157.199 73.673C156.896 76.4124 157.743 79.2122 159.648 81.244C161.099 82.8042 163.397 83.9169 165.441 83.1187C165.405 84.7998 167.116 85.991 168.743 86.1241C169.36 86.1725 169.982 86.112 170.593 86.0273C171.319 85.9185 172.214 85.5919 172.946 85.7492C173.701 85.9064 174.234 86.626 174.82 87.0674C175.243 87.3819 175.703 87.654 176.181 87.8777C179.815 89.5347 184.411 88.3071 186.679 85.0537C188.958 86.7469 191.994 86.118 194.334 84.7756C195.108 84.3341 195.773 83.7899 196.451 83.2275C197.08 82.7074 197.654 82.2902 198.501 82.1874C199.015 82.1269 199.535 82.1874 200.049 82.133C201.79 81.9395 202.97 80.7361 203.998 79.4299C210.262 83.681 217.289 77.6279 216.461 70.722ZM145.262 44.163C145.056 41.8893 146.247 39.9602 148.255 38.9504C148.285 39.1076 148.316 39.2164 148.316 39.2164C148.316 39.2164 147.777 39.6941 147.541 39.9542C147.118 40.4319 146.773 40.9761 146.501 41.5567C145.945 42.7661 145.745 44.1448 145.957 45.4571C146.054 46.0497 146.253 46.606 146.489 47.1503C146.52 47.2228 146.544 47.2833 146.568 47.3559C145.897 46.4186 145.377 45.4087 145.262 44.163ZM182.506 10.5772C180.432 10.426 178.394 11.6112 177.578 13.5161C177.523 13.504 177.469 13.4919 177.414 13.4798C177.977 11.4117 179.059 9.67616 181.539 9.56731C183.274 9.49474 184.502 10.3776 185.384 11.6173C185.372 11.6233 185.366 11.6233 185.354 11.6294C184.532 11.0368 183.576 10.6497 182.506 10.5772ZM204.203 79.1275C204.215 79.1094 204.233 79.0852 204.252 79.0671C209.047 80.7179 213.981 78.154 215.656 73.7577C214.145 78.7405 209.954 82.1693 204.203 79.1275Z" fill="#2A2A2A"/>
        <path d="M185.1 107.192C197.345 133.4 218.111 168.885 227.642 170.367C233.398 171.262 243.134 172.036 250.536 165.069C266.682 149.861 277.742 128.133 283.874 116.976C286.662 111.915 255.537 89.3712 251.618 94.1485C242.445 105.342 232.098 127.021 230.405 126.954C224.122 126.706 214.816 111.425 199.607 97.2507C181.29 80.1735 179.869 95.9929 185.1 107.192Z" fill="#AD6359"/>
        <path d="M279.441 124.069C287.133 115.863 297.232 103.636 297.256 98.4899C297.28 93.0898 296.609 74.1078 295.031 69.7478C293.452 65.3878 285.004 54.1402 281.128 52.6586C278.026 51.4734 276.363 55.3073 279.973 62.2736C284.007 70.0623 282.773 73.2068 282.961 75.6982C283.154 78.2864 278.824 89.2922 275.184 90.2234C273.037 90.7737 268.587 90.7495 267.577 86.8794C266.567 83.0153 267.583 79.5079 266.083 72.7593C264.916 67.5164 260.526 64.251 258.724 65.1702C256.916 66.0893 258.415 69.2278 257.224 77.0891C256.48 81.9933 255.754 85.5127 249.913 92.6786C244.797 98.9495 244.477 107.633 244.477 107.633L279.441 124.069Z" fill="#AD6359"/>
        <path d="M297.613 86.3896C297.401 83.4326 299.421 74.4647 298.719 70.5582C298.024 66.6518 293.434 52.2777 289.062 51.1046C283.565 49.6291 285.198 61.3242 286.371 66.3313C287.544 71.3443 284.333 80.3848 284.333 80.3848L291.898 83.6019L297.613 86.3896Z" fill="#AD6359"/>
        <path d="M283.232 82.447C284.587 77.8995 286.268 73.2795 286.329 68.5023C286.099 65.0856 285.409 61.7174 285.246 58.2644C285.198 56.2205 285.071 53.9891 286.105 52.1387C286.462 51.5279 287.097 51.0865 287.786 51.0079C287.109 51.153 286.552 51.6186 286.244 52.2173C285.379 54.0798 285.585 56.2266 285.706 58.2282C285.935 60.9554 286.383 63.6585 286.734 66.3978C287.453 71.9491 285.204 77.3734 283.232 82.447Z" fill="#263238"/>
        <path d="M297.359 88.9659C297.976 86.0814 302.372 78.1234 302.795 74.1988C303.213 70.2742 302.832 55.241 298.998 52.8524C294.178 49.853 292.497 61.4695 292.225 66.5854C291.953 71.7013 286.396 79.3872 286.396 79.3872L292.697 84.6482L297.359 88.9659Z" fill="#AD6359"/>
        <path d="M284.781 81.0321C287.333 77.0833 290.218 73.1527 291.584 68.6173C292.304 65.2975 292.588 61.905 293.386 58.5731C293.906 56.6198 294.396 54.4549 295.896 52.9794C296.404 52.4957 297.136 52.2598 297.813 52.3868C297.129 52.3264 296.464 52.6166 296.005 53.0943C294.668 54.6243 294.269 56.7287 293.834 58.6698C293.302 61.3245 292.981 64.0276 292.558 66.7306C291.717 72.2093 288.065 76.7689 284.781 81.0321Z" fill="#263238"/>
        <path d="M285.814 87.9738C282.283 90.8946 277.36 91.9891 272.88 92.2794C269.475 92.4608 266.095 93.1985 263.059 94.7889C262.025 95.2788 261.063 95.8956 260.09 96.5003C263.652 93.5372 268.223 91.9045 272.837 91.6868C277.324 91.3784 281.993 90.4773 285.814 87.9738Z" fill="#263238"/>
        <path d="M296.983 54.2247L280.982 97.5646C280.54 98.7619 279.192 99.5359 277.976 99.294L256.237 94.9643C255.022 94.7224 254.399 93.5553 254.84 92.358L270.841 49.0181C271.282 47.8208 272.625 47.0467 273.84 47.2886L295.58 51.6184C296.795 51.8603 297.424 53.0274 296.983 54.2247Z" fill="#37474F"/>
        <path d="M294.25 51.3525L272.51 47.0227C271.295 46.7808 269.952 47.5549 269.511 48.7522L253.51 92.092C253.069 93.2894 253.691 94.4565 254.907 94.6983L276.646 99.0281C277.862 99.27 279.204 98.496 279.652 97.2986L295.653 53.9588C296.094 52.7614 295.465 51.5943 294.25 51.3525ZM278.769 95.6901C278.346 96.833 277.124 97.5768 276.036 97.3591L256.588 93.4889C255.5 93.2712 254.955 92.1706 255.379 91.0338L270.279 50.6752C271.137 48.3531 272.063 48.4135 273.151 48.6312L277.045 49.4053C277.269 49.4476 277.366 49.7379 277.251 50.0463L277.203 50.1793C276.937 50.905 277.342 50.9896 277.844 51.0864L286.854 52.8824C287.362 52.9852 287.767 53.0638 288.033 52.3381L288.081 52.2051C288.196 51.8967 288.469 51.685 288.698 51.7274L292.593 52.5014C293.681 52.7191 294.449 53.2029 293.663 55.3315L278.769 95.6901Z" fill="#263238"/>
        <path d="M293.67 55.3314L278.769 95.69C278.346 96.8329 277.125 97.5767 276.036 97.359L256.588 93.4888C255.5 93.2711 254.956 92.1705 255.379 91.0337L270.279 50.6751C271.138 48.353 272.063 48.4134 273.152 48.6311L277.046 49.4052C277.27 49.4475 277.366 49.7377 277.252 50.0462L277.203 50.1792C276.937 50.9048 277.342 50.9895 277.844 51.0863L286.854 52.8823C287.362 52.9851 287.768 53.0637 288.034 52.338L288.082 52.205C288.197 51.8966 288.469 51.6849 288.699 51.7273L292.593 52.5013C293.688 52.719 294.456 53.2028 293.67 55.3314Z" fill="white"/>
        <path d="M276.043 50.1789C276.025 50.191 276.006 50.1971 275.994 50.2091C275.982 50.2152 275.976 50.2212 275.964 50.2273C275.898 50.1124 275.795 50.0398 275.656 50.0096C275.517 49.9794 275.378 50.0096 275.238 50.0822C275.232 50.0761 275.232 50.064 275.226 50.058C275.22 50.0459 275.208 50.0277 275.202 50.0156C275.202 50.0156 275.202 50.0156 275.208 50.0156C275.226 50.0035 275.251 49.9915 275.269 49.9854C275.311 49.9673 275.359 49.9491 275.402 49.937C275.456 49.9249 275.511 49.9189 275.565 49.9189C275.589 49.9189 275.613 49.9249 275.644 49.9249C275.65 49.9249 275.704 49.937 275.71 49.937C275.728 49.9431 275.74 49.9431 275.758 49.9491C275.801 49.9612 275.843 49.9854 275.879 50.0096C275.91 50.0277 275.934 50.0459 275.952 50.0701C275.976 50.0943 276 50.1184 276.019 50.1487C276.025 50.1487 276.031 50.1608 276.043 50.1789Z" fill="#C7C7C7"/>
        <path d="M275.312 50.2152C275.3 50.191 275.287 50.1668 275.275 50.1487C275.366 50.1003 275.463 50.07 275.56 50.0821C275.705 50.0942 275.814 50.1547 275.88 50.2696C275.85 50.2877 275.826 50.2998 275.801 50.318C275.759 50.2394 275.687 50.191 275.596 50.1728C275.499 50.1487 275.402 50.1668 275.312 50.2152Z" fill="#C7C7C7"/>
        <path d="M275.717 50.3602C275.692 50.3723 275.662 50.3904 275.638 50.4085C275.614 50.3723 275.584 50.342 275.529 50.336C275.481 50.3239 275.432 50.336 275.384 50.3602C275.372 50.336 275.36 50.3118 275.348 50.2936C275.481 50.209 275.65 50.2332 275.717 50.3602Z" fill="#C7C7C7"/>
        <path d="M275.548 50.4453C275.536 50.4758 275.505 50.4941 275.475 50.488C275.444 50.4819 275.432 50.4514 275.438 50.427C275.45 50.3965 275.481 50.3782 275.511 50.3843C275.542 50.3904 275.56 50.4148 275.548 50.4453Z" fill="#C7C7C7"/>
        <path d="M272.329 49.5561C272.359 49.4714 272.456 49.417 272.541 49.4351C272.625 49.4533 272.674 49.5319 272.637 49.6165C272.601 49.7012 272.51 49.7556 272.426 49.7375C272.341 49.7193 272.299 49.6407 272.329 49.5561Z" fill="#C7C7C7"/>
        <path d="M272.818 49.6529C272.849 49.5682 272.945 49.5138 273.03 49.5319C273.115 49.5501 273.163 49.6287 273.127 49.7133C273.097 49.798 273 49.8524 272.915 49.8343C272.83 49.8161 272.788 49.7375 272.818 49.6529Z" fill="#C7C7C7"/>
        <path d="M273.303 49.7494C273.333 49.6647 273.43 49.6103 273.514 49.6284C273.599 49.6466 273.647 49.7252 273.611 49.8098C273.575 49.8945 273.484 49.9489 273.399 49.9308C273.315 49.9126 273.272 49.834 273.303 49.7494Z" fill="#C7C7C7"/>
        <path d="M273.792 49.8462C273.823 49.7615 273.919 49.7071 274.004 49.7252C274.089 49.7434 274.137 49.822 274.101 49.9066C274.07 49.9913 273.974 50.0457 273.889 50.0276C273.81 50.0094 273.762 49.9308 273.792 49.8462Z" fill="#C7C7C7"/>
        <path d="M274.282 49.943C274.312 49.8583 274.409 49.8039 274.494 49.822C274.579 49.8402 274.627 49.9188 274.591 50.0034C274.554 50.0881 274.464 50.1425 274.379 50.1244C274.294 50.1062 274.252 50.0276 274.282 49.943Z" fill="#C7C7C7"/>
        <path d="M292.32 53.8917L291.057 53.6377L291.268 53.0693L292.532 53.3233L292.32 53.8917ZM291.147 53.5893L292.278 53.8131L292.441 53.3716L291.311 53.1479L291.147 53.5893Z" fill="#C7C7C7"/>
        <path d="M292.151 53.3537L291.334 53.1904L291.195 53.5654L292.012 53.7226L292.151 53.3537Z" fill="#C7C7C7"/>
        <path d="M292.478 53.783L292.369 53.7588L292.478 53.4565L292.593 53.4746L292.478 53.783Z" fill="#C7C7C7"/>
        <path d="M283.915 51.3219L281.46 50.8321C281.375 50.814 281.333 50.7353 281.363 50.6567C281.393 50.5781 281.484 50.5237 281.569 50.5418L284.024 51.0316C284.109 51.0498 284.151 51.1284 284.121 51.207C284.091 51.2856 284 51.3401 283.915 51.3219Z" fill="white"/>
        <path d="M258.535 91.3239L258.42 91.3058L258.233 91.8137L258.021 91.7714L258.118 91.5114L257.737 91.4328L257.64 91.6928L257.429 91.6504L257.616 91.1425L257.501 91.1183L258.209 90.7071L258.535 91.3239Z" fill="#EBEBEB"/>
        <path d="M277.19 94.668L275.944 94.4201L276.011 94.2508L277.257 94.4987L277.19 94.668Z" fill="#EBEBEB"/>
        <path d="M277.033 95.0975L275.787 94.8496L275.854 94.6742L277.099 94.9282L277.033 95.0975Z" fill="#EBEBEB"/>
        <path d="M276.876 95.5267L275.63 95.2788L275.696 95.1035L276.942 95.3514L276.876 95.5267Z" fill="#EBEBEB"/>
        <path d="M267.643 93.156L267.153 93.4523L266.936 93.0109L267.02 92.9686L267.202 93.3314L267.607 93.0835L267.643 93.156Z" fill="#EBEBEB"/>
        <path d="M267.014 93.8271C266.657 93.7546 266.476 93.422 266.603 93.0773C266.73 92.7326 267.123 92.5089 267.48 92.5814C267.837 92.654 268.018 92.9926 267.891 93.3313C267.764 93.676 267.371 93.8997 267.014 93.8271ZM267.444 92.6661C267.135 92.6056 266.796 92.7991 266.682 93.0954C266.573 93.3917 266.73 93.688 267.038 93.7485C267.347 93.809 267.685 93.6155 267.8 93.3192C267.915 93.0168 267.758 92.7266 267.444 92.6661Z" fill="#EBEBEB"/>
        <path d="M271.797 53.6258L271.338 52.8638L272.257 52.374L272.324 52.501L271.568 52.9062L271.943 53.5351L271.797 53.6258Z" fill="#DBDBDB"/>
        <path d="M291.402 56.4377C291.378 56.5102 291.293 56.5586 291.215 56.5405C291.142 56.5284 291.1 56.4558 291.13 56.3832C291.154 56.3107 291.239 56.2623 291.317 56.2804C291.39 56.2925 291.426 56.3651 291.402 56.4377Z" fill="#DBDBDB"/>
        <path d="M291.226 56.9033C291.202 56.9759 291.117 57.0242 291.039 57.0061C290.966 56.994 290.924 56.9214 290.954 56.8489C290.978 56.7763 291.063 56.7279 291.142 56.7461C291.214 56.7642 291.257 56.8307 291.226 56.9033Z" fill="#DBDBDB"/>
        <path d="M291.052 57.3748C291.027 57.4474 290.943 57.4957 290.864 57.4776C290.792 57.4655 290.749 57.3929 290.779 57.3204C290.804 57.2478 290.888 57.1994 290.967 57.2176C291.039 57.2297 291.082 57.3022 291.052 57.3748Z" fill="#DBDBDB"/>
        <path d="M277.228 54.1155C279.949 54.557 282.652 55.0952 285.307 55.7241C282.585 55.2887 279.876 54.7505 277.228 54.1155Z" fill="#DBDBDB"/>
        <path d="M269.613 56.1294C271.591 56.4197 273.55 56.8067 275.455 57.2904C273.477 57.0002 271.518 56.6132 269.613 56.1294Z" fill="#DBDBDB"/>
        <path d="M284.979 61.4811C286.327 61.6444 287.663 61.9104 288.939 62.2672C287.591 62.11 286.261 61.8439 284.979 61.4811Z" fill="#DBDBDB"/>
        <path d="M284.821 61.9104C286.17 62.0737 287.506 62.3397 288.782 62.6965C287.428 62.5333 286.097 62.2732 284.821 61.9104Z" fill="#DBDBDB"/>
        <path d="M269.396 56.722C270.678 56.8732 271.935 57.1211 273.145 57.4658C271.863 57.3206 270.599 57.0667 269.396 56.722Z" fill="#DBDBDB"/>
        <path d="M277.607 60.1506L273.925 65.3693L271.796 71.1322C268.512 70.4791 266.801 67.3649 267.974 64.1841C269.147 61.0033 272.764 58.9533 276.053 59.6064C276.622 59.7152 277.142 59.9027 277.607 60.1506Z" fill="#B468C2"/>
        <path d="M275.738 70.7089C274.493 71.2168 273.12 71.3922 271.802 71.1261L273.93 65.3632L275.738 70.7089Z" fill="#263238"/>
        <path d="M279.875 66.5483C279.174 68.4532 277.595 69.9529 275.733 70.7088L273.925 65.3631L279.887 62.66C280.353 63.8211 280.383 65.1817 279.875 66.5483Z" fill="#37474F"/>
        <path d="M280.697 62.3758L273.846 65.4779L278.073 59.4852C279.3 60.1383 280.207 61.1542 280.697 62.3758Z" fill="#C7C7C7"/>
        <path d="M276.9 65.956C276.314 67.5464 274.506 68.5744 272.861 68.2479C271.216 67.9213 270.363 66.3672 270.95 64.7708C271.536 63.1804 273.344 62.1524 274.989 62.4789C276.634 62.8115 277.493 64.3656 276.9 65.956Z" fill="white"/>
        <path d="M284.181 61.8863L283.546 61.7593L283.77 61.1425L284.411 61.2695L284.181 61.8863Z" fill="#B468C2"/>
        <path d="M284.38 63.1077C285.728 63.271 287.065 63.5371 288.341 63.8939C286.986 63.7306 285.656 63.4706 284.38 63.1077Z" fill="#DBDBDB"/>
        <path d="M284.224 63.537C285.572 63.7003 286.909 63.9663 288.185 64.3231C286.83 64.1598 285.5 63.8938 284.224 63.537Z" fill="#DBDBDB"/>
        <path d="M283.582 63.513L282.941 63.386L283.171 62.7632L283.812 62.8962L283.582 63.513Z" fill="#263238"/>
        <path d="M283.775 64.7344C285.124 64.8977 286.46 65.1638 287.736 65.5206C286.388 65.3573 285.057 65.0973 283.775 64.7344Z" fill="#DBDBDB"/>
        <path d="M283.618 65.1638C284.967 65.327 286.303 65.5931 287.579 65.9499C286.231 65.7866 284.9 65.5205 283.618 65.1638Z" fill="#DBDBDB"/>
        <path d="M282.983 65.1398L282.342 65.0128L282.572 64.39L283.213 64.5169L282.983 65.1398Z" fill="#37474F"/>
        <path d="M283.177 66.361C284.525 66.5243 285.862 66.7904 287.138 67.1472C285.789 66.9839 284.459 66.7178 283.177 66.361Z" fill="#DBDBDB"/>
        <path d="M283.02 66.7903C284.368 66.9536 285.704 67.2197 286.98 67.5765C285.632 67.4132 284.302 67.1471 283.02 66.7903Z" fill="#DBDBDB"/>
        <path d="M282.385 66.7664L281.744 66.6394L281.974 66.0165L282.615 66.1435L282.385 66.7664Z" fill="#C7C7C7"/>
        <path d="M270.66 92.1038L269.257 91.8257L274.167 78.5341L275.564 78.8122L270.66 92.1038Z" fill="#EBEBEB"/>
        <path d="M263.953 71.8278C267.72 72.4748 271.669 73.2609 275.376 74.1015C271.603 73.4484 267.654 72.6683 263.953 71.8278Z" fill="#263238"/>
        <path d="M263.681 72.5657C265.827 72.8862 267.956 73.3095 270.03 73.8295C267.883 73.509 265.755 73.0857 263.681 72.5657Z" fill="#263238"/>
        <path d="M280.105 75.0446C281.617 75.2684 283.105 75.5647 284.568 75.9335C283.056 75.7098 281.569 75.4135 280.105 75.0446Z" fill="#B468C2"/>
        <path d="M261.256 84.1339L260.803 84.0432L263.47 76.8108L263.929 76.9015L261.256 84.1339Z" fill="#B468C2"/>
        <path d="M259.309 89.4132L258.855 89.3164L260.567 84.6662L261.026 84.763L259.309 89.4132Z" fill="#455A64"/>
        <path d="M264.57 81.588L264.11 81.4912L265.677 77.2522L266.136 77.3429L264.57 81.588Z" fill="#B468C2"/>
        <path d="M261.516 89.8482L261.057 89.7575L263.881 82.1199L264.334 82.2106L261.516 89.8482Z" fill="#455A64"/>
        <path d="M267.618 79.7317L267.158 79.641L267.884 77.6877L268.337 77.7784L267.618 79.7317Z" fill="#B468C2"/>
        <path d="M263.723 90.2899L263.264 90.1992L266.928 80.2637L267.388 80.3605L263.723 90.2899Z" fill="#455A64"/>
        <path d="M268.562 83.5958L268.103 83.5051L270.086 78.1292L270.546 78.2199L268.562 83.5958Z" fill="#B468C2"/>
        <path d="M265.925 90.7254L265.472 90.6347L267.872 84.134L268.326 84.2247L265.925 90.7254Z" fill="#455A64"/>
        <path d="M271.185 82.9006L270.726 82.8099L272.292 78.5708L272.751 78.6615L271.185 82.9006Z" fill="#B468C2"/>
        <path d="M268.132 91.1668L267.673 91.0761L270.497 83.4385L270.95 83.5292L268.132 91.1668Z" fill="#455A64"/>
        <path d="M271.538 88.3546L271.084 88.2639L274.501 79.0057L274.954 79.0964L271.538 88.3546Z" fill="#B468C2"/>
        <path d="M270.34 91.6079L269.881 91.5172L270.848 88.8867L271.308 88.9774L270.34 91.6079Z" fill="#455A64"/>
        <path d="M275.709 83.4688L275.249 83.3781L276.7 79.4474L277.16 79.5382L275.709 83.4688Z" fill="#B468C2"/>
        <path d="M272.54 92.0436L272.087 91.9529L275.02 84.0009L275.479 84.0916L272.54 92.0436Z" fill="#455A64"/>
        <path d="M275.267 91.0699L274.813 90.9792L278.907 79.8827L279.367 79.9734L275.267 91.0699Z" fill="#B468C2"/>
        <path d="M274.747 92.485L274.287 92.3943L274.577 91.6082L275.037 91.6989L274.747 92.485Z" fill="#455A64"/>
        <path d="M280.692 82.7917L280.232 82.701L281.115 80.3245L281.569 80.4152L280.692 82.7917Z" fill="#B468C2"/>
        <path d="M276.955 92.9266L276.495 92.8299L280.002 83.3238L280.462 83.4145L276.955 92.9266Z" fill="#455A64"/>
        <path d="M265.562 74.7486C266.91 74.9119 268.246 75.1779 269.522 75.5347C268.174 75.3775 266.844 75.1114 265.562 74.7486Z" fill="#DBDBDB"/>
        <path d="M265.404 75.178C266.753 75.3413 268.089 75.6074 269.365 75.9642C268.017 75.8009 266.686 75.5409 265.404 75.178Z" fill="#DBDBDB"/>
        <path d="M264.769 75.1538L264.128 75.0268L264.358 74.41L264.999 74.537L264.769 75.1538Z" fill="#B468C2"/>
        <path d="M272.178 76.0664C273.526 76.2297 274.863 76.4958 276.139 76.8525C274.79 76.6953 273.46 76.4292 272.178 76.0664Z" fill="#DBDBDB"/>
        <path d="M272.021 76.4958C273.37 76.6591 274.706 76.9252 275.982 77.282C274.634 77.1187 273.303 76.8526 272.021 76.4958Z" fill="#DBDBDB"/>
        <path d="M271.386 76.4717L270.745 76.3447L270.975 75.7219L271.616 75.8549L271.386 76.4717Z" fill="#455A64"/>
        <path d="M296.106 102.064C297.334 99.4573 301.5 89.2013 301.742 84.8534C301.978 80.5056 300.684 63.9485 296.27 61.4571C290.73 58.3247 289.527 71.193 289.521 76.841C289.515 82.489 284.472 88.4817 284.472 88.4817L292.557 95.6355L296.106 102.064Z" fill="#AD6359"/>
        <path d="M290.241 67.994C290.344 69.8565 290.241 71.7674 290.156 73.6299C290.072 75.3896 290.126 77.234 289.775 78.9635C289.425 80.699 288.675 82.2894 287.786 83.8073C287.344 84.5511 286.867 85.2646 286.365 85.9661C285.814 86.7341 285.186 87.4537 284.653 88.2277C284.599 88.3124 284.46 88.2277 284.514 88.1431C285.452 86.722 286.232 85.1255 286.969 83.5896C287.744 81.9931 288.33 80.2697 288.681 78.5341C289.382 75.051 289.328 71.4469 289.993 67.9577C290.029 67.8186 290.235 67.861 290.241 67.994Z" fill="#263238"/>
        <path d="M289.781 78.9635C289.726 75.0087 288.686 58.5786 295.779 61.0096C299.734 63.3075 300.817 71.9126 301.27 76.1516C300.514 72.2028 299.142 63.6219 295.532 61.5296C289.418 59.5401 290.156 75.3655 289.781 78.9635Z" fill="#263238"/>
        <path d="M244.145 103.044L279.243 131.961C279.243 131.961 260.575 160.474 247.919 168.522C241.944 172.32 229.826 172.332 225.786 170.826C222.013 169.417 200.842 148.295 184.992 110.258C172.686 80.7119 192.285 87.9563 199.645 95.6181C207.572 103.872 228.465 125.043 229.614 124.699C230.769 124.348 244.145 103.044 244.145 103.044Z" fill="#8879FF"/>
        <path d="M239.586 113.524C244.871 117.648 250.029 121.929 255.163 126.241C257.679 128.357 267.342 137.132 270.13 139.605C270.239 139.702 269.973 139.992 269.858 139.901C267.119 137.791 256.899 129.192 254.42 127.039C249.37 122.649 244.351 118.228 239.465 113.663C239.38 113.572 239.495 113.451 239.586 113.524Z" fill="#263238"/>
        <path opacity="0.1" d="M244.302 170.167C237.965 172.278 229.118 172.066 225.786 170.82C222.013 169.411 200.836 148.282 184.986 110.258C178.231 94.0517 181.08 88.9117 186.25 88.8512C193.724 99.2583 224.788 142.671 244.302 170.167Z" fill="black"/>
        <path d="M221.202 206.311H128.554C133.095 184.366 152.857 105.348 168.973 93.6349C178.878 86.4388 191.97 91.4277 194.195 94.4996C203.333 107.114 218.547 186.126 221.202 206.311Z" fill="#EBEBEB"/>
        <path d="M195.719 96.8399C195.707 96.7976 195.64 96.8097 195.646 96.852C196.094 100.71 196.85 109.666 189.805 109.563C186.969 109.521 184.32 108.16 182.101 106.8C179.821 105.403 177.771 103.746 175.909 101.95C173.841 99.9603 171.712 97.868 170.061 95.5942C169.988 95.4975 169.819 95.6124 169.892 95.7091C171.664 97.9708 173.163 100.341 175.189 102.452C177.142 104.477 179.343 106.346 181.877 107.828C184.248 109.218 187.066 110.567 190.065 110.488C192.919 110.41 194.927 108.759 195.659 106.431C196.62 103.365 196.408 99.8696 195.719 96.8399Z" fill="#263238"/>
        <path d="M171.924 90.5508C171.924 90.5508 178.068 123.332 179.229 135.511C180.39 147.69 176.703 206.743 176.703 206.743H126.846C126.846 206.743 142.058 134.211 156.831 106.292C165.073 90.7081 171.924 90.5508 171.924 90.5508Z" fill="#8879FF"/>
        <path d="M193.113 92.7761C193.113 92.7761 203.037 129.863 203.69 133.8C204.343 137.737 207.714 206.743 207.714 206.743L223.881 206.493C223.875 206.499 206.78 102.712 193.113 92.7761Z" fill="#8879FF"/>
        <path d="M156.377 103.812C135.454 131.98 112.081 188.327 119.283 198.069C127.308 208.917 156.407 169.466 155.996 167.458C155.681 165.94 163.186 132.657 169.021 108.396C174.851 84.159 161.547 96.8459 156.377 103.812Z" fill="#AD6359"/>
        <path d="M156.231 167.47C156.793 163.945 167.194 119.982 169.988 106.152C172.782 92.3223 167.902 88.8452 156.316 102.784C144.735 116.723 121.309 161.139 117.674 183.477C114.179 204.993 124.792 203.499 137.461 192.028C147.831 182.63 156.231 167.47 156.231 167.47Z" fill="#8879FF"/>
        <path d="M156.23 167.47C159.242 150.405 163.064 133.491 167.696 116.795C164.69 133.854 160.857 150.774 156.23 167.47Z" fill="#263238"/>
        <path d="M168.283 119.293C168.18 121.578 167.218 123.804 165.755 125.551C166.468 123.429 167.376 121.349 168.283 119.293Z" fill="#263238"/>
        <path d="M119.284 198.069C125.881 205.15 141.041 204.546 179.362 206.602C184.665 206.886 196.742 170.004 191.094 169.412C183.982 168.662 156.22 167.295 154.176 167.452C136.948 168.771 114.809 193.268 119.284 198.069Z" fill="#AD6359"/>
        <path d="M184.393 170.736C184.393 170.736 198.495 166.183 206.647 166.08C217.562 165.947 227.038 170.325 230.896 172.399C238.957 176.729 255.447 192.772 251.656 198.329C248.221 203.36 232.196 186.108 232.196 186.108C232.196 186.108 251.438 200.996 246.195 206.293C240.946 211.591 223.482 190.51 223.482 190.51C223.482 190.51 242.912 206.251 236.641 210.859C231.9 214.342 215.004 196.134 215.004 196.134C215.004 196.134 231.61 209.782 226.887 213.568C221.668 217.753 205.02 201.933 205.02 201.933C191.396 209.547 181.799 207.593 175.135 205.398C173.515 204.866 184.393 170.736 184.393 170.736Z" fill="#AD6359"/>
        <path d="M225.871 180.532C228.193 182.201 230.558 183.87 232.729 185.739C234.893 187.608 236.998 189.555 238.987 191.617C243.855 196.672 246.111 200.603 245.942 200.373C242.023 194.997 234.361 188.188 232.196 186.32C230.032 184.457 227.963 182.48 225.799 180.617C225.744 180.563 225.817 180.49 225.871 180.532Z" fill="#263238"/>
        <path d="M218.984 188.237C221.856 190.492 224.795 192.627 227.571 195.015C230.335 197.386 232.747 199.883 235.342 202.441C235.541 202.641 235.372 202.683 235.16 202.49C232.469 200.041 229.79 197.979 227.069 195.56C224.36 193.147 221.717 190.613 218.924 188.303C218.881 188.267 218.942 188.2 218.984 188.237Z" fill="#263238"/>
        <path d="M211.884 193.788C216.456 197.011 220.423 201.074 224.227 205.156C224.414 205.362 224.19 205.392 223.985 205.193C219.951 201.334 216.819 198.281 211.776 193.945C211.691 193.878 211.788 193.721 211.884 193.788Z" fill="#263238"/>
        <path d="M186.691 168.299L159.14 209.28C159.14 209.28 125.035 206.341 118.975 198.553C114.984 193.425 136.681 167.337 155.827 167.325L186.691 168.299Z" fill="#8879FF"/>
        <path d="M134.263 176.402C136.984 173.784 144.791 167.464 155.857 167.301C155.954 167.301 155.978 167.452 155.881 167.464C147.651 168.39 137.19 174.231 134.36 176.529C134.275 176.584 134.19 176.469 134.263 176.402Z" fill="#263238"/>
        <path d="M149.35 204.449C152.138 199.78 155.173 195.263 158.221 190.758C161.269 186.247 164.31 181.729 167.473 177.297C169.257 174.793 171.035 172.278 172.903 169.835C172.952 169.768 173.073 169.835 173.03 169.907C170.249 174.57 167.231 179.099 164.214 183.622C161.196 188.152 158.124 192.657 155.016 197.125C153.256 199.653 151.454 202.145 149.586 204.588C149.489 204.709 149.265 204.582 149.35 204.449Z" fill="#263238"/>
        <path d="M186.685 167.821C184.599 167.44 182.483 167.386 180.366 167.289C178.25 167.192 176.133 167.132 174.017 167.089C169.802 167.011 160.888 166.358 153.287 167.446C153.202 167.458 153.692 167.803 153.777 167.791C157.369 167.083 184.049 168.595 186.202 168.45C186.135 168.601 186.075 168.752 186.032 168.916C186.002 169.025 186.129 169.145 186.232 169.055C186.474 168.837 186.631 168.589 186.855 168.353C187.03 168.166 186.958 167.87 186.685 167.821Z" fill="#263238"/>
        <path d="M127.61 203.451C130.985 204.152 135.714 205.531 139.088 206.414C135.109 206.244 131.227 205.059 127.61 203.451Z" fill="#263238"/>
        <path d="M189.145 106.346C184.126 106.957 174.571 100.063 171.862 92.6792C171.681 92.1713 173.132 87.3517 174.626 81.4074C175.515 77.7972 176.422 73.7577 176.984 70.0146C177.093 69.2466 199.618 79.2425 199.618 79.2425C199.618 79.2425 196.129 86.747 195.192 93.2839C195.119 93.8282 195.095 94.3483 195.125 94.8441C195.125 94.9167 195.131 95.0074 195.119 95.1041C195.162 98.0975 194.515 105.687 189.145 106.346Z" fill="#AD6359"/>
        <path d="M195.132 94.8502C195.125 94.9228 195.125 95.0195 195.119 95.1102C194.37 95.0981 193.565 95.0195 192.695 94.8744C178.913 92.4979 177.861 74.6407 177.812 70.1476C181.894 71.3692 199.618 79.2486 199.618 79.2486C199.618 79.2486 196.129 86.7591 195.186 93.2961C195.132 93.8403 195.101 94.3543 195.132 94.8502Z" fill="#263238"/>
        <path d="M176.997 40.1961C173.46 48.263 175.032 72.9474 180.353 79.0369C188.063 87.8657 202.093 90.2725 209.954 80.6817C217.567 71.3873 214.949 39.2528 208.878 33.5745C199.934 25.2113 182.222 28.2833 176.997 40.1961Z" fill="#AD6359"/>
        <path d="M198.719 58.603C198.701 58.5426 198.592 58.6877 198.598 58.7542C198.707 60.4172 198.556 62.3402 197.068 62.9449C197.02 62.963 197.032 63.0477 197.087 63.0356C198.913 62.7211 199.094 60.1632 198.719 58.603Z" fill="#263238"/>
        <path d="M197.171 56.922C194.486 56.8131 194.462 62.189 196.953 62.2918C199.403 62.3886 199.421 57.0127 197.171 56.922Z" fill="#263238"/>
        <path d="M208.364 58.9178C208.376 58.8513 208.491 58.9964 208.491 59.0629C208.431 60.7259 208.642 62.6489 210.148 63.2052C210.197 63.2234 210.191 63.308 210.136 63.2959C208.298 63.0299 208.038 60.484 208.364 58.9178Z" fill="#263238"/>
        <path d="M209.858 57.1823C212.537 56.9888 212.73 62.3647 210.245 62.5462C207.802 62.7155 207.609 57.3396 209.858 57.1823Z" fill="#263238"/>
        <path d="M195.06 54.4489C195.792 54.2675 196.439 53.9772 197.146 53.7233C197.944 53.433 198.61 53.2879 199.13 52.5743C199.408 52.1933 199.299 51.504 198.954 51.1956C198.15 50.476 197.086 50.5848 196.112 50.8932C195.054 51.2258 194.328 51.7519 193.718 52.6771C193.125 53.5781 194.092 54.6908 195.06 54.4489Z" fill="#263238"/>
        <path d="M211.95 54.4793C211.206 54.3523 210.541 54.1165 209.815 53.9169C208.999 53.6932 208.322 53.5964 207.747 52.9252C207.439 52.5684 207.499 51.873 207.82 51.5404C208.563 50.7603 209.634 50.7906 210.632 51.0204C211.708 51.2683 212.476 51.74 213.159 52.6108C213.806 53.4634 212.929 54.6426 211.95 54.4793Z" fill="#263238"/>
        <path d="M197.117 74.0661C197.516 74.4591 197.909 74.9973 198.514 75.0518C199.095 75.1001 199.772 74.8461 200.304 74.6405C200.358 74.6224 200.413 74.6768 200.377 74.7252C199.941 75.3601 199.028 75.7593 198.26 75.6202C197.504 75.4871 197.135 74.834 196.954 74.1386C196.936 74.0419 197.063 74.0056 197.117 74.0661Z" fill="#263238"/>
        <path d="M198.889 69.083C199.814 70.5344 201.187 71.3265 202.668 71.6229C203.327 71.7559 204.029 71.7861 204.706 71.7257C204.839 71.7257 204.972 71.7075 205.099 71.6833C205.22 71.6712 205.329 71.6531 205.462 71.6289C205.656 71.5987 205.764 71.4414 205.795 71.26V71.2479C205.795 71.1875 205.795 71.1391 205.776 71.0786C205.776 71.0786 205.776 71.0786 205.776 71.0665V70.9214C205.819 69.6394 205.698 67.6862 205.698 67.6862C206.163 67.922 208.552 69.0044 208.516 68.3393C208.207 62.788 207.863 56.6199 206.381 51.1593C206.339 50.9779 206.061 51.0203 206.079 51.2017C206.163 56.5473 207.191 61.8386 207.367 67.2084C206.605 66.9182 205.365 66.3739 204.694 66.386C204.513 66.4405 204.99 70.1534 204.924 70.7279C204.924 70.7279 204.924 70.7521 204.912 70.7883C202.753 71.0544 201.132 70.4013 199.046 68.944C198.925 68.8351 198.792 68.95 198.889 69.083Z" fill="#263238"/>
        <path d="M203.956 71.0666C203.956 71.0666 202.813 72.5965 201.253 73.1468C200.679 73.3524 200.062 73.431 199.415 73.2556C198.084 72.8988 198.054 71.6773 198.308 70.6372C198.508 69.7785 198.913 69.0408 198.913 69.0408C198.913 69.0408 200.842 70.867 203.956 71.0666Z" fill="#263238"/>
        <path d="M201.253 73.147C200.679 73.3526 200.062 73.4312 199.415 73.2559C198.084 72.8991 198.054 71.6776 198.308 70.6375C199.729 70.7886 201.132 71.7622 201.253 73.147Z" fill="#FF9BBC"/>
        <path d="M213.946 42.8749C213.226 40.8007 212.253 40.3654 212.253 40.3654C212.253 40.3654 212.271 37.9163 210.064 34.7778C207.754 31.4942 205.244 31.0649 205.244 31.0649C205.244 31.0649 203.134 28.6883 198.344 27.7933C197.244 27.5877 193.906 27.5333 192.878 27.9506C191.693 28.4283 190.429 27.8054 189.195 27.7752C188.052 27.751 186.909 27.9748 185.845 28.4162C184.968 28.779 184.134 29.293 183.39 29.9461C182.961 30.3271 182.586 30.7625 182.199 31.2039C181.558 31.9356 180.947 32.1896 180.082 32.4436C178.226 32.9939 176.684 34.3303 175.746 36.2775C175.202 37.4023 174.966 38.6117 174.912 39.8997C174.851 41.4599 173.206 42.1976 172.596 43.5401C171.604 45.7171 172.13 48.3355 173.696 49.9501C171.652 51.4135 170.884 54.691 171.979 57.2671C172.825 59.2627 174.597 60.1516 176.387 60.6414C176.726 60.7321 177.065 60.7865 177.397 60.8047C181.062 61.4154 184.678 57.382 183.348 53.0281C183.348 53.016 183.354 53.0039 183.354 52.9918C183.354 52.9918 186.105 52.3447 188.379 49.43C189.77 47.6461 190.223 45.197 190.241 42.8084C194.837 45.705 201.217 42.8507 202.039 36.9427C203.345 38.3819 207.113 40.8128 208.848 40.2686C209.598 45.5719 213.075 47.5494 214 47.5191C214.127 47.5252 214.768 45.2575 213.946 42.8749ZM181.068 59.2627C182.126 58.156 182.936 56.5898 183.317 53.2699C183.825 55.7976 182.755 57.9746 181.068 59.2627ZM195.599 43.0684C198.236 42.3307 200.503 40.19 201.604 37.0939C200.769 40.71 198.417 42.5726 195.599 43.0684Z" fill="#2A2A2A"/>
        <path d="M196.512 66.2956C193.53 65.9328 191.051 63.5865 190.652 60.4783C190.18 56.7956 192.786 53.4213 196.463 52.9436C200.146 52.4719 203.52 55.0782 203.998 58.7549C204.47 62.4315 201.863 65.8119 198.187 66.2896C197.612 66.3622 197.056 66.3622 196.512 66.2956ZM198.029 53.8325C197.558 53.7781 197.074 53.772 196.578 53.8386C193.391 54.2498 191.13 57.1766 191.541 60.3634C191.952 63.5503 194.879 65.8119 198.066 65.4007C201.252 64.9895 203.514 62.0627 203.103 58.8758C202.752 56.1788 200.611 54.147 198.029 53.8325Z" fill="#E7DFE9"/>
        <path d="M211.951 66.2836C209.393 65.9752 207.397 63.0726 207.409 59.5653C207.415 57.7934 207.929 56.1244 208.848 54.8666C209.798 53.5665 211.08 52.8529 212.447 52.859C213.819 52.865 215.083 53.5907 216.026 54.8969C216.94 56.1607 217.435 57.8358 217.429 59.6076C217.411 63.3145 215.156 66.326 212.392 66.3139C212.241 66.3078 212.096 66.2957 211.951 66.2836ZM212.785 53.7721C212.67 53.76 212.561 53.754 212.447 53.7479C211.376 53.7419 210.36 54.3284 209.58 55.3867C208.77 56.4933 208.322 57.9749 208.31 59.5532C208.298 62.7642 210.124 65.3887 212.398 65.4007C214.666 65.4128 216.516 62.8005 216.534 59.5894C216.54 58.0051 216.105 56.5235 215.301 55.4109C214.605 54.4615 213.728 53.887 212.785 53.7721Z" fill="#E7DFE9"/>
        <path d="M203.768 59.535L203.193 58.8456C204.215 57.993 206.58 56.8501 208.219 58.6159L207.559 59.2266C206.09 57.6423 203.859 59.4564 203.768 59.535Z" fill="#E7DFE9"/>
        <path d="M173.781 61.1374L172.982 60.7202C173.176 60.3513 174.936 57.0798 176.949 56.7593C178.83 56.469 190.882 57.6482 191.39 57.7026L191.299 58.5976C187.846 58.2529 178.54 57.4245 177.088 57.6482C175.764 57.8599 174.252 60.2424 173.781 61.1374Z" fill="#E7DFE9"/>
        <path d="M180.765 60.8892C180.765 60.8892 176.048 52.526 172.305 54.1285C168.562 55.7371 171.574 67.4867 175.595 69.4459C179.616 71.4052 181.503 67.7165 181.503 67.7165L180.765 60.8892Z" fill="#AD6359"/>
        <path d="M173.254 57.4787C173.188 57.4666 173.164 57.5573 173.224 57.5875C176.036 59.057 177.312 61.9173 178.116 64.8381C177.354 63.671 176.223 62.9634 174.675 63.8584C174.597 63.9068 174.657 64.0338 174.742 64.0217C175.963 63.8826 176.81 64.1729 177.524 65.213C178.032 65.9507 178.34 66.8457 178.673 67.6681C178.781 67.9402 179.271 67.8495 179.199 67.5411C179.193 67.517 179.187 67.4928 179.181 67.4686C179.61 63.7435 177.221 58.2406 173.254 57.4787Z" fill="#263238"/>
        <path d="M277.111 0.260132V38.3037H282.449V47.5368L291.675 38.3037H365.104V0.260132H277.111Z" fill="white"/>
        <path d="M277.112 0.260189L277.224 19.3312C277.273 25.6741 277.309 31.989 277.309 38.3108L277.112 38.1139L282.449 38.0998H282.66V38.3108L282.681 47.5369L282.294 47.3752L291.506 38.128L291.584 38.0506H291.689C313.306 38.0155 343.804 37.9311 365.118 37.9803L364.795 38.3038L364.858 0.260189L365.118 0.520373C343.171 0.506309 299.045 0.358638 277.112 0.260189ZM277.112 0.260189C299.038 0.168772 343.185 0.0140642 365.111 0H365.371V0.260189L365.435 38.3038V38.6273H365.111C343.902 38.7046 313.207 38.571 291.682 38.5569L291.865 38.4796L282.618 47.6916L282.224 48.0784V47.5299L282.245 38.3038L282.456 38.5147L277.119 38.5007H276.922C276.858 27.3618 277.098 11.5397 277.112 0.260189Z" fill="#263238"/>
        <path d="M351.828 8.35388H312.35V10.1541H351.828V8.35388Z" fill="#A6A6A6"/>
        <path d="M312.35 15.0484C326.611 14.5773 340.97 14.5773 355.238 15.0484C340.97 15.5196 326.611 15.5196 312.35 15.0484Z" fill="#EBEBEB"/>
        <path d="M312.35 19.8376C327.377 19.3664 342.503 19.3664 357.538 19.8376C342.503 20.3087 327.377 20.3087 312.35 19.8376Z" fill="#EBEBEB"/>
        <path d="M312.35 24.6264C323.038 24.1553 333.819 24.1553 344.507 24.6264C333.812 25.0976 323.038 25.0976 312.35 24.6264Z" fill="#EBEBEB"/>
        <path d="M312.35 29.4149C323.038 28.9438 333.819 28.9438 344.507 29.4149C333.812 29.8931 323.038 29.8931 312.35 29.4149Z" fill="#EBEBEB"/>
        <path d="M307.852 18.9865C307.852 11.9959 302.185 6.32874 295.195 6.32874C288.204 6.32874 282.537 11.9959 282.537 18.9865C282.537 25.9769 288.204 31.6439 295.195 31.6439C302.185 31.6439 307.852 25.9769 307.852 18.9865Z" fill="#E1E0ED"/>
        <path d="M285.071 26.5862C285.214 26.3804 285.368 26.1826 285.533 25.994C286.361 25.0455 287.46 24.3279 288.67 23.9768C289.21 23.8212 289.751 23.6634 290.291 23.5058C290.928 23.3203 291.565 23.1371 292.199 22.9518C292.856 23.7582 293.921 24.2569 294.96 24.3024C295.999 24.3475 297.05 23.9317 297.773 23.1844C298.351 23.3087 298.937 23.4188 299.522 23.5276C300.238 23.6596 300.954 23.7917 301.659 23.9416C303.178 24.2639 304.571 25.0531 305.626 26.1558C303.344 29.4708 299.523 31.6447 295.194 31.6447C291.056 31.6447 287.381 29.658 285.071 26.5865L285.071 26.5862Z" fill="#D25AC4"/>
        <path d="M301.839 29.7614C297.334 30.1935 292.776 30.1395 288.287 29.5949C287.029 28.7737 285.925 27.7349 285.03 26.5315C285.155 26.3578 285.288 26.1902 285.429 26.0291C291.886 27.377 298.595 27.282 305.208 26.7289C304.278 27.9302 303.136 28.9597 301.839 29.7614Z" fill="#9A3E9C"/>
        <path d="M299.522 23.5271C298.312 25.0749 297.099 26.646 295.892 28.182C294.025 26.6245 292.158 25.065 290.291 23.5053C290.928 23.3198 291.565 23.1366 292.2 22.9514C292.856 23.7577 293.921 24.2564 294.96 24.3019C295.999 24.347 297.05 23.9313 297.773 23.1839C298.351 23.3082 298.937 23.4183 299.522 23.5271Z" fill="#9A3E9C"/>
        <path d="M301.89 24.1385C301.708 25.8905 301.904 27.6809 302.46 29.3522" stroke="#060305" stroke-width="0.197128" stroke-miterlimit="10" stroke-linecap="round" stroke-linejoin="round"/>
        <path d="M288.122 24.1553C288.433 25.954 288.511 27.8099 288.352 29.6368" stroke="#060305" stroke-width="0.197128" stroke-miterlimit="10" stroke-linecap="round" stroke-linejoin="round"/>
        <path d="M289.79 17.1197C289.443 17.0823 289.144 16.7729 289.119 16.4241C289.094 16.0751 289.345 15.7263 289.684 15.6398C289.524 15.3166 289.565 14.8718 289.858 14.6608C289.571 14.6342 289.335 14.3476 289.364 14.0611C289.393 13.7748 289.682 13.5412 289.968 13.5725C289.562 13.1482 289.437 12.4569 289.737 11.9523C290.037 11.4477 290.691 11.1831 291.257 11.3371C291.18 10.9578 291.361 10.5164 291.705 10.3391C292.049 10.162 292.507 10.2416 292.77 10.525C292.803 10.042 293.134 9.61505 293.592 9.45828C294.05 9.30192 294.595 9.44516 294.917 9.80688C294.912 9.1658 295.536 8.65554 296.177 8.65164C296.818 8.64731 297.404 9.22737 297.408 9.86817C297.473 9.57848 297.823 9.39099 298.1 9.49709C298.377 9.60333 298.512 9.97664 298.367 10.2357C298.856 9.95165 299.472 10.0449 299.897 10.4181C300.321 10.7911 300.472 11.4446 300.252 11.9655C300.39 11.8651 300.637 11.8965 300.755 12.0188C300.875 12.1408 300.915 12.3234 300.901 12.4936C300.887 12.6638 300.826 12.8261 300.764 12.9854C300.962 12.8696 301.247 12.9445 301.362 13.1425C301.477 13.3402 301.4 13.625 301.202 13.7392C301.849 14.0558 302.091 15.0085 301.889 15.6995C301.687 16.3908 301.048 16.9072 300.345 17.0612L289.79 17.1199V17.1197Z" fill="#060305"/>
        <path d="M292.005 9.9978C292.332 10.0679 292.629 10.2717 292.812 10.5516C292.631 10.1804 292.636 9.72305 292.827 9.35645" stroke="#060305" stroke-width="0.197128" stroke-miterlimit="10" stroke-linecap="round" stroke-linejoin="round"/>
        <path d="M297.973 23.3149C297.984 23.0249 297.967 22.7261 297.979 22.4363C298.602 22.2395 299.154 21.8253 299.517 21.2823C299.881 20.7393 300.128 20.0337 300.072 19.3826C300.871 18.9212 301.378 17.9943 301.335 17.0728C301.316 16.6869 301.2 16.2906 300.93 16.0137C300.661 15.7368 300.247 15.5561 299.9 15.7273C299.78 14.9143 299.688 14.0796 299.568 13.2667C299 12.9985 298.535 12.6953 297.968 12.4271C297.923 12.8838 297.557 13.2903 297.108 13.3824C296.659 13.4746 296.162 13.2448 295.942 12.8429C295.898 13.1529 295.599 13.4056 295.285 13.3963C294.972 13.3868 294.672 13.2278 294.648 12.9153C294.55 13.3473 294.206 13.7147 293.781 13.8391C293.355 13.9633 292.818 13.8492 292.503 13.5373C292.421 14.5465 292.34 15.5561 292.258 16.5653C292.073 16.2881 291.93 16.0259 291.745 15.7489C290.918 15.6319 290.041 16.0755 289.645 16.8105C289.249 17.5454 289.361 18.5219 289.913 19.148C290.465 19.7745 291.42 20.0075 292.199 19.7065C292.163 20.8895 292.005 22.0978 291.97 23.2808C293.125 24.1913 294.404 25.1225 295.559 26.033C296.31 25.1472 297.222 24.2008 297.973 23.315L297.973 23.3149Z" fill="#CD7878"/>
        <path d="M298.165 19.4528C298.165 19.3712 298.099 19.3049 298.017 19.3049C297.935 19.3049 297.869 19.3712 297.869 19.4528C297.869 19.5347 297.935 19.6006 298.017 19.6006C298.099 19.6006 298.165 19.5346 298.165 19.4528Z" fill="#CE7181"/>
        <path d="M299.303 19.5341C299.303 19.4524 299.236 19.3862 299.155 19.3862C299.073 19.3862 299.007 19.4524 299.007 19.5341C299.007 19.6157 299.073 19.6819 299.155 19.6819C299.236 19.6819 299.303 19.6157 299.303 19.5341Z" fill="#CE7181"/>
        <path d="M297.887 18.7919C297.887 18.7102 297.821 18.644 297.74 18.644C297.658 18.644 297.592 18.7102 297.592 18.7919C297.592 18.8734 297.658 18.9397 297.74 18.9397C297.821 18.9397 297.887 18.8734 297.887 18.7919Z" fill="#CE7181"/>
        <path d="M298.896 18.9892C298.896 18.9075 298.83 18.8413 298.748 18.8413C298.667 18.8413 298.601 18.9075 298.601 18.9892C298.601 19.0707 298.667 19.137 298.748 19.137C298.83 19.137 298.896 19.0708 298.896 18.9892Z" fill="#CE7181"/>
        <path d="M299.731 18.5482C299.731 18.4666 299.665 18.4004 299.583 18.4004C299.502 18.4004 299.436 18.4666 299.436 18.5482C299.436 18.6299 299.502 18.6961 299.583 18.6961C299.665 18.6961 299.731 18.6299 299.731 18.5482Z" fill="#CE7181"/>
        <path d="M292.83 18.8497C292.83 18.7682 292.764 18.7018 292.682 18.7018C292.6 18.7018 292.534 18.7682 292.534 18.8497C292.534 18.9314 292.6 18.9975 292.682 18.9975C292.764 18.9975 292.83 18.9314 292.83 18.8497Z" fill="#CE7181"/>
        <path d="M295.255 18.9075C295.255 18.8259 295.188 18.7597 295.107 18.7597C295.025 18.7597 294.959 18.8259 294.959 18.9075C294.959 18.9891 295.025 19.0554 295.107 19.0554C295.188 19.0554 295.255 18.9891 295.255 18.9075Z" fill="#CE7181"/>
        <path d="M293.491 19.2674C293.491 19.1853 293.425 19.1196 293.343 19.1196C293.262 19.1196 293.195 19.1855 293.195 19.2674C293.195 19.3489 293.262 19.4153 293.343 19.4153C293.425 19.4153 293.491 19.3489 293.491 19.2674Z" fill="#CE7181"/>
        <path d="M294.349 19.5804C294.349 19.4987 294.283 19.4326 294.202 19.4326C294.12 19.4326 294.054 19.4987 294.054 19.5804C294.054 19.6619 294.12 19.7282 294.202 19.7282C294.283 19.7282 294.349 19.6619 294.349 19.5804Z" fill="#CE7181"/>
        <path d="M294.222 18.8381C294.222 18.7564 294.156 18.6902 294.075 18.6902C293.993 18.6902 293.927 18.7564 293.927 18.8381C293.927 18.9198 293.993 18.9859 294.075 18.9859C294.156 18.9859 294.222 18.9198 294.222 18.8381Z" fill="#CE7181"/>
        <path d="M295.509 16.9697C295.509 16.1558 294.849 15.4963 294.035 15.4963C293.221 15.4963 292.562 16.1558 292.562 16.9697C292.562 17.7836 293.221 18.4435 294.035 18.4435C294.849 18.4435 295.509 17.7836 295.509 16.9697Z" stroke="#060305" stroke-width="0.197128" stroke-miterlimit="10" stroke-linecap="round" stroke-linejoin="round"/>
        <path d="M299.867 16.9697C299.867 16.1558 299.208 15.4963 298.394 15.4963C297.58 15.4963 296.92 16.1558 296.92 16.9697C296.92 17.7836 297.58 18.4435 298.394 18.4435C299.208 18.4435 299.867 17.7836 299.867 16.9697Z" stroke="#060305" stroke-width="0.197128" stroke-miterlimit="10" stroke-linecap="round" stroke-linejoin="round"/>
        <path d="M295.462 16.5617C295.647 16.3424 295.934 16.2131 296.221 16.2203C296.508 16.2278 296.789 16.3709 296.963 16.5993" stroke="#060305" stroke-width="0.197128" stroke-miterlimit="10" stroke-linecap="round" stroke-linejoin="round"/>
        <path d="M294.3 17.2954C294.3 17.1318 294.167 16.9997 294.004 16.9997C293.84 16.9997 293.708 17.1318 293.708 17.2954C293.708 17.4586 293.84 17.5912 294.004 17.5912C294.167 17.5912 294.3 17.4587 294.3 17.2954Z" fill="#060305"/>
        <path d="M298.36 17.2954C298.36 17.1318 298.228 16.9997 298.064 16.9997C297.901 16.9997 297.769 17.1318 297.769 17.2954C297.769 17.4586 297.901 17.5912 298.064 17.5912C298.228 17.5912 298.36 17.4587 298.36 17.2954Z" fill="#060305"/>
        <path d="M297.605 16.2491C297.965 16.2516 298.325 16.2541 298.684 16.2568" stroke="#060305" stroke-width="0.197128" stroke-miterlimit="10" stroke-linecap="round" stroke-linejoin="round"/>
        <path d="M294.56 16.2025C294.357 16.0619 294.103 15.9963 293.857 16.0209C293.611 16.0456 293.376 16.1601 293.204 16.338" stroke="#060305" stroke-width="0.197128" stroke-miterlimit="10" stroke-linecap="round" stroke-linejoin="round"/>
        <path d="M296.232 16.9128C296.308 17.6327 296.384 18.3522 296.461 19.0716C296.298 19.0921 296.113 19.083 295.95 19.1034" stroke="#060305" stroke-width="0.197128" stroke-miterlimit="10" stroke-linecap="round" stroke-linejoin="round"/>
        <path d="M295.309 19.5923C295.343 19.7592 295.472 19.9027 295.634 19.9557C295.796 20.0085 295.984 19.9686 296.111 19.8545" stroke="#060305" stroke-width="0.197128" stroke-miterlimit="10" stroke-linecap="round" stroke-linejoin="round"/>
        <path d="M299.915 15.677C299.969 16.941 300.024 18.205 300.078 19.4691" stroke="#060305" stroke-width="0.197128" stroke-miterlimit="10" stroke-linecap="round" stroke-linejoin="round"/>
        <path d="M300.027 17.3285C300.27 17.1368 300.514 16.945 300.757 16.7536" stroke="#060305" stroke-width="0.197128" stroke-miterlimit="10" stroke-linecap="round" stroke-linejoin="round"/>
        <path d="M290.45 16.606C290.903 16.9356 291.356 17.2652 291.809 17.595" stroke="#060305" stroke-width="0.197128" stroke-miterlimit="10" stroke-linecap="round" stroke-linejoin="round"/>
        <path d="M290.541 19.0219C290.226 18.9567 289.878 19.1679 289.79 19.4777C289.703 19.7876 289.888 20.1496 290.191 20.2592C290.494 20.3686 290.868 20.2093 290.999 19.9151" stroke="#060305" stroke-width="0.197128" stroke-miterlimit="10" stroke-linecap="round" stroke-linejoin="round"/>
        <path d="M295.558 22.5843C296.357 22.8415 297.245 22.8148 298.027 22.5098" stroke="#060305" stroke-width="0.197128" stroke-miterlimit="10" stroke-linecap="round" stroke-linejoin="round"/>
        <path d="M297.949 12.3074C298.028 12.6441 297.95 13.0145 297.743 13.2908C297.535 13.5672 297.201 13.745 296.855 13.763" stroke="#060305" stroke-width="0.197128" stroke-miterlimit="10" stroke-linecap="round" stroke-linejoin="round"/>
    </svg>