<svg width="16" height="14" viewBox="0 0 16 14" fill="none" xmlns="http://www.w3.org/2000/svg">
<path d="M15.0555 12.4915L11.7477 9.36738C12.544 8.36609 12.9739 7.14732 12.9725 5.895C12.9725 2.69621 10.217 0.09375 6.83 0.09375C3.44305 0.09375 0.6875 2.69621 0.6875 5.895C0.6875 9.09379 3.44305 11.6963 6.83 11.6963C8.15598 11.6976 9.44645 11.2916 10.5066 10.5395L13.8145 13.6635C13.9819 13.8049 14.2003 13.8804 14.4248 13.8744C14.6493 13.8685 14.8629 13.7816 15.0217 13.6316C15.1805 13.4816 15.2725 13.2799 15.2788 13.0679C15.2851 12.8559 15.2052 12.6496 15.0555 12.4915ZM2.4425 5.895C2.4425 5.07544 2.69982 4.27429 3.18193 3.59286C3.66403 2.91142 4.34927 2.38031 5.15098 2.06667C5.95269 1.75304 6.83487 1.67098 7.68596 1.83087C8.53705 1.99076 9.31883 2.38541 9.93243 2.96493C10.546 3.54444 10.9639 4.28279 11.1332 5.0866C11.3025 5.8904 11.2156 6.72357 10.8835 7.48074C10.5514 8.23792 9.98909 8.88508 9.26756 9.3404C8.54604 9.79572 7.69777 10.0388 6.83 10.0388C5.66679 10.0374 4.55162 9.60044 3.72911 8.82362C2.9066 8.0468 2.4439 6.99359 2.4425 5.895Z" fill="#D25AC4"/>
</svg>
