<svg xmlns="http://www.w3.org/2000/svg" width="13" height="13" viewBox="0 0 13 13" fill="none">
<path d="M11.375 2.70834L1.62501 2.70834C1.5263 2.70865 1.42954 2.73587 1.34515 2.78708C1.26076 2.8383 1.19193 2.91155 1.14607 2.99897C1.10022 3.08639 1.07908 3.18466 1.08492 3.2832C1.09076 3.38174 1.12336 3.47682 1.17922 3.55821L6.05422 10.5999C6.25626 10.8918 6.74268 10.8918 6.94526 10.5999L11.8203 3.55821C11.8767 3.47699 11.9098 3.38186 11.9159 3.28316C11.9221 3.18445 11.9011 3.08595 11.8552 2.99834C11.8093 2.91074 11.7403 2.83739 11.6556 2.78626C11.571 2.73513 11.4739 2.70818 11.375 2.70834Z" fill="#9EA1A2"/>
</svg>